<svg xmlns="http://www.w3.org/2000/svg" xmlns:xlink="http://www.w3.org/1999/xlink" width="176.155" height="71" viewBox="0 0 176.155 71">
  <defs>
    <clipPath id="clip-path">
      <rect id="Rectangle_39" data-name="Rectangle 39" width="176.155" height="71" fill="none"/>
    </clipPath>
  </defs>
  <g id="Group_26" data-name="Group 26" transform="translate(-1618.352 -1000.304)">
    <g id="Group_25" data-name="Group 25" transform="translate(1618.352 1000.304)" style="isolation: isolate">
      <g id="Group_24" data-name="Group 24" clip-path="url(#clip-path)">
        <path id="Path_239" data-name="Path 239" d="M231.143,0c.8.791,1.651,1.542,2.4,2.381a25.12,25.12,0,0,1,6.03,11.6c.095.442.206.88.29,1.324s.142.894.19,1.2a13.919,13.919,0,0,0,1.166-.972,32.986,32.986,0,0,1,13.957-8.516.928.928,0,0,1,.959.186A42.505,42.505,0,0,1,259.85,10.5c.093.093.256.177.222.317-.039.155-.223.111-.35.134a27.579,27.579,0,0,0-13.381,6.468,27.229,27.229,0,0,0-6.8,8.99c-.047.1-.062.237-.211.259-.143-.105-.024-.213,0-.315a26.68,26.68,0,0,0,.821-8.951.727.727,0,0,0-.152-.517c-.112.118-.211.209-.3.311a33.318,33.318,0,0,0-4.449,6.853,7.064,7.064,0,0,1-.653,1.29c.185-.971.423-1.936.545-2.915a19.806,19.806,0,0,0,.005-5.562,22.821,22.821,0,0,0-1.163-4.619,20.852,20.852,0,0,0-3.179-5.551,21.267,21.267,0,0,0-6.292-5.315c-.009-.005-.01-.026-.029-.085A27.647,27.647,0,0,1,227.67.516,24,24,0,0,1,230.52.1c.084-.006.169-.008.217-.1Z" transform="translate(-198.856)" fill="#fff"/>
        <path id="Path_240" data-name="Path 240" d="M1349.074,189.828v3.394c0,5.221-.008,10.442.013,15.663,0,.508-.145.611-.619.6-1.166-.035-2.334-.029-3.5,0-.4.009-.509-.1-.507-.5.015-4.275.009-8.55.009-12.825,0-3.92.007-7.84-.01-11.76,0-.439.094-.569.553-.561,1.674.031,3.349.024,5.024,0a.773.773,0,0,1,.767.418q5.634,9.1,11.289,18.189c.1.166.213.327.4.614v-.667q0-9-.009-18c0-.424.068-.579.54-.563,1.217.04,2.436.025,3.653.006.32-.005.392.092.392.4q-.012,12.419,0,24.838c0,.3-.058.408-.385.4q-2.537-.026-5.074,0c-.318,0-.436-.16-.575-.386q-5.668-9.228-11.344-18.451c-.174-.282-.35-.563-.525-.844l-.088.031" transform="translate(-1190.914 -162.836)" fill="#fff"/>
        <path id="Path_241" data-name="Path 241" d="M1144.445,196.684c0-4.089.008-8.179-.011-12.268,0-.456.123-.552.563-.55q7.942.024,15.885,0c.427,0,.589.07.568.544-.043,1-.031,1.994,0,2.99.01.391-.087.511-.5.509-3.789-.017-7.579,0-11.368-.023-.469,0-.545.138-.539.562q.035,2.737,0,5.475c0,.381.1.477.477.475,3.586-.015,7.173,0,10.759-.019.419,0,.544.1.529.528-.034.945-.029,1.893,0,2.838.011.393-.092.51-.5.508-3.569-.017-7.139,0-10.708-.02-.434,0-.564.085-.557.543q.044,3.067,0,6.134c-.007.468.137.545.566.543,3.992-.017,7.985-.005,11.977-.018.376,0,.523.065.51.485-.034,1.064-.023,2.129,0,3.193.005.317-.093.393-.4.393q-8.424-.014-16.849,0c-.441,0-.392-.232-.391-.508q0-6.16,0-12.319" transform="translate(-1013.733 -162.867)" fill="#fff"/>
        <path id="Path_242" data-name="Path 242" d="M545.061,209.492c-.711,0-1.422-.024-2.131.01a.55.55,0,0,1-.625-.424c-.672-1.691-1.373-3.37-2.043-5.061a.527.527,0,0,0-.583-.4q-5.125.019-10.25,0a.513.513,0,0,0-.568.406c-.653,1.7-1.341,3.382-1.994,5.081a.519.519,0,0,1-.586.394c-1.387-.018-2.774-.007-4.161-.008-.55,0-.553,0-.331-.511q4.065-9.337,8.132-18.673c.868-1.992,1.746-3.979,2.6-5.978a.633.633,0,0,1,.7-.474c1,.033,2,.029,2.993,0a.6.6,0,0,1,.665.438q4.868,11.327,9.758,22.644c.307.712.605,1.427.926,2.133.14.308.143.443-.266.427-.743-.028-1.488-.008-2.232-.008m-14.466-9.8c2.57,0,5.053,0,7.535,0,.3,0,.333-.082.229-.35-.5-1.286-.976-2.58-1.465-3.87-.754-1.991-1.511-3.98-2.317-6.1L530.6,199.687" transform="translate(-462.076 -162.858)" fill="#fff"/>
        <path id="Path_243" data-name="Path 243" d="M789.743,196.631c0-4.071.009-8.143-.012-12.214,0-.482.145-.583.593-.571,1.149.031,2.3.035,3.45,0,.457-.015.554.121.553.56q-.022,10.06-.01,20.121c0,.9,0,.9.9.9,3.163,0,6.325.006,9.488-.008.379,0,.527.069.513.489-.033,1.046-.021,2.095,0,3.142,0,.31-.049.443-.407.442q-7.332-.018-14.663,0c-.42,0-.408-.2-.408-.493q.008-6.183,0-12.366" transform="translate(-699.539 -162.847)" fill="#fff"/>
        <path id="Path_244" data-name="Path 244" d="M967.138,196.628c0-4.089.005-8.177-.009-12.266,0-.387.081-.516.493-.505q1.775.045,3.551,0c.434-.011.564.083.563.545q-.027,10.162-.012,20.325c0,.708,0,.708.685.708,3.23,0,6.461.008,9.691-.01.4,0,.508.1.5.5-.029,1.03-.025,2.061,0,3.091.008.363-.065.488-.465.487q-7.281-.023-14.562,0c-.368,0-.439-.114-.438-.455q.017-6.209.007-12.418" transform="translate(-856.678 -162.859)" fill="#fff"/>
        <path id="Path_245" data-name="Path 245" d="M19.593,301.337a18,18,0,0,0-3.822,1.576,14.743,14.743,0,0,0-7.459,11.373c-.012.095.02.207-.112.3a2.257,2.257,0,0,1-.549-.619,36.886,36.886,0,0,1-2.963-4.351.869.869,0,0,1-.057-.843,19.8,19.8,0,0,1,5.126-7.5c.1-.088.189-.179.333-.315-1.079-.3-2.1-.576-3.089-.939a25.854,25.854,0,0,1-6.2-3.295,1.351,1.351,0,0,1-.627-1.061,41.872,41.872,0,0,1-.133-5.868,2.245,2.245,0,0,1,.037-.234,2.426,2.426,0,0,1,.668.628,20.428,20.428,0,0,0,11.267,6.173,23.227,23.227,0,0,0,5.249.306,2.428,2.428,0,0,1,.8.009c-.989.373-2.008.659-2.976,1.1a20.955,20.955,0,0,0-4.54,2.82c-.1.082-.25.2-.247.3.007.18.209.1.33.135a14.733,14.733,0,0,0,3.129.461,23.789,23.789,0,0,0,2.819.077c1-.079,2-.179,3.01-.22" transform="translate(0 -256.486)" fill="#fff"/>
        <path id="Path_246" data-name="Path 246" d="M182.476,259.9c1.077-.376,2.181-.673,3.227-1.143a20.79,20.79,0,0,0,10.266-9.709c.074-.145.092-.331.266-.414a.5.5,0,0,1,.025.193A32.089,32.089,0,0,0,194.9,256c-.057.792-.009,1.592-.009,2.436.283-.251.55-.456.78-.7a26.354,26.354,0,0,0,4.837-6.876c.06-.125.071-.31.27-.329-.185,1.093-.517,2.153-.7,3.25a27.61,27.61,0,0,0,1.525,14.857.883.883,0,0,1,.135.48c-.236-.107-.3-.353-.428-.543a19.7,19.7,0,0,0-5.841-5.679c-.109-.069-.218-.22-.355-.129s-.025.243-.007.37a30.862,30.862,0,0,0,2.065,7.634c.051.125.126.244.043.382-.211-.046-.257-.253-.363-.392A14.866,14.866,0,0,0,185.6,264.72c-.78-.054-1.547.084-2.32.011a1.394,1.394,0,0,1,.308-.159,24.319,24.319,0,0,0,6.015-2.32,16.554,16.554,0,0,0,1.992-1.213,2.449,2.449,0,0,0-.237-.12,21.144,21.144,0,0,0-6.25-1.118c-.881-.03-1.749.134-2.628.1m9.211,1.115a23.748,23.748,0,0,1,3.373,1.616,29.133,29.133,0,0,1-.239-4.089,29.809,29.809,0,0,1-3.134,2.473" transform="translate(-161.636 -220.239)" fill="#fff"/>
        <path id="Path_247" data-name="Path 247" d="M296.586,458.316c.13,0,.159.109.207.189a27.547,27.547,0,0,0,13.933,11.631c.091.035.178.082.264.123-.019.186-.162.23-.264.3a39.281,39.281,0,0,1-4.3,2.579.935.935,0,0,1-.981-.012,32.6,32.6,0,0,1-7.239-5.16c-.134-.126-.27-.25-.455-.421-.152.8-.274,1.547-.44,2.288a19.479,19.479,0,0,1-2.852,6.6.735.735,0,0,1-.608.356,32.57,32.57,0,0,1-6.238.057c.693-.707,1.369-1.311,1.938-2.017a14.909,14.909,0,0,0,3.312-8.175,15.105,15.105,0,0,0-.669-5.89.687.687,0,0,1-.067-.39c.123.016.146.133.192.212a32.154,32.154,0,0,0,3.817,5.282c.474.532,1.04.983,1.571,1.477a19.844,19.844,0,0,0-.257-5.819c-.2-1.1-.594-2.138-.866-3.214" transform="translate(-254.769 -405.974)" fill="#fff"/>
        <path id="Path_248" data-name="Path 248" d="M296.951,161.275c-.2.019-.21.2-.27.329a26.348,26.348,0,0,1-4.837,6.876c-.23.24-.5.446-.78.7,0-.844-.048-1.643.009-2.436a32.082,32.082,0,0,1,1.356-7.174.5.5,0,0,0-.025-.193l.054-.106c.1-.035.1-.1.064-.185l.952-2.55a.118.118,0,0,0,.066-.181l.016-.031a7.063,7.063,0,0,0,.653-1.29,33.312,33.312,0,0,1,4.449-6.853c.085-.1.183-.194.3-.312a.728.728,0,0,1,.152.517,26.679,26.679,0,0,1-.821,8.951c-.026.1-.145.21,0,.315l-.074.2c-.122.038-.115.124-.084.22l-1.047,2.815c-.066.03-.086.075-.046.14l-.08.252" transform="translate(-257.805 -130.979)" fill="#fff"/>
        <path id="Path_249" data-name="Path 249" d="M300.984,382c.272,1.076.667,2.116.866,3.214a19.841,19.841,0,0,1,.257,5.819c-.531-.494-1.1-.945-1.571-1.477a32.15,32.15,0,0,1-3.816-5.282c-.046-.079-.069-.2-.192-.212a.137.137,0,0,1-.048-.066c.054-.076.025-.122-.054-.15-.446-.978-.919-1.943-1.449-2.878.023-.074.03-.139-.076-.146a.186.186,0,0,1-.049-.063c0-.04.005-.081.007-.122l-.075.012-.039-.027.005-.047c.083-.139.008-.258-.043-.382a30.87,30.87,0,0,1-2.065-7.634c-.017-.127-.134-.276.007-.37s.247.06.355.129A19.7,19.7,0,0,1,298.846,378c.128.189.192.436.428.543l1.71,3.46" transform="translate(-259.167 -329.657)" fill="#fff"/>
        <path id="Path_250" data-name="Path 250" d="M100.763,346.492c.878.037,1.747-.127,2.628-.1a21.141,21.141,0,0,1,6.25,1.118,2.457,2.457,0,0,1,.237.12,16.533,16.533,0,0,1-1.992,1.212,24.316,24.316,0,0,1-6.015,2.32,1.392,1.392,0,0,0-.308.158l-2.047.358c-1.006.041-2.009.141-3.01.22a23.779,23.779,0,0,1-2.819-.077,14.737,14.737,0,0,1-3.129-.461c-.12-.031-.322.045-.33-.135,0-.1.145-.215.247-.3a20.952,20.952,0,0,1,4.541-2.82c.967-.437,1.987-.723,2.976-1.1l2.772-.524" transform="translate(-79.923 -306.831)" fill="#fff"/>
        <path id="Path_251" data-name="Path 251" d="M850.257,478.917c0-2.7.009-5.351-.009-8,0-.407.078-.554.517-.538.93.034.931.008.931.92,0,3.058-.007,6.117.009,9.175,0,.374-.1.431-.465.483a2.008,2.008,0,0,1-2.179-1.145c-1.524-2.39-3.16-4.708-4.755-7.053-.071-.1-.1-.251-.309-.308v.493c0,2.518-.007,5.036.008,7.553,0,.353-.084.454-.444.448-1.019-.017-1.02,0-1.02-1.031,0-3.008.006-6.016-.008-9.023,0-.376.082-.47.485-.526a2.026,2.026,0,0,1,2.217,1.162c1.494,2.389,3.115,4.7,4.689,7.036.08.118.121.278.332.355" transform="translate(-746.312 -416.621)" fill="#fff"/>
        <path id="Path_252" data-name="Path 252" d="M1480.211,475.976c0-1.606.011-3.211-.009-4.817,0-.358.1-.452.453-.449q2.969.025,5.939,0c.34,0,.469.069.465.439-.012.955.007.955-.956.955-1.337,0-2.673.009-4.01-.006-.315,0-.446.062-.433.411.027.76.023,1.521,0,2.281-.009.312.083.4.4.4,1.37-.017,2.741,0,4.111-.015.378-.006.533.064.518.49-.032.9-.006.9-.906.9-1.218,0-2.437.018-3.655-.011-.4-.009-.479.116-.467.483.027.827.021,1.656,0,2.484-.007.317.1.4.408.4,1.607-.013,3.215,0,4.822-.014.335,0,.421.091.417.42-.011.941,0,.941-.953.941-1.9,0-3.79-.012-5.685.01-.391,0-.475-.112-.47-.483.021-1.605.009-3.211.009-4.817" transform="translate(-1311.155 -416.952)" fill="#fff"/>
        <path id="Path_253" data-name="Path 253" d="M1281.1,474.4c0-1.1.011-2.2-.007-3.3-.005-.316.092-.4.4-.4,1.064-.007,1.064-.02,1.064,1.048q0,2.611,0,5.222a4.475,4.475,0,0,0,.124,1.154,2.476,2.476,0,0,0,2.683,2.038,2.527,2.527,0,0,0,2.413-2.427c.13-1.415.034-2.837.052-4.255.01-.794.015-1.589,0-2.383-.008-.313.091-.4.4-.4,1.063,0,1.063-.017,1.063,1.05,0,1.91.009,3.82,0,5.729a3.948,3.948,0,0,1-2.647,3.818,4.215,4.215,0,0,1-4.649-1.227,4.073,4.073,0,0,1-.889-2.583c-.013-1.031,0-2.062,0-3.093" transform="translate(-1134.782 -416.944)" fill="#fff"/>
        <path id="Path_254" data-name="Path 254" d="M957.961,479.357a4.391,4.391,0,0,1-3.016-1.111c-.245-.235-.346-.419.009-.657.279-.186.487-.545.781-.624.339-.092.485.373.755.551a2.672,2.672,0,0,0,3,0,1.423,1.423,0,0,0-.193-2.512,13.3,13.3,0,0,0-1.661-.607c-.316-.115-.633-.234-.94-.371a2.945,2.945,0,0,1,.23-5.464,4.384,4.384,0,0,1,4.242.482c.5.37.487.4.034.807-.226.2-.419.5-.683.589-.3.1-.431-.316-.681-.455a2.6,2.6,0,0,0-2.432-.119,1.431,1.431,0,0,0-.891,1.311,1.415,1.415,0,0,0,.743,1.345,6.835,6.835,0,0,0,1.5.587c.337.107.671.223,1,.341a2.646,2.646,0,0,1,1.952,2.548,3.136,3.136,0,0,1-1.79,2.945,4.522,4.522,0,0,1-1.965.418" transform="translate(-845.689 -414.757)" fill="#fff"/>
        <path id="Path_255" data-name="Path 255" d="M1044.083,476.662c0-1.385-.009-2.771.007-4.156,0-.321-.07-.436-.413-.426-.879.025-1.759,0-2.638.014-.264,0-.34-.07-.348-.336-.033-1.057-.043-1.057.991-1.057,2.266,0,4.532.01,6.8-.01.39,0,.478.106.469.479-.023.918,0,.918-.931.918-.643,0-1.287.028-1.927-.01-.432-.025-.567.079-.562.543.026,2.7,0,5.406.023,8.109,0,.414-.085.547-.52.532-.948-.034-.949-.009-.949-.951Z" transform="translate(-921.83 -416.936)" fill="#fff"/>
        <path id="Path_256" data-name="Path 256" d="M1186.374,476.7c0,1.385-.01,2.771.008,4.156,0,.326-.078.425-.415.422-1.031-.009-1.031.007-1.031-1.018,0-2.568-.007-5.136.008-7.7,0-.345-.075-.469-.442-.457-.862.027-1.725,0-2.587.015-.306.007-.4-.074-.406-.394,0-1-.019-1,.959-1,2.266,0,4.532.007,6.8-.007.371,0,.536.055.522.484-.029.909,0,.91-.9.91-.71,0-1.421.017-2.131-.008-.316-.011-.4.082-.392.393.018,1.4.008,2.8.008,4.206" transform="translate(-1046.573 -416.956)" fill="#fff"/>
        <path id="Path_257" data-name="Path 257" d="M1384.769,476.674c0,1.368-.012,2.737.008,4.1.005.354-.05.5-.457.488-.988-.027-.989,0-.989-1.008,0-2.568-.009-5.136.01-7.7,0-.379-.089-.484-.471-.47-.861.031-1.725,0-2.587.014-.253,0-.35-.058-.362-.333-.048-1.059-.059-1.059,1-1.059,2.266,0,4.532.01,6.8-.009.382,0,.487.1.478.478-.022.918,0,.918-.941.918-.693,0-1.388.02-2.08-.008-.349-.014-.418.114-.414.432.016,1.385.007,2.77.007,4.156" transform="translate(-1222.312 -416.942)" fill="#fff"/>
        <path id="Path_258" data-name="Path 258" d="M1142.377,476.016c0,1.6-.012,3.2.009,4.807,0,.359-.1.442-.448.436-1.036-.016-1.036,0-1.036-1.013,0-3.019.008-6.038-.01-9.057,0-.407.116-.507.509-.5.975.024.976.005.976.972Z" transform="translate(-1010.597 -416.936)" fill="#fff"/>
        <path id="Path_259" data-name="Path 259" d="M793,475.988c0,1.619-.008,3.239.007,4.858,0,.307-.07.4-.388.4-1.078,0-1.077.019-1.077-1.073,0-2.986.008-5.971-.01-8.957,0-.408.083-.553.519-.539.948.031.949.007.949.959Z" transform="translate(-701.134 -416.923)" fill="#fff"/>
        <path id="Path_260" data-name="Path 260" d="M312.247,222.165a.118.118,0,0,1-.066.181c-.028-.079-.035-.149.066-.181" transform="translate(-276.513 -196.793)" fill="#fff"/>
        <path id="Path_261" data-name="Path 261" d="M352.89,235.495c-.031-.1-.038-.182.084-.22.022.092.019.175-.084.22" transform="translate(-312.571 -208.405)" fill="#fff"/>
        <path id="Path_262" data-name="Path 262" d="M303.33,246.082c.037.082.034.151-.065.185-.034-.081-.031-.149.065-.185" transform="translate(-268.614 -217.978)" fill="#fff"/>
        <path id="Path_263" data-name="Path 263" d="M311.8,446.39l.075-.013c0,.041,0,.081-.007.122-.075,0-.089-.046-.067-.109" transform="translate(-276.185 -395.398)" fill="#fff"/>
        <path id="Path_264" data-name="Path 264" d="M312.8,447.995c.106.006.1.072.076.146-.084-.018-.1-.07-.076-.146" transform="translate(-277.067 -396.832)" fill="#fff"/>
        <path id="Path_265" data-name="Path 265" d="M326.149,474.473c.079.028.108.075.054.15-.08-.028-.074-.087-.054-.15" transform="translate(-288.89 -420.286)" fill="#fff"/>
        <path id="Path_266" data-name="Path 266" d="M343.307,261.987c-.04-.065-.02-.11.046-.14a.1.1,0,0,1-.046.14" transform="translate(-304.082 -231.943)" fill="#fff"/>
      </g>
    </g>
  </g>
</svg>
