<svg id="Group_70" data-name="Group 70" xmlns="http://www.w3.org/2000/svg" xmlns:xlink="http://www.w3.org/1999/xlink" width="497.369" height="179.46" viewBox="0 0 497.369 179.46">
  <defs>
    <clipPath id="clip-path">
      <rect id="Rectangle_88" data-name="Rectangle 88" width="497.369" height="179.46" fill="none"/>
    </clipPath>
  </defs>
  <g id="Group_69" data-name="Group 69" clip-path="url(#clip-path)">
    <path id="Path_376" data-name="Path 376" d="M497.369,126.056h-1.482c-8.439,0-16.879-.019-25.318.025a2,2,0,0,1-2.05-1.219q-11.228-20.474-22.5-40.92a2.019,2.019,0,0,0-2.071-1.206c-6.627.044-13.255.057-19.882-.006-1.312-.012-1.723.306-1.718,1.681.055,13.243.033,26.485.033,39.728v1.84c-.518.029-.944.073-1.371.074-7.865,0-15.729-.021-23.594.028-1.154.008-1.488-.283-1.487-1.469q.048-60.253.026-120.509V2.8c.569-.035,1.036-.089,1.5-.09,18.2,0,36.408-.042,54.612.008,17.428.048,32.967,10.745,38.48,26.5,6.339,18.117.41,39.138-18.679,49.624-.266.147-.518.32-.907.561,8.763,15.477,17.506,30.92,26.409,46.646M422.377,42.61c0,4.808-.008,9.616,0,14.424,0,2.211-.31,2.092,2.03,2.093,7.153,0,14.3.015,21.458-.007,2.027-.006,4.06-.032,6.08-.188a15.948,15.948,0,0,0,14.369-18.847c-1.62-8.4-7.915-13.658-16.623-13.728-8.653-.07-17.308,0-25.961-.039-1.156-.005-1.386.428-1.377,1.471.045,4.94.02,9.881.02,14.821" fill="#fff"/>
    <path id="Path_377" data-name="Path 377" d="M388.913,126.055h-1.5c-8.394,0-16.788-.026-25.182.03a1.757,1.757,0,0,1-1.96-1.427c-3.156-8.794-6.381-17.564-9.543-26.357a1.667,1.667,0,0,0-1.859-1.351q-22.531.069-45.062.007a1.611,1.611,0,0,0-1.8,1.268c-3.178,8.839-6.411,17.658-9.583,26.5a1.674,1.674,0,0,1-1.868,1.36c-8.393-.053-16.788-.029-25.182-.029h-1.551c.842-2.185,1.6-4.182,2.38-6.169Q279.231,86.742,292.259,53.6q9.754-24.825,19.488-49.658a1.671,1.671,0,0,1,1.831-1.258q12.723.063,25.446,0a1.815,1.815,0,0,1,2.005,1.379q16.238,41.423,32.536,82.821,7.447,18.948,14.881,37.9c.128.326.242.656.467,1.272m-62.382-92.25-.335.011L311.361,73.943h30.008L326.531,33.805" fill="#fff"/>
    <path id="Path_378" data-name="Path 378" d="M119.044,104.035a62.121,62.121,0,0,1-13.808,12.8,63.848,63.848,0,0,1-29.877,11.337c-20.783,2.2-39.329-3.158-54.885-17.367A61.376,61.376,0,0,1,.418,71.477,63.653,63.653,0,0,1,34.561,7.867,68.511,68.511,0,0,1,71.67.186C90.155,1.5,105.442,9.291,117.337,23.571c.253.3.476.632.626.832L101.256,41.058A43.433,43.433,0,0,0,89.761,30.417a40.029,40.029,0,0,0-20.937-6.59c-16.124-.371-28.847,5.956-37.007,20C20.043,64.081,27.4,92.971,52.123,102.183c15.072,5.617,29.293,2.949,42.227-6.375,3.26-2.35,6.047-5.355,9.162-8.158l15.532,16.385" fill="#fff"/>
    <path id="Path_379" data-name="Path 379" d="M212.94,125.954H186.771V2.71h1.59q43.671,0,87.342-.025c1.281,0,1.745.25,1.729,1.652-.079,6.753-.035,13.506-.036,20.259,0,1.74,0,1.744-1.708,1.744H214.853c-1.911,0-1.913,0-1.913,1.965,0,9.71.023,19.42-.028,29.13-.006,1.308.308,1.728,1.685,1.723,15.6-.049,31.19-.031,46.785-.031,1.829,0,1.83,0,1.83,1.885,0,6.753-.03,13.506.028,20.258.011,1.252-.308,1.642-1.606,1.639q-23.459-.066-46.918-.028c-1.772,0-1.775,0-1.775,1.818q0,19.729,0,39.459Z" fill="#fff"/>
    <path id="Path_380" data-name="Path 380" d="M162.514,64.32v59.992c0,1.741,0,1.743-1.711,1.743-7.644,0-15.289-.025-22.932.026-1.222.008-1.675-.248-1.674-1.581q.051-60.125.007-120.248c0-1.188.309-1.579,1.55-1.57q11.664.084,23.33,0c1.21-.008,1.455.389,1.453,1.514q-.048,30.061-.023,60.124" fill="#fff"/>
    <rect id="Rectangle_87" data-name="Rectangle 87" width="100.991" height="26.127" transform="translate(396.021 153.333)" fill="#fff"/>
  </g>
</svg>
