<svg id="Group_74" data-name="Group 74" xmlns="http://www.w3.org/2000/svg" xmlns:xlink="http://www.w3.org/1999/xlink" width="560.466" height="63.499" viewBox="0 0 560.466 63.499">
  <defs>
    <clipPath id="clip-path">
      <rect id="Rectangle_90" data-name="Rectangle 90" width="560.466" height="63.499" transform="translate(0 0)" fill="none"/>
    </clipPath>
  </defs>
  <g id="Group_73" data-name="Group 73" clip-path="url(#clip-path)">
    <path id="Path_388" data-name="Path 388" d="M62.961,17.479c0,14.246-.043,28.187.036,42.127.015,2.724-1.265,3.368-3.68,3.358q-19.484-.084-38.968,0c-2.5.011-3.606-.837-3.59-3.471.077-13.122-.042-26.246.16-39.365.019-1.209,1.8-3.417,2.788-3.43,13.815-.182,27.634-.068,41.451.009.452,0,.9.374,1.8.773m-10.3,9.25c-7.891,0-15.495-.094-23.09.119a3.784,3.784,0,0,0-2.638,2.585c-.223,6.963-.2,13.938-.01,20.9a3.4,3.4,0,0,0,2.347,2.343c7.757.182,15.519.107,23.391.107Z" fill="#fff"/>
    <path id="Path_389" data-name="Path 389" d="M150.909,28.109H132.291V17.485h34.216c.576,5.548,1.321,10.721-3.516,15.444-5.441,5.312-10.055,11.468-15.668,18h20.12V61.652H131.467c-.972-5.59-1.161-10.7,3.547-15.377,5.384-5.35,10.053-11.416,15.895-18.166" fill="#fff"/>
    <path id="Path_390" data-name="Path 390" d="M118.656,47.013l6.535,7.141c-8.87,11.155-25.956,12.24-36.214,2.641C78.142,46.655,78.4,31.8,89.588,21.859,99.764,12.813,116.676,14.2,124.879,25l-6.746,7.046c-9.721-6.516-16.858-6.718-21.914-.766a13.468,13.468,0,0,0,.609,17.361c5.152,5.336,13.169,4.807,21.828-1.63" fill="#fff"/>
    <path id="Path_391" data-name="Path 391" d="M481.02,16.943c1.655,1.2,3.694,2.1,4.9,3.641,8.092,10.333,16.008,20.8,25.157,31.112v-4.45c0-8.642.114-17.286-.052-25.925-.069-3.569,1.371-4.3,4.654-3.407V63.5c-2.76-2.006-4.955-2.989-6.269-4.66-6.987-8.885-13.745-17.949-20.6-26.937-1.063-1.393-2.223-2.714-4.278-5.211V61.763h-4.568V18.282l1.053-1.339" fill="#fff"/>
    <path id="Path_392" data-name="Path 392" d="M533.365,21.985V36.56h19.814c1.2,3.168.787,4.631-2.46,4.56-5.636-.122-11.276-.034-17.272-.034V57.627c7.511,0,14.792-.116,22.063.1,1.374.041,2.707,1.408,4.059,2.163-1.358.716-2.7,2.023-4.075,2.053-8.8.188-17.6.1-26.737.1v-44.5c9.486,0,18.745-.1,27.994.145.953.025,1.853,2.066,3.715,4.294Z" fill="#fff"/>
    <path id="Path_393" data-name="Path 393" d="M425.1,28.564c-4.9-5.281-10.815-8.21-18.216-6.858a17.939,17.939,0,0,0-14.613,15.1,18.771,18.771,0,0,0,8.482,18.873c6.268,3.833,15.658,3.644,20.96-1.512,2.135-2.077,2.255-6.214,3.406-9.765-4.527-.651-7.712-1.043-10.84-1.7-.222-.047-.029-2.055-.029-3.335h14.008c2.727,12.278-.284,18.572-10.419,21.96-11.438,3.825-23.854-1.364-28.574-11.94a23.2,23.2,0,0,1,7.48-28.072,22.938,22.938,0,0,1,28.965,1.8c2.312,2.1,3.173,3.851-.61,5.452" fill="#fff"/>
    <path id="Path_394" data-name="Path 394" d="M445.005,41.145V57.629c7.481,0,14.89.075,22.295-.037,3.032-.045,4.475.8,3.194,4.225H440.3V17.554c9.284,0,18.709-.087,28.126.156.8.02,1.549,2.242,2.929,4.384H445.091V36.679c5.605,0,11.045-.064,16.482.023,3.466.056,3.465.157,2.917,4.443Z" fill="#fff"/>
    <path id="Path_395" data-name="Path 395" d="M238.517,22.133V36.409h20.094v4.718h-19.92v16.5c7.423,0,14.841.061,22.258-.03,2.86-.035,4.7.5,3.384,4.178H233.861V17.518h21.263c1.833,0,3.757-.341,5.471.11,1.449.382,2.655,1.683,3.968,2.578l-.8,1.927Z" fill="#fff"/>
    <path id="Path_396" data-name="Path 396" d="M.089,39.451c0-6.3.178-12.608-.062-18.9-.155-4.044,2.168-4.121,5.085-4.06,2.746.057,5.288-.312,5.231,3.886q-.261,19.147.01,38.3c.066,4.25-2.228,4.23-5.357,4.35C1.437,63.164-.16,62.25.013,58.35c.279-6.288.075-12.6.076-18.9" fill="#fff"/>
    <path id="Path_397" data-name="Path 397" d="M225.05,53.767c-10.157,10.948-24.753,11.747-34.3,2.193-9.351-9.358-8.86-24.094,1.11-33.281,9.411-8.672,23.819-7.345,32.808,3.147-1.254,2.865-2.6,2.951-5.025.777-7.966-7.142-18.432-6.959-25.528.183a18.779,18.779,0,0,0-.387,25.733c6.719,7.206,17.69,7.663,25.71,1.07,3.052-2.509,3.052-2.509,5.612.178" fill="#fff"/>
    <path id="Path_398" data-name="Path 398" d="M16.79.539C18.338.38,19.743.114,21.149.11,33.6.077,46.055.24,58.5,0c3.913-.075,4.774,1.372,4.686,4.915-.085,3.43-.348,5.473-4.784,5.352-11.779-.32-23.58-.355-35.356.009-4.956.153-7.236-1.05-6.283-6.242a22.472,22.472,0,0,0,.025-3.5" fill="#fff"/>
    <path id="Path_399" data-name="Path 399" d="M300.091,57.45c1.207,3.19.861,4.665-2.406,4.622-7.957-.106-15.917-.034-24.663-.034V53.986c0-10.773.069-21.546-.043-32.317-.031-3.094.569-4.956,4.7-3.694V57.45Z" fill="#fff"/>
    <path id="Path_400" data-name="Path 400" d="M308.225,17.936c3.8-1.236,4.4.673,4.371,3.739-.094,9.97-.034,19.941-.034,29.912v6.04c6.629,0,12.737-.138,18.829.108,1.331.054,2.607,1.48,3.908,2.274-1.226.677-2.438,1.911-3.679,1.941-7.65.181-15.307.091-23.395.091Z" fill="#fff"/>
    <path id="Path_401" data-name="Path 401" d="M362.935,40.2l10.76,8.671-3.419,3.794-8.543-10.095c-4.3,3.6-7.7,6.519-11.253,9.256-.248.191-1.557-.988-3.381-2.2l11.412-8.972-10.46-8.984c2.975-3.871,3.025-3.923,6.727-.34,1.886,1.824,3.554,3.872,5.546,6.068l10.512-9.918L374,30.634,362.935,40.2" fill="#fff"/>
  </g>
</svg>
