<svg id="Group_4" data-name="Group 4" xmlns="http://www.w3.org/2000/svg" xmlns:xlink="http://www.w3.org/1999/xlink" width="179.709" height="21.629" viewBox="0 0 179.709 21.629">
  <defs>
    <clipPath id="clip-path">
      <rect id="Rectangle_18" data-name="Rectangle 18" width="179.709" height="21.629" transform="translate(0 0)" fill="none"/>
    </clipPath>
  </defs>
  <g id="Group_3" data-name="Group 3" transform="translate(0 0)" clip-path="url(#clip-path)">
    <path id="Path_19" data-name="Path 19" d="M719.089,21.172c-1.162.164-1.682-.209-1.672-1.474q.078-9.081,0-18.162c-.012-1.274.549-1.611,1.674-1.522Z" transform="translate(-539.38 0)" fill="#fff"/>
    <path id="Path_20" data-name="Path 20" d="M174,9.836c-1.9.15-3.672.585-3.42-2.116.089-.958-.691-1.422-1.751-1.386a45.746,45.746,0,0,1-4.971-.013c-1.768-.133-2.248.73-2.32,2.237-.162,3.384-.075,6.762.063,10.143.062,1.514.656,2.354,2.392,2.193,1.286-.119,2.593-.02,3.89-.024,2.282-.008,3.89-2.437,2.742-4.332-.611-1.008-1.846-.279-2.785-.43-.845-.136-1.953.343-1.919-1.228.024-1.116.048-1.944,1.57-1.768a26.483,26.483,0,0,0,3.025.022c3.815,0,3.823,0,3.76,3.815a22.587,22.587,0,0,1-.173,2.74c-.421,3.02-1.755,4.14-4.866,4.148-2.162,0-4.325.009-6.487,0-2.769-.014-4.133-1.049-4.539-3.749a41.7,41.7,0,0,1,.106-12.839c.445-2.779,1.689-3.671,4.584-3.705,2.234-.026,4.47-.039,6.7.007,2.971.062,4.129,1.282,4.073,4.19a4.176,4.176,0,0,0,.326,2.1" transform="translate(-118.615 -2.646)" fill="#fff"/>
    <path id="Path_21" data-name="Path 21" d="M298.218,13.724c0-2.886.036-5.772-.018-8.657-.021-1.1.2-1.634,1.517-1.6,3.741.085,7.485.074,11.227,0,1.2-.023,1.388.463,1.439,1.485.06,1.213-.495,1.388-1.534,1.368-2.59-.05-5.185.053-7.772-.044-1.365-.051-1.672.429-1.656,1.69.047,3.862-.007,3.863,4.023,3.863,1.08,0,2.163.054,3.238-.015,1.154-.074,1.818.024,1.82,1.506,0,1.562-.83,1.473-1.9,1.456-1.943-.031-3.887.029-5.829-.024-.945-.026-1.183.313-1.237,1.216-.292,4.859-.321,4.858,4.619,4.858,1.584,0,3.171.067,4.749-.022,1.207-.068,1.6.3,1.615,1.522.01,1.246-.439,1.51-1.61,1.49-3.814-.063-7.63-.07-11.443,0-1.178.023-1.451-.371-1.427-1.441.064-2.885.022-5.771.022-8.657h.154" transform="translate(-224.079 -2.603)" fill="#fff"/>
    <path id="Path_22" data-name="Path 22" d="M374.273,22.138c-1.567,2.277-2.988,4.483-4.571,6.571-.619.817-.723,1.165.008,2.052,1.7,2.066,3.139,4.34,4.7,6.56-3.3.715-3.478.648-5.277-1.919-.763-1.088-1.523-2.178-2.241-3.206-2.541,1.85-2.508,6.648-7.511,5.254,1.438-2.1,2.788-4.207,4.292-6.205.88-1.169,1.045-2.044.027-3.275-1.479-1.788-2.71-3.771-4.065-5.7,3.143-.847,4.007-.5,6.08,3.353.995,1.849,1.554,1.907,2.541.152.309-.551.831-1,1.094-1.561.941-2.021,2.443-2.806,4.919-2.081" transform="translate(-270.199 -16.445)" fill="#fff"/>
    <path id="Path_23" data-name="Path 23" d="M235.332,15.206c0,2.4-.112,4.8.039,7.191.1,1.635-.877,1.376-1.884,1.432-1.087.061-1.688-.051-1.657-1.414.109-4.793.013-9.591.123-14.384.033-1.41-.391-1.87-1.795-1.731-1.071.106-2.164-.03-3.242.035-1.041.063-1.563-.14-1.555-1.352.008-1.232.462-1.513,1.638-1.5q6.6.089,13.2,0c1.18-.017,1.617.264,1.623,1.5.006,1.2-.489,1.353-1.534,1.369-1.629.024-3.849-.748-4.724.351-.81,1.018-.246,3.089-.267,4.7-.017,1.269,0,2.539,0,3.808Z" transform="translate(-169.435 -2.62)" fill="#fff"/>
    <path id="Path_24" data-name="Path 24" d="M113.78,4.01c2.718.687,3.681,1.73,3.732,4.3.078,3.94.154,7.888-.017,11.823-.161,3.692-2.917,4.369-5.9,4.37-1.187,0-.823-.642-.409-1.224a9.876,9.876,0,0,0,2.193-5.179,9.821,9.821,0,0,0-1.718-6.4,1.65,1.65,0,0,1,.248-2.546A5.782,5.782,0,0,0,113.78,4.01" transform="translate(-83.299 -3.015)" fill="#fff"/>
    <path id="Path_25" data-name="Path 25" d="M439.7,12.334c0-2.89-.006-5.78,0-8.67,0-.757-.162-1.685,1.068-1.652,3.306.088,6.62-.286,9.919.231a3.3,3.3,0,0,1,2.937,2.919,13.443,13.443,0,0,1,.033,5.65c-.506,2.351-1.458,3.248-3.972,3.327-2.16.068-4.327.089-6.484-.008-1.446-.065-1.894.467-1.817,1.83.1,1.757.035,3.523.015,5.285-.007.607.133,1.379-.873,1.364s-.816-.808-.819-1.4c-.019-2.96-.009-5.92-.009-8.881m6.42.177c1.223,0,2.446.022,3.668-.007a2.065,2.065,0,0,0,2.02-1.609c1.591-4.949-.12-7.278-5.339-7.278h-.648c-4.411,0-4.411,0-4.411,4.289,0,4.664,0,4.664,4.71,4.6" transform="translate(-330.579 -1.476)" fill="#fff"/>
    <path id="Path_26" data-name="Path 26" d="M660,30.819c0,1.9.014,3.8-.007,5.7-.006.521.178,1.2-.7,1.282-.6.059-.959-.145-1-.789-.061-.949-.565-.569-.968-.263-2.1,1.592-4.544,1.135-6.873,1.016-2.125-.109-2.81-1.692-2.969-3.534-.228-2.635.566-4.285,2.4-4.884a14.546,14.546,0,0,1,6.634-.2c1.663.238,1.873-.335,1.781-1.624-.05-.7.009-1.409-.025-2.111-.017-.343-.013-.8-.223-1-1.622-1.567-3.664-.831-5.538-.806-1.235.016-2.473.39-2.509,2.022-.015.684-.167,1.326-1.1,1.161-.848-.151-.62-.866-.58-1.366a3.1,3.1,0,0,1,3.1-3.179,55.158,55.158,0,0,1,5.829-.008A2.622,2.622,0,0,1,660,25.115c.025,1.9.006,3.8.007,5.7m-5.448-.546a15.461,15.461,0,0,0-3.718.267c-1.79.522-1.617,1.892-1.659,3.24-.043,1.392.495,2.414,1.935,2.61a9.911,9.911,0,0,0,5.108-.355c1.986-.794,2.511-1.942,2.056-4.68-.327-1.97-1.945-.743-2.935-1.074a3.037,3.037,0,0,0-.786-.009" transform="translate(-486.775 -16.657)" fill="#fff"/>
    <path id="Path_27" data-name="Path 27" d="M516.472,30.258c-.108,1.608.131,3.229-.337,4.824a3.492,3.492,0,0,1-3.71,2.861c-1.727-.025-3.454-.029-5.181,0a3.4,3.4,0,0,1-3.7-3.123,27.017,27.017,0,0,1,0-9.43,3.466,3.466,0,0,1,3.747-3.086c1.655-.008,3.311-.03,4.965,0,2.34.047,3.291.877,3.9,3.125a23.873,23.873,0,0,1,.317,4.827m-1.733-.082H514.7c0-1.128.063-2.26-.013-3.383-.164-2.432-.688-2.883-3.214-2.906-1.3-.012-2.6.029-3.893-.007a2.18,2.18,0,0,0-2.425,2.14,26.573,26.573,0,0,0,.017,8.408,2.244,2.244,0,0,0,1.918,1.978c5.513,1.467,7.645-.075,7.646-5.6v-.635" transform="translate(-378.272 -16.757)" fill="#fff"/>
    <path id="Path_28" data-name="Path 28" d="M605.539,18.947c0-1.2.008-2.393-.005-3.589-.017-1.46.545-3.294-2.118-3.036-.458.044-.741-.422-.689-.9a.638.638,0,0,1,.766-.572c2.082.323,2.172-.908,2.064-2.4-.041-.568-.245-1.4.773-1.422,1.166-.026.981.911.89,1.528-.286,1.932.57,2.554,2.418,2.281a8.637,8.637,0,0,1,1.509,0c.389.012.731.164.779.571a.8.8,0,0,1-.68.925,5.057,5.057,0,0,1-.64.071c-3.359.358-3.359.358-3.359,3.665q0,3.062,0,6.123c0,2.821.048,2.834,2.84,2.952.608.026,1.7-.478,1.7.618,0,.723-.981.656-1.611.69-.789.043-1.582.054-2.372.03a2.052,2.052,0,0,1-2.257-2.259c-.011-1.759,0-3.519-.005-5.279" transform="translate(-453.148 -5.283)" fill="#fff"/>
    <path id="Path_29" data-name="Path 29" d="M568.937,23.987c1.508-1.051,2.727-2.383,4.69-2.024.489.09,1.042,0,1.1.7.057.749-.363.979-1.049.979a9.907,9.907,0,0,0-1.719.081,3.7,3.7,0,0,0-3.3,3.9c0,2.879.005,5.759-.008,8.638,0,.608.128,1.361-.881,1.344-1.027-.017-.815-.8-.818-1.383-.017-4.073-.034-8.147.015-12.219.008-.668-.507-1.731.663-1.924,1.482-.244.759,1.179,1.308,1.9" transform="translate(-426.187 -16.468)" fill="#fff"/>
    <path id="Path_30" data-name="Path 30" d="M66.907,53.733c3.228-4.321,7.477-2.544,11.228-2.857,1.012-.084.967.916,1.056,1.544a1.03,1.03,0,0,1-1.041,1.3c-3.627.023-7.253.01-11.243.01" transform="translate(-50.303 -38.171)" fill="#fff"/>
    <path id="Path_31" data-name="Path 31" d="M70.5,67.932c-.91,1.735-1.772,2.755-3.73,2.622-2.581-.176-5.182-.066-7.774-.1-.613-.009-1.5.188-1.591-.66-.1-.931.671-1.21,1.529-1.4,3.754-.824,7.528-.244,11.566-.46" transform="translate(-43.154 -51.074)" fill="#fff"/>
    <path id="Path_32" data-name="Path 32" d="M86.726,3.276c2.356,0,4.439-.027,6.519.02.479.011,1.331-.372,1.354.5a1.69,1.69,0,0,1-1.046,1.493c-1.809.829-5.4-.135-6.827-2.018" transform="translate(-65.204 -2.422)" fill="#fff"/>
    <path id="Path_33" data-name="Path 33" d="M96.175,38.875a15.651,15.651,0,0,1-4.672-.136c2.285-2.71,2.678-2.712,4.672.136" transform="translate(-68.795 -27.609)" fill="#fff"/>
    <path id="Path_34" data-name="Path 34" d="M69.392,84.221c1.971-.718,3.986-.42,6.007-.193-1.952.781-3.986.437-6.007.193" transform="translate(-52.172 -62.981)" fill="#fff"/>
    <path id="Path_35" data-name="Path 35" d="M22.853,8.945C20.788,7.251,19.669,4.6,17.039,3.493L8.261,3.466c-1.208,0-2.414-.017-3.621-.01C1.26,3.475-.051,4.864.155,8.191l.12.917q.012.482.024.964a.869.869,0,0,0-.136.9q-.017,1.32-.034,2.641a2.232,2.232,0,0,0,.154,1.563c-.039.033-.116.082-.11.1a2.141,2.141,0,0,0,.145.236A18.6,18.6,0,0,0,.2,21.676a2.156,2.156,0,0,0,1.173,1.277C3.423,24.8,5.938,23.958,8.282,24.1c4.045.322,4.046.322,3.927-3.556-.006-.206-.029-.412-.044-.619s-.036-.4-.054-.6a2.576,2.576,0,0,0,.753-1.549l3.321-3.267c2.057-1.41,4.12-2.811,6.165-4.239.448-.313,1.155-.786.5-1.321m-10.374.427c.539,0,1.08-.019,1.62-.026-.54.007-1.081.026-1.62.026-.7,0-1.405-.035-2.105-.019.7-.015,1.4.019,2.105.019m2.832-.008c-.269-.014-.538-.019-.807-.02.27,0,.539.006.807.02" transform="translate(0 -2.597)" fill="#fff"/>
  </g>
</svg>
