<svg xmlns="http://www.w3.org/2000/svg" xmlns:xlink="http://www.w3.org/1999/xlink" width="516.234" height="95.102" viewBox="0 0 516.234 95.102">
  <defs>
    <clipPath id="clip-path">
      <rect id="Rectangle_89" data-name="Rectangle 89" width="516.234" height="95.102" transform="translate(0 0)" fill="none"/>
    </clipPath>
  </defs>
  <g id="Group_72" data-name="Group 72" transform="translate(0 0)">
    <g id="Group_71" data-name="Group 71" clip-path="url(#clip-path)">
      <path id="Path_381" data-name="Path 381" d="M123,0c-.293,4.319.148,8.883-1.2,12.851-.642,1.9-4.566,3.336-7.2,3.763-3.333.54-4.517,1.688-4.5,5.009a127.175,127.175,0,0,0,8.579,45.867c2.365,6.083,6.989,8.719,13.758,10.651-5.717-10.411.474-15.927,7.465-21.032.888-.649,2.537-1.177,3.413-.8,9.789,4.209,12.974,12.19,8.5,22.6,6.714-2.11,12.573-3.888,15.336-10.714a115.674,115.674,0,0,0,8.6-46.793c-.038-1.5-1.431-3.932-2.679-4.3C163.149,14.226,160.811,10.518,162.917,0H170.9c5.958,2.354,7.9,6.541,7.08,12.882a141.8,141.8,0,0,0-.674,21.173q.975-13.779,1.949-27.557l.749.014q-.865,22.843-1.732,45.685l1.3.128c.419-5.653,1.038-11.3,1.195-16.96.136-4.905-.79-9.793,3.494-13.854,1.06-1,.284-4,.2-6.082-.08-1.95-.747-3.947-.476-5.827.558-3.871,3.923-5.573,7.358-3.736,6.442,3.445,8.2,9.515,8.782,16.184.58,6.636-1.332,12.194-7.443,15.47-1.6.858-4.585,1.038-5.891.1-1.575-1.129-2.547-3.712-2.84-5.795-.3-2.118.546-4.4.89-6.6l-1.628-.329c-.344,2.31-1.284,4.716-.929,6.915,1.527,9.459-.1,18.348-3.935,27a25.505,25.505,0,0,0-1.244,4.767c-2.211,9.838-6.828,17.5-16.888,21.655-5.358,2.215-9.789,6.553-14.955,9.361-1.6.87-4.647.553-6.336-.415a126.339,126.339,0,0,1-16.866-11c-3.988-3.231-8.445-7.121-10.141-11.657a209.711,209.711,0,0,1-8.4-30.817c-1.042-5.015-.18-10.42-.18-15.648l1.475-.123q.667,13.272,1.334,26.542l1.7-.079L106,4.338l.633-.033q.938,12.53,1.877,25.057c0-5.087.467-10.223-.1-15.245-1.041-9.289-.75-10.281,7.6-14.117Zm46.892,67.794c7.971-6.521,5.918-15.669,6.914-24.361-2.362,8.321-4.623,16.289-6.914,24.361m-54.143-.836c-2.349-8.984-4.444-16.995-6.54-25.006,2.038,8.016-1.886,17.45,6.54,25.006m7.447,14.762q.565-.565,1.133-1.129l-10.97-13.4a18.42,18.42,0,0,0,9.837,14.528m38.3-.639.9.895c6.029-2.859,9.179-7.9,11.325-13.695l-1.123-.866-11.1,13.666m-.253-3.057L148.3,82.537c6.928,2.788,9.288,1.994,12.93-4.513m-24.489,4.469-11.959-4.651c3.7,6.623,5.234,7.245,11.959,4.651m17.232,5.229q-.056-.78-.112-1.559c-2.218-.179-4.593-.884-6.584-.3-.906.266-1.054,3.078-1.546,4.735l1.288.92,6.954-3.794m-21.744-1.573q-.142.609-.284,1.219c1.931,1.17,3.863,2.339,7.147,4.326-.656-3.026-.645-5.514-1.355-5.736-1.651-.517-3.65.058-5.508.191" fill="#fff"/>
      <path id="Path_382" data-name="Path 382" d="M516.235,30.684c-4.711,13.444-11.677,18.161-28.009,18.778-4.65.176-9.32.225-13.965.011-3.986-.184-5.239,1.541-5.168,5.282.156,8.243,0,16.491.054,24.737.019,3.1-.283,5.5-4.436,5.461-3.922-.035-4.594-2-4.581-5.318q.129-33.644-.015-67.287c-.019-3.677.961-5.528,5-5.392,8.967.3,17.946.274,26.913.576,12.329.414,20.805,6.031,24.2,18.2ZM482.97,14.492c-.014.149-.029.3-.043.448-3.326,0-6.705-.343-9.951.16-1.4.218-3.547,2.129-3.614,3.363-.353,6.575-.267,13.184-.038,19.771.039,1.1,1.56,3.113,2.334,3.084,8.9-.335,17.927-.222,26.624-1.817,5.762-1.058,8.93-7.05,8.6-11.968-.368-5.46-3.969-10.009-10.123-11.462-4.468-1.055-9.182-1.089-13.787-1.579" fill="#fff"/>
      <path id="Path_383" data-name="Path 383" d="M351.7,26.985c-9.1,20.872-17.758,40.75-26.421,60.628l-1.5.253L297.818,28.1l-1.06.006c-1.52,6.286-3.077,12.564-4.551,18.861-2.518,10.754-4.979,21.521-7.475,32.279-1.377,5.939-2.427,6.511-9.481,4.572q9.438-39.387,18.891-78.834l1.353-.1,28.974,65.091c10.1-22.606,19.556-43.772,29.012-64.938l1.392-.109,18.868,78.589c-6.42,2.617-8,1.82-9.411-4.244q-5.49-23.6-11.028-47.192c-.321-1.364-.837-2.682-1.6-5.094" fill="#fff"/>
      <path id="Path_384" data-name="Path 384" d="M80.533,25.462l-6.176,4.526c-1.922-2.043-3.555-3.871-5.287-5.6C53.215,8.545,26.34,10.85,13.76,29.211,7.367,38.544,6.312,48.576,11.3,58.771c5.7,11.657,15.61,17.712,28.376,19.125a35.54,35.54,0,0,0,24.959-6.71,23.419,23.419,0,0,0,6.629-6.563c1.713-2.848,2.3-6.364,3.372-9.588a74.126,74.126,0,0,0-8.861-1.464c-5.146-.25-10.311-.116-15.466-.09-2.625.013-4-1.047-4.046-3.8-.044-2.679,1.1-4.007,3.812-4.006,9.813,0,19.628.021,29.44-.018,3.032-.013,3.916,1.481,3.964,4.327.187,10.986-3.787,19.929-12.706,26.595a45.98,45.98,0,0,1-58.308-2.811,37.273,37.273,0,0,1,1.67-57.032,45.66,45.66,0,0,1,63.682,5.061c.861.971,1.555,2.088,2.72,3.668" fill="#fff"/>
      <path id="Path_385" data-name="Path 385" d="M207.656,45.857c0-11.033.15-22.069-.081-33.1-.087-4.183,1.087-6.1,5.578-5.814,9.426.6,19.034-.005,28.269,1.586,21.355,3.677,34.763,20.553,33.492,40.675-1.119,17.727-18.006,33.465-38.022,35.017-8.1.627-16.253.444-24.381.7-3.553.111-4.973-1.315-4.916-4.981.176-11.359.064-22.723.061-34.084m8.967,32.154c9.732-1.127,18.815-1.143,27.293-3.4,13.452-3.578,22.642-16.35,22.49-28.854-.155-12.841-9.2-24.978-22.823-28.563-7.242-1.9-15.079-1.549-22.638-2.313-3.628-.366-4.438,1.263-4.4,4.6.164,14.331.075,28.665.078,43,0,4.589,0,9.178,0,15.526" fill="#fff"/>
      <path id="Path_386" data-name="Path 386" d="M415.081,5.554l37.574,78.132c-6.559,2.163-7.968,1.642-10.32-3.572-2.44-5.412-4.568-10.98-7.341-16.215a7.261,7.261,0,0,0-5.146-3.348c-9.457-.331-18.941-.36-28.395.018-1.9.076-4.471,1.962-5.418,3.713-2.739,5.063-4.806,10.483-7.141,15.761-2.374,5.367-3.611,5.863-10.271,3.6Q396.187,44.535,413.7,5.549l1.386.005m-.58,16.5c-4.712,10.733-8.8,20.049-13.214,30.1h28.476c-5.067-9.993-9.829-19.381-15.262-30.1" fill="#fff"/>
      <path id="Path_387" data-name="Path 387" d="M85.818,23.045C86.534,16.6,87.7,10.28,93.845,6.47c4.5-2.794,8.282-.738,8.379,4.539.129,7.122.212,14.261-.177,21.366-.108,1.959-1.531,4.7-3.142,5.483-1.583.771-4.5.07-6.256-.959-5.173-3.038-7.167-7.929-6.831-13.854" fill="#fff"/>
    </g>
  </g>
</svg>
