<?xml version="1.0" encoding="utf-8"?>
<!-- Generator: Adobe Illustrator 28.0.0, SVG Export Plug-In . SVG Version: 6.00 Build 0)  -->
<svg version="1.1" id="Layer_1" xmlns="http://www.w3.org/2000/svg" xmlns:xlink="http://www.w3.org/1999/xlink" x="0px" y="0px"
	 viewBox="0 0 110 47" style="enable-background:new 0 0 110 47;" xml:space="preserve">
<style type="text/css">
	.st0{clip-path:url(#SVGID_00000020388710943422351670000007010047763227864749_);}
	.st1{fill-rule:evenodd;clip-rule:evenodd;fill:#FFFFFF;}
	.st2{fill:none;stroke:#FFFFFE;stroke-width:2;}
</style>
<g>
	<defs>
		<rect id="SVGID_1_" width="110" height="47"/>
	</defs>
	<clipPath id="SVGID_00000159455024888643749610000017930273265863277966_">
		<use xlink:href="#SVGID_1_"  style="overflow:visible;"/>
	</clipPath>
	
		<g id="b" transform="translate(0.03 -0.058)" style="clip-path:url(#SVGID_00000159455024888643749610000017930273265863277966_);">
		<g id="Group_2" transform="translate(2.781 3.633)">
			<g id="Group_1" transform="translate(29.033 0.134)">
				<path id="Path_16" class="st1" d="M3,0c0.4,0,0.6,0.5,0.6,1.6v17.6l6-17.7c0.3-1,0.6-1.5,0.9-1.5h2.6c0.2,0,0.4,0.2,0.4,0.5
					c0,0.3-0.1,0.6-0.2,1L7.2,18.9c-0.1,0.5-0.1,0.7-0.1,0.8c0,0.2,0,0.4,0.1,0.6l6.5,17.2c0.2,0.4,0.2,0.7,0.3,1.1
					c0,0.3-0.1,0.5-0.3,0.5h-2.5c-0.2,0-0.4-0.1-0.5-0.3c-0.2-0.4-0.4-0.7-0.5-1.2L3.5,20.3v17.3c0,1-0.2,1.5-0.6,1.5H0.5
					c-0.4,0-0.5-0.5-0.5-1.6V1.6C0,0.5,0.2,0,0.5,0H3z M23.3,0c0.5,0,1,0,1.4,0c0.4,0,0.9,0.1,1.3,0.2c0.4,0.1,0.9,0.2,1.3,0.4
					c0.4,0.2,0.8,0.4,1.1,0.7c0.4,0.3,0.8,0.7,1,1.1c0.3,0.5,0.6,1,0.8,1.6c0.3,0.7,0.5,1.4,0.7,2.2c0.2,0.9,0.3,1.9,0.4,2.8
					c0.1,1.1,0.2,2.3,0.2,3.5c0,1.4-0.1,2.8-0.2,4.2C31.2,17.9,31,19,30.7,20c-0.2,0.8-0.5,1.5-0.9,2.2c-0.3,0.5-0.7,1-1.2,1.5
					c-0.4,0.4-0.9,0.7-1.4,0.8c-0.5,0.2-1,0.3-1.5,0.4C25.1,25,24.6,25,24,25h-3.4c-0.1,0-0.2,0.2-0.2,0.5v12.3
					c0,0.9-0.2,1.3-0.6,1.3h-2.5c-0.4,0-0.5-0.4-0.5-1.3V1.3c0-0.3,0-0.7,0.1-1C17.1,0.1,17.3,0,17.4,0L23.3,0z M39.5,0
					c0.5,0,0.8,0.5,0.9,1.4l4.2,27.5c0,0.1,0.1,0.1,0.1,0.1s0.1,0,0.1-0.1L49,1.5c0.2-1,0.5-1.5,0.9-1.5h2.8c0.3,0,0.5,0.5,0.5,1.6
					l1,35.9v0.2c0,0.9-0.2,1.4-0.5,1.4h-1.8c-0.4,0-0.5-0.5-0.6-1.6L50.6,7.7c0-0.1-0.1-0.1-0.1-0.1l-4.4,30c-0.1,1-0.4,1.4-0.8,1.4
					h0l-0.6,0l-0.6,0c-0.4,0-0.6-0.5-0.8-1.5L39,7.9c0-0.1,0-0.1-0.1,0c0,0,0,0.1,0,0.1l-0.7,29.5c0,1.1-0.2,1.6-0.5,1.6h-1.9
					c-0.3,0-0.5-0.5-0.5-1.4v-0.2l1-35.9c0-1.1,0.2-1.6,0.5-1.6H39.5z M65.5,0c0.5,0,1,0,1.4,0c0.4,0,0.9,0.1,1.3,0.2
					c0.4,0.1,0.9,0.2,1.3,0.4c0.4,0.2,0.8,0.4,1.1,0.7c0.4,0.3,0.8,0.7,1,1.1c0.3,0.5,0.6,1,0.8,1.6c0.3,0.7,0.5,1.4,0.7,2.2
					c0.2,0.9,0.3,1.9,0.4,2.8c0.1,1.1,0.2,2.3,0.2,3.5c0,1.4-0.1,2.8-0.2,4.2c-0.1,1.1-0.3,2.1-0.6,3.2c-0.2,0.8-0.5,1.5-0.9,2.2
					c-0.3,0.5-0.7,1-1.2,1.5c-0.4,0.4-0.9,0.7-1.4,0.8c-0.5,0.2-1,0.3-1.5,0.4C67.3,25,66.7,25,66.2,25h-3.4c-0.1,0-0.2,0.2-0.2,0.5
					v12.3c0,0.9-0.2,1.3-0.6,1.3h-2.5c-0.4,0-0.5-0.4-0.5-1.3V1.3c0-0.3,0-0.7,0.1-1C59.3,0.1,59.4,0,59.6,0L65.5,0z M23.2,3.5h-2.5
					c-0.1,0-0.2,0.2-0.2,0.5v17.1c0,0.3,0.1,0.4,0.2,0.4h3c0.6,0,1.1,0,1.7-0.2c0.4-0.1,0.9-0.4,1.2-0.7c0.4-0.4,0.7-0.9,0.8-1.5
					c0.2-0.8,0.4-1.7,0.5-2.6c0.1-1.3,0.2-2.6,0.2-3.9c0-1.4-0.1-2.9-0.3-4.3c-0.1-0.9-0.3-1.8-0.6-2.7c-0.2-0.6-0.6-1.1-1.1-1.4
					c-0.4-0.3-0.8-0.5-1.3-0.6C24.2,3.5,23.7,3.5,23.2,3.5z M65.3,3.5h-2.5c-0.1,0-0.2,0.2-0.2,0.5v17.1c0,0.3,0.1,0.4,0.2,0.4h3
					c0.6,0,1.1,0,1.7-0.2c0.4-0.1,0.9-0.4,1.2-0.7c0.4-0.4,0.7-0.9,0.8-1.5c0.2-0.8,0.4-1.7,0.5-2.6c0.1-1.3,0.2-2.6,0.2-3.9
					c0-1.4-0.1-2.9-0.3-4.3c-0.1-0.9-0.3-1.8-0.6-2.7c-0.2-0.6-0.6-1.1-1.1-1.4c-0.4-0.3-0.8-0.5-1.3-0.6
					C66.4,3.5,65.9,3.5,65.3,3.5L65.3,3.5z"/>
			</g>
			<path id="Path_17" class="st2" d="M0,21.4C0,17,1.1,9.2,5.5,4.3c1.8-2,7.2-6.1,12.5-3.4c8.5,4.3,6.1,11.7,2.5,15.6
				c-2.1,2.3-3.4,5.2-1.2,8.4s5.2,9.1-1.2,12.7C12.9,40.5,7.8,38.3,6,36.3C2.3,32.2,0.1,26.9,0,21.4z"/>
			<path id="Path_18" class="st2" d="M18.2,21.8c-1.3-0.2-4.5-0.4-9.1-1.2C6,20,3,19.2,0,18.3 M19,24.5c-1,0.8-2.3,1.4-3.5,1.8
				c-6.1,2.2-12.1,1.3-14.8,0 M2.1,9.9c3.2,0,6.4,0.8,9.4,2.2c4.3,2.1,6.5,4.3,7.5,6.4 M7.8,2.4C11,2.9,14,4.3,16.5,6.5
				c3.3,3.1,5,5.5,5.6,8 M21.2,28.6C20.3,30,19,31.2,17.5,32c-5.3,2.9-10.7,2.6-13.8,1.3 M19.5,36.6c-4.5-5.1-5.4-10.7-5.2-16
				c0.2-5.4,4.3-10.9,8.4-15.7 M15,38.8C10.6,32.7,8.8,26.3,8.8,21C8.9,16.1,12.5,7.9,19,1.6 M14.8,0C6.7,5.9,3.2,14.3,3.2,21.4
				c0,5.1,2.5,11.2,6.9,17.3"/>
		</g>
	</g>
</g>
</svg>
