<svg xmlns="http://www.w3.org/2000/svg" xmlns:xlink="http://www.w3.org/1999/xlink" width="198.422" height="48.159" viewBox="0 0 198.422 48.159">
  <defs>
    <clipPath id="clip-path">
      <rect id="Rectangle_30" data-name="Rectangle 30" width="198.422" height="48.159" fill="none"/>
    </clipPath>
  </defs>
  <g id="Group_6" data-name="Group 6" style="isolation: isolate">
    <g id="Group_5" data-name="Group 5" clip-path="url(#clip-path)">
      <path id="Path_36" data-name="Path 36" d="M28.689.017c7.949,0,15.9.009,23.846-.017A1.394,1.394,0,0,1,53.97.825q6.167,11.294,12.4,22.554a1.287,1.287,0,0,1-.015,1.417q-6.28,11.287-12.517,22.6a1.246,1.246,0,0,1-1.267.765q-23.943-.03-47.886-.019A4.5,4.5,0,0,1,0,43.424Q-.005,24.1,0,4.769A4.509,4.509,0,0,1,4.746.019q11.971-.01,23.943,0M21.214,28.682l-.166.057c-.172-.267-.348-.531-.515-.8-2.858-4.6-5.707-9.211-8.589-13.8a1.765,1.765,0,0,0-1.039-.819,16.553,16.553,0,0,0-3-.009.883.883,0,0,0-.615.6q-.049,10.215-.006,20.431c0,.191.292.539.46.547,1.08.05,2.163.026,3.352.026V19.252c.3.459.456.7.606.941,2.541,4.116,5.206,8.163,7.565,12.381,1.11,1.985,2.366,2.872,4.623,2.54.829-.122,1.145-.229,1.139-1.142-.042-6.035-.021-12.071-.021-18.107,0-2.6,0-2.556-2.641-2.607-.947-.019-1.184.28-1.176,1.2.044,4.742.02,9.484.02,14.226m28.48-3.32v1.2c0,2.517.03,5.035-.017,7.552-.015.781.243,1.032.994.969a10.8,10.8,0,0,1,1.936,0c.847.082,1.11-.215,1.1-1.079-.041-4.453-.019-8.907-.019-13.361,0-2.162-.021-4.325.012-6.487.01-.679-.222-.928-.9-.887a15.763,15.763,0,0,1-2.13,0c-.742-.055-1.02.171-1,.964.053,2.161.02,4.324.016,6.487,0,.343-.031.687-.048,1.042H40.125v-1.13c0-2.163.018-4.325-.023-6.487-.005-.288-.3-.8-.482-.816-1.115-.077-2.238-.038-3.393-.038V35.072c1.088,0,2.087-.029,3.083.01.647.025.83-.239.824-.853-.024-2.42-.01-4.841-.009-7.261v-1.55c.422-.024.707-.054.992-.054,2.806,0,5.612,0,8.576,0M28.428,24.078v8.231c0,2.77,0,2.77,2.795,2.764,1.29,0,1.295,0,1.3-1.261q0-8.812,0-17.624c0-.71-.018-1.421,0-2.13.017-.582-.231-.809-.811-.784a15.863,15.863,0,0,1-2.13-.006c-.878-.08-1.183.217-1.17,1.127.049,3.227.019,6.456.019,9.684" transform="translate(0 0)" fill="#fff"/>
      <path id="Path_37" data-name="Path 37" d="M294.025.122a24.96,24.96,0,0,1,3.838.036,6.181,6.181,0,0,1,4.551,3.268Q307.92,13.37,313.453,23.3a1.334,1.334,0,0,1-.016,1.491q-5.574,9.961-11.1,19.946a5.961,5.961,0,0,1-5.585,3.318c-.835,0-1.671,0-2.679,0,.218-.437.357-.744.52-1.038,3.92-7.081,7.81-14.178,11.794-21.223a2.918,2.918,0,0,0,.012-3.315c-4-7.072-7.905-14.2-11.84-21.308-.168-.3-.313-.618-.529-1.049" transform="translate(-236.979 -0.049)" fill="#fff"/>
      <path id="Path_38" data-name="Path 38" d="M748.767,189.784c1.452,0,2.845-.106,4.217.021,3.24.3,3.976,3.014,3.682,5.432-.34,2.8-1.718,3.9-4.555,3.9h-3.344Zm1.426,4.676h0c0,.9.018,1.806-.006,2.709-.017.607.208.919.842.867a18.214,18.214,0,0,0,2.017-.177,2.244,2.244,0,0,0,1.9-1.718c.642-2.729.277-5.491-3.574-5.175-.16.013-.37-.061-.475.016-.258.189-.644.428-.665.674-.078.929-.031,1.868-.031,2.8" transform="translate(-603.494 -152.93)" fill="#fff"/>
      <path id="Path_39" data-name="Path 39" d="M430.71,17.592q0,1.91,0,3.82c0,.807.035,1.617-.034,2.418a.773.773,0,0,1-.579.5c-.256-.022-.7-.308-.7-.487-.044-2.9-.031-5.8-.031-8.726,1-.245,1.672-.183,2.225.8,1.137,2.012,2.421,3.941,3.644,5.9l.257-.039v-6.7h1.422v2.591c0,1.9.017,3.809-.016,5.712-.006.328-.18.9-.349.933-.525.088-1.133.267-1.539-.409-1.095-1.825-2.237-3.622-3.363-5.427-.2-.321-.417-.632-.626-.947l-.311.064" transform="translate(-346.06 -12.088)" fill="#fff"/>
      <path id="Path_40" data-name="Path 40" d="M568.215,120.779c-1.873,1.2-3.345,1.2-4.331-.01a4.191,4.191,0,0,1,.247-5.079c1.122-1.059,2.586-1.029,3.964.144.215-.892.829-.834,1.573-.617,0,2.255.1,4.538-.035,6.807-.1,1.6-1.242,2.42-2.928,2.476-1.9.064-2.873-.5-3.232-1.927.607-.115,1.113-.225,1.568.451a1.994,1.994,0,0,0,2.483.3,2.074,2.074,0,0,0,.69-2.54m.047-2.379c.03-1.446-.705-2.39-1.893-2.428-1.212-.039-2.029.917-2.047,2.4a2.109,2.109,0,0,0,1.852,2.387c1.232.045,2.057-.886,2.088-2.358" transform="translate(-453.886 -92.626)" fill="#fff"/>
      <path id="Path_41" data-name="Path 41" d="M433.116,111.751c-1.45.24-1.551.263-1.856-1.069-.263-1.148-.826-1.568-1.942-1.373a3.439,3.439,0,0,1-.58,0c-1.888,0-1.945-.017-2.48,1.776-.291.978-.9.777-1.68.7.085-.318.134-.586.227-.839.922-2.5,1.865-5,2.768-7.506.209-.582.456-.9,1.153-.879a1.1,1.1,0,0,1,1.208.811c.955,2.559,1.968,5.1,2.956,7.643.091.235.151.481.226.727m-2.778-3.545-1.41-4.042-.268.042c-.423,1.133-.85,2.265-1.266,3.4a4.365,4.365,0,0,0-.123.6Z" transform="translate(-342.203 -82.669)" fill="#fff"/>
      <path id="Path_42" data-name="Path 42" d="M737.332,111.464c-.592.044-1.243.378-1.263-.636-1.816,1.174-3.346,1.162-4.4.012a4.62,4.62,0,0,1-.142-5.227c.987-1.225,2.4-1.295,4.472-.125v-3.32h1.333Zm-1.345-3.176c-.014-.257-.009-.517-.044-.771a1.96,1.96,0,0,0-1.8-1.825,1.752,1.752,0,0,0-1.97,1.577,5.172,5.172,0,0,0,.021,1.98,1.957,1.957,0,0,0,1.942,1.568,2.065,2.065,0,0,0,1.8-1.758,6.936,6.936,0,0,0,.058-.771" transform="translate(-589.002 -82.345)" fill="#fff"/>
      <path id="Path_43" data-name="Path 43" d="M658.916,121.463a16.358,16.358,0,0,1-2.406.444,1.885,1.885,0,0,1-.383-3.751c.755-.158,1.536-.211,2.274-.422.308-.088.747-.467.744-.709a1.255,1.255,0,0,0-.61-.933,1.673,1.673,0,0,0-2.128.29c-.463.581-.929.551-1.58.431a3.263,3.263,0,0,1,.156-.673,2.466,2.466,0,0,1,2.329-1.277,2.878,2.878,0,0,1,2.858,1,1.76,1.76,0,0,1,.194.913c.02.9-.01,1.806,0,2.71.005.587-.14,1.176.606,1.571a.457.457,0,0,1-.33.836,8.3,8.3,0,0,1-1.723-.432m.073-3.008a11.928,11.928,0,0,0-2.287.431,1.478,1.478,0,0,0-.834,1.084c.01.31.614.782,1.019.863,1.246.249,2.648-.358,2.1-2.378" transform="translate(-527.474 -92.562)" fill="#fff"/>
      <path id="Path_44" data-name="Path 44" d="M627.882,29.4c.179-1.608,1.2-2.3,2.891-2.288,1.867.01,2.625.765,2.619,2.6,0,.741-.015,1.482,0,2.223.012.482-.181,1.073.589,1.231.092.019.192.408.141.582s-.313.4-.447.374c-.543-.088-1.072-.263-1.724-.437a16.783,16.783,0,0,1-2.586.437,1.876,1.876,0,0,1-.344-3.722c.75-.174,1.538-.2,2.268-.432.353-.11.893-.582.851-.789a1.447,1.447,0,0,0-.829-.968,1.817,1.817,0,0,0-2.082.6c-.23.292-.763.346-1.35.587m4.147,1.377a8.929,8.929,0,0,0-2.048.337,1.971,1.971,0,0,0-1.12,1.108c-.152.715.581.907,1.155,1.008,1.459.258,2.3-.753,2.013-2.453" transform="translate(-505.743 -21.854)" fill="#fff"/>
      <path id="Path_45" data-name="Path 45" d="M881.658,204.551a3.8,3.8,0,0,1,.21-.774,2.4,2.4,0,0,1,2.269-1.2c1.076-.036,2.17-.078,2.879.943a1.744,1.744,0,0,1,.211.911c.023.935,0,1.871,0,2.806,0,.536-.123,1.114.583,1.382.114.043.18.4.144.584-.023.118-.269.258-.425.272-.315.029-.808.1-.929-.06-.566-.771-1.082-.281-1.7-.13a5.6,5.6,0,0,1-2.268.08,1.6,1.6,0,0,1-1.3-1.6,1.679,1.679,0,0,1,1.141-1.823,13.676,13.676,0,0,1,1.873-.428,4.92,4.92,0,0,0,1.125-.242,1.063,1.063,0,0,0,.555-.685,1.1,1.1,0,0,0-.381-.81,1.922,1.922,0,0,0-2.391.229c-.573.638-.573.638-1.59.545m4.188,1.586a12.459,12.459,0,0,0-2.317.463,1.507,1.507,0,0,0-.8,1.1c-.01.28.576.743.968.846,1.547.4,2.5-.663,2.154-2.414" transform="translate(-710.331 -163.264)" fill="#fff"/>
      <path id="Path_46" data-name="Path 46" d="M479.624,34.041a18.633,18.633,0,0,1-2.646.51,1.861,1.861,0,0,1-2.037-1.653,1.839,1.839,0,0,1,1.589-2.079c.748-.178,1.538-.205,2.265-.439.35-.113.839-.559.826-.833a1.3,1.3,0,0,0-.8-.9,1.647,1.647,0,0,0-2.011.489c-.426.662-.931.514-1.534.4a1.87,1.87,0,0,1,1.577-1.774,6.447,6.447,0,0,1,2.277-.057c1.356.209,1.728.8,1.674,2.189-.036.933-.029,1.869.006,2.8a2.194,2.194,0,0,0,.292.775c.128.272.284.53.429.794-.308.1-.642.339-.917.282a3.583,3.583,0,0,1-.99-.5m-.161-2.848c-.733.108-1.4.174-2.053.312-.59.126-1.095.4-1.107,1.123-.014.8.614.919,1.168,1.019,1.46.261,2.318-.784,1.991-2.454" transform="translate(-382.779 -22.268)" fill="#fff"/>
      <path id="Path_47" data-name="Path 47" d="M606.971,115.209c-.99,2.683-1.925,5.312-2.934,7.912-.5,1.288-1.167,1.569-2.9,1.417l-.059-.865c1.845-.353,2.222-1.046,1.569-2.76q-1.074-2.823-2.152-5.647c1.22-.4,1.372-.327,1.759.757a28.91,28.91,0,0,0,1.669,4.021c.45-1.323.955-2.631,1.332-3.974.256-.913.7-1.23,1.719-.86" transform="translate(-483.987 -92.723)" fill="#fff"/>
      <path id="Path_48" data-name="Path 48" d="M845.756,206.527a1.814,1.814,0,0,0,1.24,2.1,1.969,1.969,0,0,0,2.2-.54,4.633,4.633,0,0,1,1.2-.637l.2.244a3.789,3.789,0,0,1-.241.654,3.242,3.242,0,0,1-3.906,1.254,3.619,3.619,0,0,1,.721-6.838,3.105,3.105,0,0,1,3.3,1.985c.1.267.13.562.217.835.241.756-.075.975-.806.955-1.347-.036-2.7-.01-4.127-.01m3.558-.911c-.114-1.277-.813-1.963-1.835-1.915a1.664,1.664,0,0,0-1.661,1.915Z" transform="translate(-680.505 -163.401)" fill="#fff"/>
      <path id="Path_49" data-name="Path 49" d="M504.722,206.52a1.9,1.9,0,0,0,1.268,2.083,1.7,1.7,0,0,0,2.1-.481,1.209,1.209,0,0,1,1.479-.476c-.165,1.6-2.288,2.423-3.686,2.058a3.465,3.465,0,0,1-2.469-4.277,3.247,3.247,0,0,1,3.675-2.662,3.1,3.1,0,0,1,2.5,3.756Zm.029-.952h3.577c-.136-1.243-.8-1.91-1.812-1.883a1.775,1.775,0,0,0-1.765,1.883" transform="translate(-405.659 -163.385)" fill="#fff"/>
      <path id="Path_50" data-name="Path 50" d="M959.991,206.514h-4.8a1.621,1.621,0,0,0,.879,1.993,1.842,1.842,0,0,0,2.375-.361,1.155,1.155,0,0,1,1.463-.475c-.1,1.46-2.115,2.417-3.613,2.061-1.971-.469-2.926-2.153-2.476-4.428a3.2,3.2,0,0,1,3.576-2.534,3.15,3.15,0,0,1,2.6,3.744m-1.433-.908c-.046-1.227-.769-1.956-1.828-1.9a1.7,1.7,0,0,0-1.682,1.9Z" transform="translate(-768.673 -163.398)" fill="#fff"/>
      <path id="Path_51" data-name="Path 51" d="M508.794,120.208c-.66,2.7-4,2.768-5.262,1.507a3.991,3.991,0,0,1-.635-4.4,3.047,3.047,0,0,1,3.443-1.708,3.007,3.007,0,0,1,2.517,2.773c.056.669-.153.951-.84.932-1.031-.029-2.063-.013-3.094,0-.341,0-.682.058-1.053.091a1.828,1.828,0,0,0,1.236,1.954,2.034,2.034,0,0,0,2.3-.547c.26-.292.781-.352,1.393-.605m-1.5-1.772a1.256,1.256,0,0,0-.71-1.644,3.205,3.205,0,0,0-1.975.016,1.258,1.258,0,0,0-.736,1.629Z" transform="translate(-405.015 -93.144)" fill="#fff"/>
      <path id="Path_52" data-name="Path 52" d="M909.707,31.507a1.936,1.936,0,0,0,1.21,2.125A2,2,0,0,0,913.2,33.1a4.975,4.975,0,0,1,1.39-.621,3.074,3.074,0,0,1-4.17,2.154,3.594,3.594,0,0,1-1.838-4.769A3.155,3.155,0,0,1,914.7,30.9c-.012.2-.427.51-.669.523-1.061.058-2.127.022-3.191.029-.347,0-.694.031-1.138.053m.037-.831h3.488A1.706,1.706,0,0,0,911.6,28.71a1.814,1.814,0,0,0-1.855,1.966" transform="translate(-732.078 -22.389)" fill="#fff"/>
      <path id="Path_53" data-name="Path 53" d="M966.823,27.958a3.166,3.166,0,0,1,3.356,3.5,3.3,3.3,0,0,1-3.4,3.522,3.388,3.388,0,0,1-3.462-3.509,3.311,3.311,0,0,1,3.509-3.513m-2.116,3.366c0,1.537.876,2.637,2.091,2.618a2.407,2.407,0,0,0,2.1-2.569,2.27,2.27,0,0,0-2.157-2.549c-1.284.007-2.028.923-2.031,2.5" transform="translate(-776.415 -22.533)" fill="#fff"/>
      <path id="Path_54" data-name="Path 54" d="M621.425,206.363a3.3,3.3,0,0,1-3.43,3.493,3.415,3.415,0,0,1-3.434-3.638,3.348,3.348,0,0,1,3.529-3.416,3.25,3.25,0,0,1,3.336,3.561m-5.5-.28c-.049,1.057.326,2.132,1.092,2.4a3,3,0,0,0,1.984.009,2.228,2.228,0,0,0,1.1-2.385,2.373,2.373,0,0,0-1.348-2.273c-1.4-.618-2.746.452-2.829,2.253" transform="translate(-495.326 -163.455)" fill="#fff"/>
      <path id="Path_55" data-name="Path 55" d="M694.07,115.062c.712-.2,1.241-.207,1.2.872.358-.3.581-.505.827-.681a2.535,2.535,0,0,1,2.656-.235,1.988,1.988,0,0,1,1.138,2.059c-.019,1.479-.005,2.958-.005,4.515H698.6c0-1.339.007-2.653,0-3.968-.008-1.237-.429-1.769-1.392-1.793a1.689,1.689,0,0,0-1.814,1.808c-.024,1.287-.006,2.575-.006,3.948h-1.32Z" transform="translate(-559.409 -92.487)" fill="#fff"/>
      <path id="Path_56" data-name="Path 56" d="M452.728,209.3h-1.393c0-1.325.007-2.607,0-3.889-.009-1.414-.418-1.979-1.408-1.976a1.857,1.857,0,0,0-1.821,2.072c-.022,1.224,0,2.448,0,3.755h-1.212v-6.855l1.442.768a7.176,7.176,0,0,1,1.831-.693,2.055,2.055,0,0,1,2.551,2.178c.073,1.51.016,3.025.016,4.64" transform="translate(-360.184 -163.138)" fill="#fff"/>
      <path id="Path_57" data-name="Path 57" d="M552.878,27.957a3.148,3.148,0,0,1,3.348,3.507,3.27,3.27,0,0,1-3.408,3.517,3.333,3.333,0,0,1-3.364-3.675,3.166,3.166,0,0,1,3.423-3.349m2.031,3.433c0-1.442-.714-2.455-1.812-2.562a2.033,2.033,0,0,0-2.31,1.822,2.682,2.682,0,0,0,1.42,3.147c1.451.534,2.7-.577,2.7-2.407" transform="translate(-442.852 -22.533)" fill="#fff"/>
      <path id="Path_58" data-name="Path 58" d="M754.6,32.716c.644-.04,1.209-.244,1.617.579.372.749,2.107.767,2.694.137a.719.719,0,0,0-.228-1.262,11.736,11.736,0,0,0-1.732-.561,8.6,8.6,0,0,1-1.281-.4,1.645,1.645,0,0,1-.652-2.452c.925-1.3,3.922-1.3,4.824.009a5.134,5.134,0,0,1,.368.833c-.737.088-1.341.216-1.795-.47a1.17,1.17,0,0,0-.759-.371c-.646-.091-1.42-.126-1.618.638s.582.891,1.11,1.061c.641.205,1.318.3,1.958.5a1.714,1.714,0,0,1,1.318,1.506,1.864,1.864,0,0,1-1.036,1.918c-1.5.814-4.4.594-4.816-1.356a1.513,1.513,0,0,1,.029-.31" transform="translate(-608.165 -22.393)" fill="#fff"/>
      <path id="Path_59" data-name="Path 59" d="M814.56,204.28c-.67.085-1.289.278-1.722-.452a1.107,1.107,0,0,0-.56-.355c-.721-.269-1.817.007-1.885.512-.123.914.675.97,1.259,1.16.671.218,1.4.295,2.041.565a1.8,1.8,0,0,1,.422,3.091,4.092,4.092,0,0,1-4.451.01,7.064,7.064,0,0,1-.9-1.33c.872-.152,1.416-.248,1.833.573.378.743,2.152.763,2.7.117.484-.572.242-1.055-.352-1.317-.554-.244-1.168-.349-1.746-.542a6.318,6.318,0,0,1-1.337-.534,1.607,1.607,0,0,1-.52-2.286c.848-1.181,2.128-1.093,3.353-.95a2.006,2.006,0,0,1,1.864,1.738" transform="translate(-651.852 -163.18)" fill="#fff"/>
      <path id="Path_60" data-name="Path 60" d="M996.594,204.267a1.451,1.451,0,0,1-1.76-.5,1.132,1.132,0,0,0-.763-.352c-.64-.059-1.451-.141-1.61.66-.143.723.605.874,1.162,1.031.619.175,1.25.307,1.864.495a1.657,1.657,0,0,1,1.352,1.559,1.824,1.824,0,0,1-1.147,1.941,4.3,4.3,0,0,1-3.477.018,1.626,1.626,0,0,1-1.128-1.672c.66-.144,1.173-.211,1.564.587.365.745,2.141.791,2.694.148a.762.762,0,0,0-.315-1.325,17.374,17.374,0,0,0-1.746-.544,6.806,6.806,0,0,1-1.266-.457,1.7,1.7,0,0,1-.509-2.507c1.09-1.436,4.351-1.064,5.05.578a1.371,1.371,0,0,1,.034.34" transform="translate(-798.797 -163.176)" fill="#fff"/>
      <path id="Path_61" data-name="Path 61" d="M923.889,204.279c-.745.168-1.335.217-1.771-.465a1,1,0,0,0-.66-.354c-.669-.08-1.519-.213-1.723.61-.2.789.636.908,1.2,1.082.674.207,1.39.3,2.041.557a1.811,1.811,0,0,1,.426,3.141,4.1,4.1,0,0,1-4.361.018,6.873,6.873,0,0,1-.92-1.361c.9-.153,1.4-.242,1.769.531.358.748,2.085.809,2.7.206a.785.785,0,0,0-.258-1.337,13.918,13.918,0,0,0-1.643-.529,8.716,8.716,0,0,1-1.361-.47,1.724,1.724,0,0,1-.625-2.415c.814-1.154,2.063-1.051,3.252-.937a2.063,2.063,0,0,1,1.936,1.722" transform="translate(-739.991 -163.204)" fill="#fff"/>
      <path id="Path_62" data-name="Path 62" d="M692.465,207.477c.881-.111,1.369-.219,1.719.529.372.793,2.2.862,2.753.175a.762.762,0,0,0-.36-1.313c-.561-.23-1.167-.35-1.746-.539a6.613,6.613,0,0,1-1.256-.482,1.713,1.713,0,0,1-.561-2.362c.821-1.152,2.071-1.05,3.261-.931a2.028,2.028,0,0,1,1.914,1.713c-.674.141-1.258.287-1.7-.411a1.156,1.156,0,0,0-.559-.359c-.719-.273-1.806-.009-1.885.5-.142.917.658.975,1.239,1.164.672.218,1.394.3,2.043.564a1.811,1.811,0,0,1,.5,3.03,4,4,0,0,1-4.592.013,6.362,6.362,0,0,1-.769-1.288" transform="translate(-558.115 -163.198)" fill="#fff"/>
      <path id="Path_63" data-name="Path 63" d="M595.691,34.142c0-1.325.006-2.672,0-4.019-.007-1.2-.482-1.792-1.413-1.8a1.777,1.777,0,0,0-1.789,1.785c-.037,1.347-.009,2.7-.009,4.022-1.252.282-1.317.237-1.321-.909-.006-1.894,0-3.788,0-5.723l1.037-.055.247.885a1.191,1.191,0,0,0,.339-.161,2.516,2.516,0,0,1,2.355-.821,1.912,1.912,0,0,1,1.844,2.089c.048,1.289.033,2.581.028,3.872,0,1.052-.074,1.093-1.315.834" transform="translate(-476.461 -22.004)" fill="#fff"/>
      <path id="Path_64" data-name="Path 64" d="M718.1,27.463h1.062l.229.921c.913-.794,1.811-1.361,3.011-.989a1.837,1.837,0,0,1,1.5,1.774c.044,1.354.051,2.709.053,4.064,0,1.093-.025,1.1-1.324.935,0-1.32,0-2.662,0-4,0-1.227-.438-1.817-1.349-1.858a1.809,1.809,0,0,0-1.859,1.917c-.024,1.289-.006,2.578-.006,3.851-1.155.377-1.306.284-1.311-.812-.007-1.9,0-3.8,0-5.8" transform="translate(-578.777 -21.986)" fill="#fff"/>
      <path id="Path_65" data-name="Path 65" d="M662.375,203.725V210.2c-.676.2-1.257.264-1.347-.52a9.484,9.484,0,0,1-2.151.775,1.934,1.934,0,0,1-2.28-1.857c-.129-1.625-.031-3.267-.031-4.962h1.24c0,.7-.01,1.363,0,2.029.015.837,0,1.678.087,2.508a1.258,1.258,0,0,0,1.328,1.26c.861.013,1.61-.293,1.729-1.2.158-1.207.142-2.437.178-3.659.032-1.069.088-1.12,1.244-.85" transform="translate(-529.153 -164.088)" fill="#fff"/>
      <path id="Path_66" data-name="Path 66" d="M850.319,28.193h1.227c0,1.331,0,2.64,0,3.95,0,1.364.449,1.983,1.423,1.992,1.085.01,1.776-.779,1.79-2.076.013-1.254,0-2.507,0-3.826H856v6.53c-.632.114-1.236.328-1.311-.36a14.934,14.934,0,0,1-2.637.581,1.563,1.563,0,0,1-1.7-1.423c-.116-1.756-.034-3.525-.034-5.368" transform="translate(-685.321 -22.723)" fill="#fff"/>
      <path id="Path_67" data-name="Path 67" d="M546.632,207.168a2.681,2.681,0,0,1-3.08,2.525c-1.869-.091-3.035-1.448-3.036-3.532,0-2.135,1.111-3.457,2.986-3.551,2.026-.1,3.109.65,3.28,2.333-.634.159-1.123.245-1.58-.508a1.75,1.75,0,0,0-3.029.226,2.944,2.944,0,0,0,.008,3.044,2.239,2.239,0,0,0,1.5.953,1.867,1.867,0,0,0,1.421-.877c.375-.719.826-.766,1.531-.613" transform="translate(-435.646 -163.294)" fill="#fff"/>
      <path id="Path_68" data-name="Path 68" d="M1005.038,17.559v.686c-1.273-.22-1.318.526-1.277,1.43.05,1.127-.033,2.26.026,3.387.05.951-.3,1.237-1.286.9V18.534c-.387-.463-1.392.07-1.111-1.026.923.053,1.109-.467,1.151-1.345a1.726,1.726,0,0,1,2.378-1.408c.206.07.312.432.567.814-.991.046-1.793.2-1.645,1.2.04.269.661.453,1.2.791" transform="translate(-807.064 -11.805)" fill="#fff"/>
      <path id="Path_69" data-name="Path 69" d="M485.654,190.624c-.64.091-.995.037-1.121.181a2.175,2.175,0,0,0-.5,1.03c-.022.134.385.469.615.488.6.048.837.245.6.891l-1.255.132V199H482.7v-5.533c-.508-.317-1.444.04-1.023-1.022.847.122,1.059-.319,1.071-1.115a1.621,1.621,0,0,1,2.122-1.589c.251.065.418.452.789.883" transform="translate(-388.135 -152.875)" fill="#fff"/>
      <path id="Path_70" data-name="Path 70" d="M886.725,20.693c0,1.373-.083,2.729.052,4.063.039.386.7.71,1.283,1.25-.04.036-.241.381-.481.412-1.511.192-2.088-.321-2.119-1.852-.026-1.284-.005-2.569-.005-3.858-.6-.172-1.5.05-1.1-1.054l1.07-.163a5.681,5.681,0,0,1,.026-1.283,1,1,0,0,1,.583-.64c.475-.13.694.172.668.664-.022.41,0,.822,0,1.261l1.292.146v.879l-1.259.176" transform="translate(-712.694 -14.135)" fill="#fff"/>
      <path id="Path_71" data-name="Path 71" d="M791.1,25.91c.085.243.008.505-.613.539-1.513.083-2-.337-2.016-1.838-.009-1.224-.017-2.448-.029-3.672a1.042,1.042,0,0,0-.082-.242c-.406-.2-1.386.07-.949-1.044l1.062-.18c0-.436.018-.849,0-1.259-.029-.5.209-.785.674-.649a1.017,1.017,0,0,1,.554.66,4.526,4.526,0,0,1,.024,1.112c.423.489,1.4-.18,1.272.775-.035.268-.666.458-1.242.822,0,1.153-.066,2.591.053,4.014.025.3.721.553,1.3.962" transform="translate(-634.552 -14.13)" fill="#fff"/>
      <path id="Path_72" data-name="Path 72" d="M825.765,20.876l-1.117-.149v-.879l1.095-.161a5.665,5.665,0,0,1,.029-1.329c.06-.243.409-.576.622-.572s.528.353.593.6a5.451,5.451,0,0,1,.027,1.293l1.278.158c.022.256.046.525.075.863l-1.3.182c0,1.391-.045,2.794.042,4.189.015.247.593.446.888.695a3.511,3.511,0,0,1,.417.506c-.157.12-.3.317-.472.349-1.413.26-2.137-.339-2.166-1.809-.025-1.285-.005-2.572-.005-3.94" transform="translate(-664.653 -14.334)" fill="#fff"/>
      <path id="Path_73" data-name="Path 73" d="M579.5,201.285c-.17.193-.326.534-.514.553-.721.073-1.545.239-1.974-.583a2.823,2.823,0,0,1-.224-1.213c-.027-1.283-.01-2.567-.01-3.915l-1.068-.158c-.36-1.033.5-.7,1.036-.9V193.1h1.228l.1,1.979,1.193.149c.187.475.214.871-.487.846s-.777.37-.76.925c.025.837.036,1.676,0,2.512-.041.932.106,1.661,1.423,1.462l.06.308" transform="translate(-463.942 -155.638)" fill="#fff"/>
      <path id="Path_74" data-name="Path 74" d="M509.941,20.543v-.936l1.1-.115c0-.413.016-.822,0-1.23-.022-.447.066-.746.61-.753.56-.007.731.27.726.775,0,.382.038.764.062,1.188l1.076.131c.227.842.227.842-1.058,1.1,0,1.361-.038,2.739.035,4.11.013.25.464.64.749.677.611.078.694.325.477.924-.382,0-.8.022-1.2,0a1.219,1.219,0,0,1-1.3-1.349c0-1.031-.054-2.065,0-3.093.052-.921-.036-1.627-1.273-1.428" transform="translate(-411.004 -14.111)" fill="#fff"/>
      <path id="Path_75" data-name="Path 75" d="M666.626,15.313h1.249a6.259,6.259,0,0,1,.084.727c.006,2.572,0,5.145.007,7.717,0,.474.035.876-.667.888-.728.013-.749-.373-.746-.911.014-2.54,0-5.08.009-7.62,0-.25.039-.5.064-.8" transform="translate(-537.231 -12.342)" fill="#fff"/>
      <rect id="Rectangle_24" data-name="Rectangle 24" width="1.314" height="9.278" transform="translate(136.166 2.966)" fill="#fff"/>
      <rect id="Rectangle_25" data-name="Rectangle 25" width="1.394" height="9.223" transform="translate(83.375 36.91)" fill="#fff"/>
      <rect id="Rectangle_26" data-name="Rectangle 26" width="1.148" height="9.135" transform="translate(91.947 19.996)" fill="#fff"/>
      <path id="Path_76" data-name="Path 76" d="M490.129,111.959h-1.157v-9.047c1.136-.282,1.23-.228,1.234.812q.012,3.672,0,7.344c0,.281-.047.563-.076.89" transform="translate(-394.103 -82.827)" fill="#fff"/>
      <path id="Path_77" data-name="Path 77" d="M543.182,120.854h-1.176v-6.538h1.107c.049.34.093.644.12.835l2.432-1.372v1.355c-1.9.322-2.469.992-2.482,2.918-.006.9,0,1.8,0,2.8" transform="translate(-436.848 -91.704)" fill="#fff"/>
      <path id="Path_78" data-name="Path 78" d="M537.083,35.039c-1.316.226-1.354.2-1.355-1.005,0-1.865,0-3.731,0-5.656h1.356Z" transform="translate(-431.787 -22.872)" fill="#fff"/>
      <path id="Path_79" data-name="Path 79" d="M814.255,35.088c-.965.319-1.286.011-1.261-.924.051-1.887.015-3.776.015-5.735h1.246Z" transform="translate(-655.259 -22.913)" fill="#fff"/>
      <path id="Path_80" data-name="Path 80" d="M601.784,203.714c1.145-.274,1.211-.23,1.214.845,0,1.858,0,3.715,0,5.649h-1.215Z" transform="translate(-485.028 -164.076)" fill="#fff"/>
      <path id="Path_81" data-name="Path 81" d="M797.557,209.4h-1.212c0-2.1-.027-4.181.046-6.254.007-.189.652-.356,1.166-.617Z" transform="translate(-641.838 -163.232)" fill="#fff"/>
      <rect id="Rectangle_27" data-name="Rectangle 27" width="1.277" height="1.129" transform="translate(104.002 2.984)" fill="#fff"/>
      <path id="Path_82" data-name="Path 82" d="M814.358,16.55h-1.146L813.15,15.4h1.208Z" transform="translate(-655.386 -12.409)" fill="#fff"/>
      <rect id="Rectangle_28" data-name="Rectangle 28" width="1.129" height="1.149" transform="translate(154.571 36.879)" fill="#fff"/>
      <rect id="Rectangle_29" data-name="Rectangle 29" width="1.129" height="1.149" transform="translate(116.768 36.879)" fill="#fff"/>
    </g>
  </g>
</svg>
