<?xml version="1.0" encoding="utf-8"?>
<!-- Generator: Adobe Illustrator 28.0.0, SVG Export Plug-In . SVG Version: 6.00 Build 0)  -->
<svg version="1.1" id="Layer_1" xmlns="http://www.w3.org/2000/svg" xmlns:xlink="http://www.w3.org/1999/xlink" x="0px" y="0px"
	 viewBox="0 0 88 53" style="enable-background:new 0 0 88 53;" xml:space="preserve">
<style type="text/css">
	.st0{fill:none;}
	.st1{fill:url(#NIH_2013_logo_vertical.svg_00000088113653574647263970000002467018154036395651_);}
	.st2{fill:#FFFFFF;}
</style>
<pattern  y="53" width="1164" height="697" patternUnits="userSpaceOnUse" id="pattern" viewBox="0 -697 1164 697" style="overflow:visible;">
	<g>
		<rect y="-697" class="st0" width="1164" height="697"/>
		
			<image style="overflow:visible;enable-background:new    ;" width="1164" height="697" xlink:href="91F88C56.png"  transform="matrix(1 0 0 -1 0 0)">
		</image>
	</g>
</pattern>
<pattern  id="NIH_2013_logo_vertical.svg_00000070834543330727495230000002941451988634087088_" xlink:href="#pattern" patternTransform="matrix(7.560138e-02 0 0 -7.604017e-02 -7076.0757 -8419.8984)">
</pattern>
<rect id="NIH_2013_logo_vertical.svg" x="-56.8" y="-108" style="fill:url(#NIH_2013_logo_vertical.svg_00000070834543330727495230000002941451988634087088_);" width="88" height="53"/>
<path class="st2" d="M35.8,46.3c-6.5,0-13,0-19.5,0c-2.6,0-4.1-1.4-4.1-4c0-10.5,0-21.1,0-31.6c0-2.5,1.5-4,4-4
	c13.1,0,26.2,0,39.3,0c0.7,0,1.1,0.2,1.5,0.8c3.3,6.1,6.7,12.1,10.1,18.2c0.3,0.6,0.3,1,0,1.6c-3.4,6.1-6.8,12.2-10.2,18.3
	c-0.3,0.6-0.6,0.8-1.3,0.8C49.1,46.3,42.5,46.3,35.8,46.3z M21.6,22.9c0.1,0,0.1-0.1,0.2-0.1c0.2,0.3,0.3,0.5,0.5,0.8
	c2.1,3.3,4.2,6.6,6.1,9.9c0.9,1.5,1.8,2.2,3.6,2c0.9-0.1,1.2-0.3,1.2-1.2c0-4.9,0-9.9,0-14.8c0-2.3,0.3-1.9-2-2
	c-0.9,0-1.2,0.3-1.2,1.2c0,3.5,0,7,0,10.5c0,0.3,0,0.6,0,1c-0.4-0.3-0.6-0.5-0.8-0.8C27,26,25,22.7,23,19.5c-1.2-2-1.2-1.9-3.5-1.9
	c-0.8,0-1,0.3-1,1c0,5.3,0,10.6,0,15.9c0,0.3,0,0.6,0.1,1c0.4,0,0.7,0,1.1,0c2,0,2,0,2-1.9C21.6,30,21.6,26.5,21.6,22.9z M42.3,35.5
	c0.8,0,1.5,0,2.2,0c0.8,0.1,1-0.2,1-1c0-2,0-4.1,0-6.1c0-0.7,0.2-0.9,0.9-0.9c2.1,0,4.2,0,6.2,0c0.6,0,0.8,0.2,0.8,0.8
	c0,1.6,0,3.3,0,4.9c0,2.3,0,2.3,2.3,2.3c0.9,0,1.1-0.3,1-1.1c0-5,0-10,0-15c0-2.1,0.4-1.9-1.9-1.9c-1.4,0-1.4,0-1.4,1.4
	c0,1.9,0,3.7,0,5.7c-2.4,0-4.6,0-6.9,0c-0.8,0-1.1-0.2-1-1c0.1-1.8,0-3.5,0-5.3c0-0.3-0.3-0.8-0.5-0.8c-0.9-0.1-1.7,0-2.7,0
	C42.3,23.6,42.3,29.5,42.3,35.5z M39.3,26.5c0-2.3,0-4.5,0-6.8c0-2.5,0.3-2.1-2.1-2.2c-1.2,0-1.2,0-1.2,1.3c0,4.8,0,9.5,0,14.3
	c0,2.4,0,2.4,2.4,2.4c0.8,0,1-0.3,1-1C39.3,31.8,39.3,29.2,39.3,26.5z"/>
<path class="st2" d="M59.5,46.3c1.1-1.9,2.1-3.7,3-5.5c2.5-4.6,5.1-9.1,7.6-13.6c0.3-0.6,0.2-1-0.1-1.5c-3.3-5.9-6.6-11.9-9.9-17.9
	c-0.2-0.3-0.3-0.7-0.5-1c3.1-0.6,5.5,0.3,6.9,2.9c2.9,5.4,5.9,10.7,8.9,16c0.3,0.5,0.3,0.9,0,1.4c-3.1,5.5-6.2,11.1-9.3,16.6
	c-0.9,1.7-2.5,2.5-4.3,2.5C61.2,46.3,60.4,46.3,59.5,46.3z"/>
</svg>
