<svg xmlns="http://www.w3.org/2000/svg" width="214.353" height="72.304" viewBox="0 0 214.353 72.304">
  <g id="logo-sanger-white" transform="translate(-2.679 -4.335)">
    <g id="Group_28" data-name="Group 28" transform="translate(85.028 12.046)">
      <path id="Path_267" data-name="Path 267" d="M359.311,112.449a2.059,2.059,0,0,0-.944-1.6,2.834,2.834,0,0,0-1.806-.615c-1.149,0-2.462.247-2.462,1.642,0,.615.492.9.944,1.108,1.354.574,4.432.739,7.141,1.642,2.709.862,5.089,2.462,5.089,5.951,0,5.91-5.664,7.51-10.835,7.51-5.007,0-10.506-2.011-10.629-7.51h7.757a2.613,2.613,0,0,0,.985,1.888,3.355,3.355,0,0,0,2.175.615c1.067,0,2.749-.41,2.749-1.642s-.7-1.6-4.473-2.257c-6.2-1.067-8.7-3.037-8.7-6.69,0-5.376,5.786-6.771,10.055-6.771,4.6,0,10.137,1.272,10.342,6.73h-7.387Z" transform="translate(-345.809 -89.099)" fill="#fff"/>
      <path id="Path_268" data-name="Path 268" d="M455.726,122.789a8.608,8.608,0,0,0,.985,4.761h-8.29a5.681,5.681,0,0,1-.287-2.011h-.082c-1.723,1.97-4.227,2.544-6.853,2.544-4.1,0-7.51-1.969-7.51-6.443,0-6.731,7.88-6.484,12.024-7.264,1.108-.2,2.216-.533,2.216-1.888,0-1.436-1.354-1.97-2.668-1.97-2.5,0-3,1.272-3.037,2.175h-7.551c.246-5.992,5.91-6.977,10.958-6.977,10.178,0,10.1,4.227,10.1,8.331v8.742Zm-7.8-4.8a13.906,13.906,0,0,1-3.2,1.026c-1.805.41-2.75.862-2.75,2.3a2.34,2.34,0,0,0,2.544,1.97,3.225,3.225,0,0,0,3.406-3.324v-1.97Z" transform="translate(-412.598 -89.097)" fill="#fff"/>
      <path id="Path_269" data-name="Path 269" d="M533.179,106.252h7.839v2.709h.082c1.518-2.134,3.693-3.242,6.936-3.242,3.817,0,7.3,2.339,7.3,7.223v14.61h-8.126V116.389c0-2.462-.287-4.186-2.668-4.186-1.4,0-3.242.7-3.242,4.1v11.245h-8.126v-21.3Z" transform="translate(-488.211 -89.099)" fill="#fff"/>
      <path id="Path_270" data-name="Path 270" d="M651.417,124.8c0,4.227-1.108,10.178-11.081,10.178-5.048,0-10.383-1.355-11.122-7.1h8.044a5.13,5.13,0,0,0,.452.739,3.135,3.135,0,0,0,2.38,1.559c2.627,0,3.2-3.118,3.2-4.883v-1.97h-.082a6.7,6.7,0,0,1-5.7,2.955c-6.279,0-9.111-4.678-9.111-10.383,0-5.54,3.16-10.178,9.234-10.178,2.38,0,4.637.944,5.581,3.119h.082v-2.586h8.126Zm-11.245-3.735c3,0,3.324-2.872,3.324-5.253,0-2.339-1.149-4.186-3.529-4.186-2.3,0-3.447,1.97-3.447,4.227,0,2.422.738,5.212,3.652,5.212" transform="translate(-560.576 -89.098)" fill="#fff"/>
      <path id="Path_271" data-name="Path 271" d="M735.18,118.727c.205,2.421,1.6,4.145,4.145,4.145a4.07,4.07,0,0,0,3.406-1.518h7.592c-1.642,4.6-6.115,6.731-10.957,6.731-6.813,0-11.943-4.022-11.943-11.122a10.934,10.934,0,0,1,11.245-11.245c8.454,0,12.107,4.72,12.107,13.009Zm7.8-4.227a3.5,3.5,0,0,0-3.57-3.57,3.853,3.853,0,0,0-4.186,3.57Z" transform="translate(-635.839 -89.097)" fill="#fff"/>
      <path id="Path_272" data-name="Path 272" d="M828.126,106.252h7.8v3.406h.082c1.313-2.544,3.037-3.939,5.992-3.939a9.262,9.262,0,0,1,2.38.328v7.182a8.219,8.219,0,0,0-3.2-.533c-3.2,0-4.925,1.888-4.925,6.443v8.413h-8.126Z" transform="translate(-712.373 -89.099)" fill="#fff"/>
      <path id="Path_273" data-name="Path 273" d="M356.358,218.183h-2.951v-2.072h2.951Zm-2.951.834h2.951v7.735h-2.951Z" transform="translate(-351.584 -172.997)" fill="#fff"/>
      <path id="Path_274" data-name="Path 274" d="M368.687,227.607h2.847v.984h.03a2.836,2.836,0,0,1,2.519-1.178,2.49,2.49,0,0,1,2.653,2.623v5.306h-2.951v-4.054c0-.894-.1-1.52-.969-1.52-.507,0-1.178.253-1.178,1.491v4.083h-2.951v-7.735Z" transform="translate(-363.196 -181.587)" fill="#fff"/>
      <path id="Path_275" data-name="Path 275" d="M408.265,229.857a.746.746,0,0,0-.343-.581,1.025,1.025,0,0,0-.656-.224c-.418,0-.894.09-.894.6,0,.224.179.328.343.4.492.209,1.61.268,2.593.6a2.227,2.227,0,0,1,1.848,2.161c0,2.146-2.057,2.728-3.935,2.728-1.818,0-3.815-.731-3.86-2.728h2.817a.947.947,0,0,0,.358.685,1.216,1.216,0,0,0,.79.224c.388,0,1-.149,1-.6s-.253-.582-1.625-.82c-2.25-.387-3.159-1.1-3.159-2.429,0-1.953,2.1-2.46,3.651-2.46,1.669,0,3.681.462,3.756,2.444h-2.683Z" transform="translate(-389.55 -181.586)" fill="#fff"/>
      <path id="Path_276" data-name="Path 276" d="M438.576,220.764h1.58v1.818h-1.58v2.7c0,.716.164,1.029.909,1.029a5.038,5.038,0,0,0,.671-.045V228.5c-.6,0-1.267.089-1.893.089-1.252,0-2.638-.194-2.638-2.31v-3.7h-1.312v-1.818h1.312v-2.355h2.951Z" transform="translate(-413.073 -174.744)" fill="#fff"/>
      <path id="Path_277" data-name="Path 277" d="M463.591,218.183h-2.951v-2.072h2.951Zm-2.951.834h2.951v7.735H460.64Z" transform="translate(-433.081 -172.997)" fill="#fff"/>
      <path id="Path_278" data-name="Path 278" d="M479.059,220.764h1.58v1.818h-1.58v2.7c0,.716.164,1.029.909,1.029a5.037,5.037,0,0,0,.671-.045V228.5c-.6,0-1.267.089-1.893.089-1.252,0-2.638-.194-2.638-2.31v-3.7H474.8v-1.818h1.312v-2.355h2.951Z" transform="translate(-443.84 -174.744)" fill="#fff"/>
      <path id="Path_279" data-name="Path 279" d="M508.925,235.957h-2.847v-.984h-.03a2.836,2.836,0,0,1-2.519,1.178,2.491,2.491,0,0,1-2.653-2.623v-5.306h2.951v4.054c0,.894.1,1.52.969,1.52.507,0,1.177-.253,1.177-1.491v-4.083h2.951v7.735Z" transform="translate(-463.662 -182.202)" fill="#fff"/>
      <path id="Path_280" data-name="Path 280" d="M538.75,220.764h1.58v1.818h-1.58v2.7c0,.716.164,1.029.909,1.029a5.038,5.038,0,0,0,.671-.045V228.5c-.6,0-1.267.089-1.893.089-1.252,0-2.638-.194-2.638-2.31v-3.7h-1.312v-1.818H535.8v-2.355h2.951Z" transform="translate(-489.206 -174.744)" fill="#fff"/>
      <path id="Path_281" data-name="Path 281" d="M562.018,232.137a1.555,1.555,0,0,0,2.742.954h2.757a3.96,3.96,0,0,1-3.979,2.444c-2.474,0-4.337-1.461-4.337-4.039a3.971,3.971,0,0,1,4.084-4.084c3.07,0,4.4,1.715,4.4,4.725Zm2.832-1.535a1.27,1.27,0,0,0-1.3-1.3,1.4,1.4,0,0,0-1.52,1.3Z" transform="translate(-507.988 -181.586)" fill="#fff"/>
      <g id="Group_27" data-name="Group 27" transform="translate(0.263)">
        <path id="Path_282" data-name="Path 282" d="M367.344,42.01c-.529-1.772-1.837-2.75-4.069-2.75a4.019,4.019,0,0,0-3.7,2.162l.609-1.962h-3.06l-1.091,4.957h-.06l-1.051-4.957h-2.756l-.991,4.957h-.046l-1.168-4.957h-3.057l2.427,7.97h3.013l1.168-4.931h.046L354.7,47.43h3.015l1.431-4.606a4.679,4.679,0,0,0-.049.645,3.977,3.977,0,0,0,4.317,4.161,4.063,4.063,0,0,0,3.934-2.232V47.43h2.922V36.465h-2.922Zm-3.933-.847a1.355,1.355,0,0,1,1.41,1.415H361.9A1.461,1.461,0,0,1,363.41,41.163Zm3.934,3.992h-2.631a1.6,1.6,0,0,1-2.83-1.043h5.461v1.043Z" transform="translate(-346.906 -36.465)" fill="#fff"/>
        <path id="Path_283" data-name="Path 283" d="M544.6,54.576a1.534,1.534,0,0,1-1.558-1.613h5.738c-.013-3.086-1.348-4.851-4.346-4.851a4.007,4.007,0,0,0-4.028,3.028V50.8a2.475,2.475,0,0,0-2.654-2.688,3.1,3.1,0,0,0-2.264.812,1.409,1.409,0,0,0-.117.138c-.151.156-.228.263-.286.325a2.308,2.308,0,0,0-2.1-1.275,2.805,2.805,0,0,0-2.561,1.275h-.047V48.312h-2.833v7.97h2.924V51.965c0-.843.255-1.472,1.035-1.472.944,0,1,.72,1,1.472v4.317h2.94V51.965c0-.843.253-1.472,1.031-1.472.931,0,1.005.72,1.005,1.472v4.317h2.924V53.553a4.47,4.47,0,0,0,8.2.453H545.87A1.532,1.532,0,0,1,544.6,54.576Zm-.03-4.562a1.352,1.352,0,0,1,1.4,1.415h-2.919A1.463,1.463,0,0,1,544.57,50.015Z" transform="translate(-484.194 -45.317)" fill="#fff"/>
        <path id="Path_284" data-name="Path 284" d="M462.719,39.26a3.872,3.872,0,0,0-3.984,2.574,3.581,3.581,0,0,0-3.791-2.574,4.027,4.027,0,0,0-4.192,3.3v-6.1h-2.924V47.43h2.924V44.424a3.8,3.8,0,0,0,4.1,3.206,3.867,3.867,0,0,0,3.89-2.563,3.878,3.878,0,0,0,3.975,2.563,3.94,3.94,0,0,0,4.241-4.194A3.928,3.928,0,0,0,462.719,39.26Zm-6.59,5.019a1.22,1.22,0,0,1-1.244,1.184c-.944,0-1.29-.736-1.29-2.012,0-.968.239-2.025,1.35-2.025.69,0,1.106.461,1.106,1.26h2.48a5.193,5.193,0,0,0,.013,1.593Zm6.59,1.185c-1.153,0-1.32-1.168-1.32-2.027s.167-2.011,1.32-2.011,1.317,1.151,1.317,2.011S463.871,45.463,462.719,45.463Z" transform="translate(-423.607 -36.465)" fill="#fff"/>
      </g>
    </g>
    <g id="Group_29" data-name="Group 29" transform="translate(2.679 4.335)">
      <path id="Path_285" data-name="Path 285" d="M9.725,58.12H6.738a.831.831,0,0,1-.831-.831V54.3a.831.831,0,0,1,.831-.831H9.724a.831.831,0,0,1,.831.831v2.986A.831.831,0,0,1,9.725,58.12Z" transform="translate(-5.132 -41.679)" fill="#fff"/>
      <path id="Path_286" data-name="Path 286" d="M142.889,54.2H137.58a1.477,1.477,0,0,1-1.477-1.477v-5.31a1.477,1.477,0,0,1,1.477-1.477h5.309a1.477,1.477,0,0,1,1.477,1.477v5.309A1.477,1.477,0,0,1,142.889,54.2Z" transform="translate(-104.082 -35.955)" fill="#fff"/>
      <path id="Path_287" data-name="Path 287" d="M191.4,10.533h-3.982a1.108,1.108,0,0,1-1.108-1.108V5.443a1.108,1.108,0,0,1,1.108-1.108H191.4a1.108,1.108,0,0,1,1.108,1.108V9.425A1.108,1.108,0,0,1,191.4,10.533Z" transform="translate(-142.244 -4.335)" fill="#fff"/>
      <path id="Path_288" data-name="Path 288" d="M188.8,54.2h-5.309a1.477,1.477,0,0,1-1.477-1.477v-5.31a1.477,1.477,0,0,1,1.477-1.477H188.8a1.477,1.477,0,0,1,1.477,1.477v5.309A1.477,1.477,0,0,1,188.8,54.2Z" transform="translate(-138.973 -35.955)" fill="#fff"/>
      <path id="Path_289" data-name="Path 289" d="M239.269,12.211h-2.986a.831.831,0,0,1-.831-.831V8.394a.831.831,0,0,1,.831-.831h2.986a.831.831,0,0,1,.831.831V11.38A.831.831,0,0,1,239.269,12.211Z" transform="translate(-179.588 -6.788)" fill="#fff"/>
      <path id="Path_290" data-name="Path 290" d="M283.223,56.442h-3.982a1.108,1.108,0,0,1-1.108-1.108V51.352a1.108,1.108,0,0,1,1.108-1.108h3.982a1.108,1.108,0,0,1,1.108,1.108v3.982A1.108,1.108,0,0,1,283.223,56.442Z" transform="translate(-212.026 -39.226)" fill="#fff"/>
      <path id="Path_291" data-name="Path 291" d="M7.769,148.259H3.787a1.108,1.108,0,0,1-1.108-1.108v-3.982a1.108,1.108,0,0,1,1.108-1.108H7.769a1.108,1.108,0,0,1,1.108,1.108v3.982A1.108,1.108,0,0,1,7.769,148.259Z" transform="translate(-2.679 -109.008)" fill="#fff"/>
      <path id="Path_292" data-name="Path 292" d="M51.071,100.112H45.762a1.477,1.477,0,0,1-1.477-1.477V93.326a1.477,1.477,0,0,1,1.477-1.477h5.309a1.477,1.477,0,0,1,1.477,1.477v5.309A1.477,1.477,0,0,1,51.071,100.112Z" transform="translate(-34.3 -70.846)" fill="#fff"/>
      <path id="Path_293" data-name="Path 293" d="M51.071,146.021H45.762a1.477,1.477,0,0,1-1.477-1.477v-5.309a1.477,1.477,0,0,1,1.477-1.477h5.309a1.477,1.477,0,0,1,1.477,1.477v5.309A1.477,1.477,0,0,1,51.071,146.021Z" transform="translate(-34.3 -105.737)" fill="#fff"/>
      <path id="Path_294" data-name="Path 294" d="M94.894,144.23H88.522a1.772,1.772,0,0,1-1.772-1.772v-6.371a1.772,1.772,0,0,1,1.772-1.772h6.371a1.772,1.772,0,0,1,1.772,1.772v6.371A1.772,1.772,0,0,1,94.894,144.23Z" transform="translate(-66.574 -103.12)" fill="#fff"/>
      <path id="Path_295" data-name="Path 295" d="M140.8,98.322h-6.371a1.772,1.772,0,0,1-1.772-1.772V90.178a1.772,1.772,0,0,1,1.772-1.772H140.8a1.772,1.772,0,0,1,1.772,1.772V96.55A1.772,1.772,0,0,1,140.8,98.322Z" transform="translate(-101.465 -68.23)" fill="#fff"/>
      <path id="Path_296" data-name="Path 296" d="M140.8,144.23h-6.371a1.772,1.772,0,0,1-1.772-1.772v-6.371a1.772,1.772,0,0,1,1.772-1.772H140.8a1.772,1.772,0,0,1,1.772,1.772v6.371A1.772,1.772,0,0,1,140.8,144.23Z" transform="translate(-101.465 -103.12)" fill="#fff"/>
      <path id="Path_297" data-name="Path 297" d="M186.712,98.322H180.34a1.772,1.772,0,0,1-1.772-1.772V90.178a1.772,1.772,0,0,1,1.772-1.772h6.371a1.772,1.772,0,0,1,1.772,1.772V96.55A1.772,1.772,0,0,1,186.712,98.322Z" transform="translate(-136.356 -68.23)" fill="#fff"/>
      <path id="Path_298" data-name="Path 298" d="M234.706,146.021H229.4a1.477,1.477,0,0,1-1.477-1.477v-5.309a1.477,1.477,0,0,1,1.477-1.477h5.309a1.477,1.477,0,0,1,1.477,1.477v5.309A1.477,1.477,0,0,1,234.706,146.021Z" transform="translate(-173.864 -105.737)" fill="#fff"/>
      <path id="Path_299" data-name="Path 299" d="M51.071,237.839H45.762a1.477,1.477,0,0,1-1.477-1.477v-5.309a1.477,1.477,0,0,1,1.477-1.477h5.309a1.477,1.477,0,0,1,1.477,1.477v5.309A1.477,1.477,0,0,1,51.071,237.839Z" transform="translate(-34.3 -175.52)" fill="#fff"/>
      <path id="Path_300" data-name="Path 300" d="M94.894,190.139H88.522a1.772,1.772,0,0,1-1.772-1.772V182a1.772,1.772,0,0,1,1.772-1.772h6.371A1.772,1.772,0,0,1,96.666,182v6.371A1.772,1.772,0,0,1,94.894,190.139Z" transform="translate(-66.574 -138.011)" fill="#fff"/>
      <path id="Path_301" data-name="Path 301" d="M142.889,237.839H137.58a1.477,1.477,0,0,1-1.477-1.477v-5.309a1.477,1.477,0,0,1,1.477-1.477h5.309a1.477,1.477,0,0,1,1.477,1.477v5.309A1.477,1.477,0,0,1,142.889,237.839Z" transform="translate(-104.082 -175.52)" fill="#fff"/>
      <path id="Path_302" data-name="Path 302" d="M186.712,190.139H180.34a1.772,1.772,0,0,1-1.772-1.772V182a1.772,1.772,0,0,1,1.772-1.772h6.371A1.772,1.772,0,0,1,188.484,182v6.371A1.772,1.772,0,0,1,186.712,190.139Z" transform="translate(-136.356 -138.011)" fill="#fff"/>
      <path id="Path_303" data-name="Path 303" d="M188.8,237.839h-5.309a1.477,1.477,0,0,1-1.477-1.477v-5.309a1.477,1.477,0,0,1,1.477-1.477H188.8a1.477,1.477,0,0,1,1.477,1.477v5.309A1.477,1.477,0,0,1,188.8,237.839Z" transform="translate(-138.973 -175.52)" fill="#fff"/>
      <path id="Path_304" data-name="Path 304" d="M234.706,191.93H229.4a1.477,1.477,0,0,1-1.477-1.477v-5.309a1.477,1.477,0,0,1,1.477-1.477h5.309a1.477,1.477,0,0,1,1.477,1.477v5.309A1.477,1.477,0,0,1,234.706,191.93Z" transform="translate(-173.864 -140.629)" fill="#fff"/>
      <path id="Path_305" data-name="Path 305" d="M285.178,241.755h-2.986a.831.831,0,0,1-.831-.831v-2.986a.831.831,0,0,1,.831-.831h2.986a.831.831,0,0,1,.831.831v2.986A.831.831,0,0,1,285.178,241.755Z" transform="translate(-214.479 -181.243)" fill="#fff"/>
      <path id="Path_306" data-name="Path 306" d="M9.725,287.664H6.738a.831.831,0,0,1-.831-.831v-2.986a.831.831,0,0,1,.831-.831H9.724a.831.831,0,0,1,.831.831v2.986A.831.831,0,0,1,9.725,287.664Z" transform="translate(-5.132 -216.134)" fill="#fff"/>
      <path id="Path_307" data-name="Path 307" d="M237.314,285.986h-3.982a1.108,1.108,0,0,1-1.108-1.108V280.9a1.108,1.108,0,0,1,1.108-1.108h3.982a1.108,1.108,0,0,1,1.108,1.108v3.982A1.108,1.108,0,0,1,237.314,285.986Z" transform="translate(-177.135 -213.681)" fill="#fff"/>
    </g>
  </g>
</svg>
