<svg xmlns="http://www.w3.org/2000/svg" xmlns:xlink="http://www.w3.org/1999/xlink" width="106.515" height="106.391" viewBox="0 0 106.515 106.391">
  <defs>
    <clipPath id="clip-path">
      <rect id="Rectangle_31" data-name="Rectangle 31" width="106.515" height="106.391" transform="translate(0 0)" fill="none"/>
    </clipPath>
  </defs>
  <g id="Group_8" data-name="Group 8" transform="translate(0 0.001)">
    <g id="Group_7" data-name="Group 7" transform="translate(0 -0.001)" clip-path="url(#clip-path)">
      <path id="Path_83" data-name="Path 83" d="M528.021,251.177a1.966,1.966,0,0,1,1.423,1.051,14.323,14.323,0,0,1,.928,2.262,2.318,2.318,0,0,1-.125,1.132,6.7,6.7,0,0,1-2.709,3.768c-.826.611-1.713,1.138-2.545,1.741-.915.663-1.835,1.327-2.688,2.065a35.5,35.5,0,0,1-5.586,3.77c-2.129,1.228-4.272,2.433-6.354,3.736a15.754,15.754,0,0,0-4.789,4.5,11.6,11.6,0,0,0-1.6,3.565,1.582,1.582,0,0,1-.281.591,3.347,3.347,0,0,0-.694,3.3c.074.241.141.485.218.726a1.787,1.787,0,0,1-.2,1.68c-.547.812-.978,1.7-1.452,2.563-.215.389-.158.6.243.788a7.868,7.868,0,0,0,.958.366.656.656,0,0,1,.5.739,3.447,3.447,0,0,0,0,.758c.057.336-.02.79.551.81.053,0,.167.285.13.4a.655.655,0,0,0,.186.8,1.636,1.636,0,0,1,.563,1.6,2.145,2.145,0,0,0,2.137,2.616c1.263.09,2.529.149,3.787.283a10.491,10.491,0,0,1,2.177.439,2.683,2.683,0,0,1,1.9,3.289,2.236,2.236,0,0,1-1.345,1.889c-1.319.578-2.663,1.1-3.988,1.666a20.569,20.569,0,0,0-2.3,1.067,3.581,3.581,0,0,0-1.794,3.547,3.7,3.7,0,0,0,3.206,3.2c.763.112,1.531.189,2.392.294a3.866,3.866,0,0,1-.277.339,7.175,7.175,0,0,1-7.753,1.489,3.272,3.272,0,0,1-2.408-2.51,4.917,4.917,0,0,1,1.332-4.759,11.834,11.834,0,0,1,2.949-1.917c.793-.411,1.6-.806,2.364-1.261a4.541,4.541,0,0,0,2.345-3.007,1.462,1.462,0,0,0-.05-.775,3.337,3.337,0,0,0-3.261-2.143c-1.128-.058-2.264.046-3.4.039a8.813,8.813,0,0,1-1.727-.158,1.4,1.4,0,0,1-1.172-1.475,2.592,2.592,0,0,1,.035-.844,1.126,1.126,0,0,0-.543-1.334c-.628-.491-.615-.483-.438-1.246a.63.63,0,0,0-.193-.488c-.393-.371-.625-.757-.336-1.295a.564.564,0,0,0,.042-.173c.164-.988.162-.984-.8-1.283a4.288,4.288,0,0,1-.743-.3c-.671-.359-.782-.808-.335-1.419.325-.444.7-.852,1.031-1.29.432-.569.88-1.13,1.26-1.733a1.867,1.867,0,0,0-.059-2.394c-.339-.408-.095-.9-.048-1.335.565-5.231,3.22-9.239,7.318-12.4a68.624,68.624,0,0,1,8.6-5.36,59.012,59.012,0,0,0,8.766-5.514c1.322-1.079,2.494-2.342,3.735-3.52a1.931,1.931,0,0,0,.544-1.141c.1-.6.24-1.188.366-1.8" transform="translate(-451.822 -228.696)" fill="#fff"/>
      <path id="Path_84" data-name="Path 84" d="M244.045,156.31a4.184,4.184,0,0,1-.259-2.382,2.738,2.738,0,0,1,1.832-1.981,8.477,8.477,0,0,1,3.589-.6c2.125.084,4.245.29,6.366.464a6.355,6.355,0,0,0,3.317-.477,3.681,3.681,0,0,0,2.038-2.519c.408-1.55.8-3.1,1.2-4.658.222-.877.442-1.755.641-2.638a9.4,9.4,0,0,1,1.912-3.84,22.755,22.755,0,0,1,5.882-4.97c3.928-2.455,7.9-4.833,11.867-7.233a127.51,127.51,0,0,0,12.409-8.287c.456-.355,1.018-.575,1.465-.94a21.392,21.392,0,0,0,2.562-2.277,5.6,5.6,0,0,0,1.359-5.36,4.859,4.859,0,0,1,2.561,2.691,4.314,4.314,0,0,1-.384,3.409,12.445,12.445,0,0,1-3.461,4.166,48.946,48.946,0,0,1-4.24,2.972c-5.418,3.474-10.875,6.889-16.282,10.379-2.315,1.494-4.544,3.121-6.813,4.686a14.71,14.71,0,0,0-6.246,9.923,31.872,31.872,0,0,1-1.174,4.611,9.005,9.005,0,0,1-1.461,2.428,5.942,5.942,0,0,1-4.629,2.136,28.559,28.559,0,0,1-6.822-.653c-1.373-.234-2.776-.312-4.169-.41a5.233,5.233,0,0,0-1.324.161,2.409,2.409,0,0,0-1.731,1.194" transform="translate(-221.899 -98.894)" fill="#fff"/>
      <path id="Path_85" data-name="Path 85" d="M618.657,362.964a5.731,5.731,0,0,1,2.238,4.049,4.442,4.442,0,0,1-.873,2.761,8.766,8.766,0,0,1-2.483,2.423c-2.189,1.412-4.415,2.769-6.638,4.13a34.959,34.959,0,0,0-5.035,3.471,7.291,7.291,0,0,0-2.493,3.57,3.617,3.617,0,0,0,.038,2.063,2.077,2.077,0,0,1-.284,1.792,6.886,6.886,0,0,1-.422.575,1.085,1.085,0,0,0,.6,1.81c.714.193.831.413.736,1.142-.024.186.15.4.236.6.059.137.19.278.176.4-.043.393.106.61.492.642.456.038.608.308.6.722,0,.268,0,.536,0,.8a.878.878,0,0,0,.788.969,4.908,4.908,0,0,0,2.239-.237c1.3-.319,2.588-.676,3.9-.923a9.3,9.3,0,0,1,4.909.587,22.323,22.323,0,0,1,3.493,1.579,5.952,5.952,0,0,0,4.526.562,6.035,6.035,0,0,1,1.237-.2c-.927,1.056-1.783,2.186-2.8,3.149a5.266,5.266,0,0,1-4.17,1.221,10.02,10.02,0,0,1-3.6-.978,5.153,5.153,0,0,1-1.823-1.333,4.492,4.492,0,0,0-2.592-1.392,12.633,12.633,0,0,0-2.589-.439,15.151,15.151,0,0,0-2.726.361,10.687,10.687,0,0,1-4.558.064c-1.384-.355-1.733-1.187-1.123-2.544.161-.357.138-.592-.158-.807a2.438,2.438,0,0,1-.876-1.7,15.737,15.737,0,0,1-.45-1.942c-.008-.1-.227-.232-.37-.275a3.23,3.23,0,0,0-.872-.161.519.519,0,0,1-.565-.455.885.885,0,0,1,.167-.631c.373-.443.8-.845,1.208-1.255a1.357,1.357,0,0,0,.4-1.544,5.111,5.111,0,0,1,.119-3.144q.214-.978.478-1.946A6.551,6.551,0,0,1,601.9,377.4a14.153,14.153,0,0,1,1.625-1.093c1.646-1.1,3.27-2.242,4.942-3.3,1.848-1.173,3.739-2.279,5.615-3.406a8.823,8.823,0,0,0,4.145-4.736,19.3,19.3,0,0,0,.435-1.9" transform="translate(-543.895 -330.478)" fill="#fff"/>
      <path id="Path_86" data-name="Path 86" d="M168.438,653.821a3.1,3.1,0,0,1,2.543-3.36,9,9,0,0,1,4.6.141,43.582,43.582,0,0,1,4.394,1.605c5.339,2.139,10.447,4.778,15.629,7.257a23.043,23.043,0,0,1,5.679,3.6,10.844,10.844,0,0,1,2.019,2.306c1.028,1.7.826,2.264-.387,3.466a17.736,17.736,0,0,1-2.338,1.7c-.727.514-1.494.98-2.177,1.547a3.594,3.594,0,0,0-1.3,3.713,19.9,19.9,0,0,0,.407,2.006,4.491,4.491,0,0,0,3.835,3.057c.288.055.576.106.95.174a8.355,8.355,0,0,1-2.492,1.427,7.553,7.553,0,0,1-4.388.333,4.863,4.863,0,0,1-3.615-5.644,6.215,6.215,0,0,1,2.56-3.988c.985-.722,1.954-1.465,2.935-2.193a3.223,3.223,0,0,0,.753-4.071A6.073,6.073,0,0,0,196,664.672c-1.3-.839-2.64-1.615-3.994-2.361-3.1-1.71-6.208-3.412-9.338-5.068a38.78,38.78,0,0,0-8.146-3.382,10.507,10.507,0,0,0-5.158-.325c-.3.07-.593.181-.928.285" transform="translate(-153.343 -592.029)" fill="#fff"/>
      <path id="Path_87" data-name="Path 87" d="M200.407,142.292a39.96,39.96,0,0,1,10.82,12.485,41.371,41.371,0,0,1-31.291,61.256A41.37,41.37,0,0,1,154.385,139.1a40.914,40.914,0,0,1,24.566-5.348,39.127,39.127,0,0,1,15.2,4.538c-13.017-6.187-26-6.305-38.8.493a39.6,39.6,0,0,0-18.322,20.247,41.216,41.216,0,0,0,65.833,46.318,39.836,39.836,0,0,0,13.368-32.111c-.507-12.693-6.074-22.91-15.821-30.948" transform="translate(-121.703 -121.624)" fill="#fff"/>
      <path id="Path_88" data-name="Path 88" d="M46.533,616.968c.156.057.309.128.469.169q2.481.644,4.964,1.28a.931.931,0,0,1,.254.08,2.453,2.453,0,0,1,.278.229,1.111,1.111,0,0,1-.236.231c-.981.5-1.968.99-2.951,1.485q-1.151.58-2.3,1.165l.022.122c.352-.032.7-.06,1.055-.1.962-.1,1.927-.172,2.884-.3.682-.094,1.555.056,1.577-1.128l.156.1.211,1.965a.936.936,0,0,1-.16,0c-.15-.621-.585-.754-1.15-.688-1.4.164-2.807.32-4.211.482-.523.06-.747.407-.757.948l-.163-.051c-.049-.578-.116-1.156-.131-1.734,0-.095.214-.219.35-.289,1.353-.688,2.71-1.368,4.065-2.051.141-.071.276-.153.523-.29-.93-.245-1.742-.46-2.555-.671-.834-.216-1.668-.434-2.505-.638-.281-.069-.428-.185-.432-.509-.005-.4-.088-.8-.13-1.2a2.711,2.711,0,0,1,.025-.372c.119.14.2.193.215.26.1.5.458.6.874.555,1.391-.139,2.779-.3,4.17-.443.565-.056.978-.247.972-.933l.149.03.268,2.4-.12.027a1.089,1.089,0,0,1-.109-.216.618.618,0,0,0-.736-.5q-1.689.148-3.376.314c-.481.047-.961.11-1.441.166l-.016.1" transform="translate(-41.572 -559.633)" fill="#fff"/>
      <path id="Path_89" data-name="Path 89" d="M1028.648,323.383c-.842.054-1.684.105-2.526.162-1.1.073-2.2.155-3.3.219a1.273,1.273,0,0,1-.4-.112,1.8,1.8,0,0,1,.218-.356q1.885-1.91,3.781-3.81c.11-.111.211-.231.316-.347l-.078-.121c-1.508.723-3.021,1.436-4.521,2.176-.4.2-.318.589-.2.957a3.278,3.278,0,0,1-.929-1.754c.026-.007.068-.028.078-.018.555.573.612.589,1.343.259,1.085-.491,2.171-.979,3.247-1.489.577-.274,1.3-.473.947-1.439l.171,0c.238.541.489,1.078.7,1.63.029.076-.134.246-.234.347q-1.6,1.625-3.209,3.243c-.11.112-.211.233-.414.459.871-.059,1.606-.107,2.34-.16.981-.07,1.96-.15,2.942-.208a.463.463,0,0,1,.371.147c.258.5.479,1.011.714,1.524-.077.028-.118.052-.127.044-.576-.546-.681-.564-1.436-.219-1.151.527-2.3,1.05-3.449,1.586-.735.345-.8.471-.706,1.21a5.326,5.326,0,0,1-1.07-2.215c.043.018.091.022.113.049.414.512.519.566,1.137.3,1.119-.487,2.222-1.011,3.331-1.521.295-.135.587-.276.88-.414l-.028-.129" transform="translate(-929.628 -289.273)" fill="#fff"/>
      <path id="Path_90" data-name="Path 90" d="M914.831,168.523l1.877,1.625c-.13.064-.177.108-.2.1-.68-.263-.782-.248-1.268.272-.385.411-.756.835-1.167,1.291l2.154,1.928c.507-.614,1.011-1.191,1.466-1.8.088-.119,0-.385-.04-.576a1.087,1.087,0,0,0-.177-.3l.123-.107,1.9,1.692c-.19,0-.286.03-.331,0-.4-.312-.726-.159-1.017.156-.425.459-.839.928-1.256,1.394-.467.521-.941,1.037-1.4,1.566-.4.462-.9.919-.168,1.59l-.2.072-1.819-1.633.047-.189c.729.62,1.11.092,1.515-.35.37-.4.738-.812,1.15-1.267l-2.161-1.929c-.526.624-1.027,1.207-1.515,1.8-.3.364-.078.686.161,1.005a5.259,5.259,0,0,1-1.877-1.566c.011-.01.029-.03.033-.028.707.43,1.117-.034,1.528-.5.786-.9,1.58-1.784,2.361-2.684.577-.665.581-.749.2-1.466l.081-.082" transform="translate(-829.122 -153.44)" fill="#fff"/>
      <path id="Path_91" data-name="Path 91" d="M266.836,119.064l-2.081,1.227c-.03-.107-.054-.148-.044-.16.471-.552.491-.628.112-1.283-.6-1.043-1.222-2.078-1.843-3.111-.548-.912-.557-.911-1.536-.974l2.071-1.235c.041.1.068.141.06.148-.526.508-.438.681-.113,1.292.264.5.571.971.9,1.517l2.461-1.492c-.438-.665-.824-1.331-1.3-1.923-.134-.166-.538-.113-.83-.163a5.578,5.578,0,0,1,2.075-1.2,1.334,1.334,0,0,1-.169.216.6.6,0,0,0-.154.837q1.177,2,2.385,3.981c.265.435.671.481,1.146.2l.027.185-2.127,1.293c0-.131-.021-.216,0-.232.478-.316.407-.715.166-1.127-.3-.514-.607-1.024-.934-1.521a.372.372,0,0,0-.342-.11c-.734.419-1.454.863-2.252,1.345.451.7.854,1.371,1.316,2,.107.145.411.159.631.2a.84.84,0,0,0,.312-.067l.066.149" transform="translate(-238.044 -101.712)" fill="#fff"/>
      <path id="Path_92" data-name="Path 92" d="M661.781,43.8c.146-.1.193-.157.233-.152.6.068.776-.33.876-.8.118-.552.205-1.11.335-1.659.057-.239-.015-.328-.234-.371-.73-.141-1.459-.283-2.186-.438-.255-.055-.355.057-.4.28-.119.628-.251,1.253-.357,1.883-.08.48.222.727.656.875a4.287,4.287,0,0,1-2.433-.432c.061-.024.114-.065.161-.059.529.068.722-.267.813-.694.189-.886.362-1.775.541-2.663.079-.393.156-.787.233-1.18.115-.589.325-1.209-.6-1.445l.123-.147,2.352.475.062.152c-.992-.092-1.021.61-1.148,1.231-.089.434-.178.868-.28,1.362l2.815.552c.134-.716.269-1.367.374-2.024.073-.459-.206-.731-.652-.885l.093-.141,2.374.432c-.058.1-.081.169-.1.168-.631-.031-.853.36-.959.9-.256,1.3-.538,2.588-.778,3.887-.133.719-.076.785.579,1.388l-2.494-.494" transform="translate(-599.356 -33.508)" fill="#fff"/>
      <path id="Path_93" data-name="Path 93" d="M775.927,91.3a2.6,2.6,0,0,0,1.432-1.475c.05-.15-.079-.378-.169-.548-.055-.1-.191-.168-.29-.249l.064-.115,1.933.941c-.048.066-.073.111-.081.109-.586-.2-.974.118-1.376.483a10.015,10.015,0,0,1-1.244.943.32.32,0,0,0-.128.506,1.188,1.188,0,0,0,1.117.683h.468a1.606,1.606,0,0,1-2.262-.457.651.651,0,0,0-.651-.4,5.007,5.007,0,0,1-2.71-1.043.821.821,0,0,1-.167-1.257,3.263,3.263,0,0,1,2.494-1.466c.346-.026.39-.178.447-.458a3.469,3.469,0,0,1,.392-1.247,1.561,1.561,0,0,1,2.649.325.955.955,0,0,1-.669,1.363,7.335,7.335,0,0,1-1.28.145c-.2.017-.412.015-.379.3q.152,1.328.317,2.654a1.526,1.526,0,0,0,.091.259M773,89.707a1.794,1.794,0,0,0,1.707,1.867c.29.015.435-.066.385-.411-.131-.908-.244-1.819-.331-2.732-.03-.317-.161-.369-.431-.325a1.591,1.591,0,0,0-1.332,1.6m2.9-1.774c.824,0,1.365-.359,1.495-.975a.888.888,0,0,0-.493-.994.784.784,0,0,0-1.034.355,5.622,5.622,0,0,0-.347,1.18c-.07.315.071.487.379.434" transform="translate(-702.584 -77.985)" fill="#fff"/>
      <path id="Path_94" data-name="Path 94" d="M102.644,781.79l1.091,2.142-.118.177c-.432-.864-.983-.511-1.5-.253-1.133.564-2.252,1.155-3.382,1.724-.493.248-.808.563-.587,1.164.01.026-.037.072-.084.157a1.36,1.36,0,0,1-.193-.226c-.4-.783-.8-1.562-1.174-2.358a4.112,4.112,0,0,1-.3-1.02,1.418,1.418,0,0,1,1.9-1.57,6.86,6.86,0,0,1,1.123.714,2.852,2.852,0,0,0,.191-.239c.373-.557.741-1.117,1.111-1.676a2.4,2.4,0,0,0,.485-1.526c.2.4.421.784.6,1.192.035.081-.076.24-.146.347-.534.825-1.082,1.641-1.6,2.474a.772.772,0,0,0-.091.519c.066.315.245.436.578.24.435-.256.9-.458,1.345-.7.662-.366.711-.479.609-1.195l.15-.085m-2.658,2.282c-.121-.252-.2-.438-.3-.619a1.786,1.786,0,0,0-1.252-1.043,1.317,1.317,0,0,0-1.476.737,1.75,1.75,0,0,0,.4,1.842.688.688,0,0,0,.567.062c.679-.291,1.337-.629,2.065-.98" transform="translate(-87.745 -709.278)" fill="#fff"/>
      <path id="Path_95" data-name="Path 95" d="M1038,766.816a12.609,12.609,0,0,1-1.565,3.413,1.429,1.429,0,0,1-1.692.574,1.57,1.57,0,0,1-.975-1.6c0-.19.019-.38.032-.633l-.858.08c-.43.039-.861.065-1.289.119a2.888,2.888,0,0,0-1.726.625c.184-.407.355-.822.565-1.215.041-.077.235-.089.361-.1.946-.106,1.891-.222,2.84-.3.446-.036.624-.264.667-.742-.7-.288-1.4-.6-2.12-.866a.624.624,0,0,0-.783.266.843.843,0,0,1-.181.156l-.112-.065.971-2.237c.1.061.142.078.141.092-.042.739.014.854.716,1.171,1.234.556,2.481,1.085,3.714,1.643a.9.9,0,0,0,1.293-.376m-3.866,1.829a1.429,1.429,0,0,0,.788,1.326,1.243,1.243,0,0,0,1.447-.236,3.134,3.134,0,0,0,.581-.825.57.57,0,0,0-.3-.849c-.385-.192-.78-.365-1.173-.542-.924-.416-1.086-.325-1.271.707-.026.146-.047.293-.067.418" transform="translate(-937.745 -695.881)" fill="#fff"/>
      <path id="Path_96" data-name="Path 96" d="M329.907,1023.17c-.823-.367-1.1.2-1.4.721-.535.929-1.075,1.855-1.59,2.794-.326.6-.844,1.2-.055,1.841-.076.039-.11.07-.123.062-.919-.518-1.881-.976-2.744-1.575a2.862,2.862,0,0,1-.926-3.833,2.961,2.961,0,0,1,3.7-1.771,28.406,28.406,0,0,1,3.174,1.529Zm-6.5,1.7a2.325,2.325,0,0,0,1.416,2.423c.469.237.694.191.982-.247.269-.409.5-.842.742-1.271.484-.871.971-1.74,1.436-2.621.169-.321.29-.7-.057-.979a2.17,2.17,0,0,0-1.775-.547,4.094,4.094,0,0,0-2.743,3.241" transform="translate(-293.813 -929.839)" fill="#fff"/>
      <path id="Path_97" data-name="Path 97" d="M58.878,443.679l-.4,1.9-.109,0a.533.533,0,0,1-.06-.185.693.693,0,0,0-.637-.779c-1.073-.24-2.147-.471-3.222-.7-.363-.078-.732-.129-1.094-.213-.451-.1-.8-.024-.962.459a.334.334,0,0,1-.1.177,1.48,1.48,0,0,1,.6-1.7q2.188-.956,4.378-1.909c.181-.079.354-.179.531-.269l-.02-.111c-1.233-.245-2.465-.494-3.7-.734a.724.724,0,0,0-.931.632l-.156-.09.377-1.887c.093.039.14.046.143.061.125.733.21.821.963.98q2.334.491,4.667.982a.814.814,0,0,1,.38.19c-1.974,1.022-4.028,1.836-6.045,2.767.046.067.065.125.094.132,1.307.284,2.61.587,3.923.836.725.137.777.076,1.219-.56l.152.027" transform="translate(-47.546 -399.038)" fill="#fff"/>
      <path id="Path_98" data-name="Path 98" d="M1080.94,514.295l5-4.372-.049-.106c-.361.029-.722.05-1.081.089q-1.508.163-3.015.339c-.715.085-.806.169-1.1.862l-.219-1.927.195-.134a2.33,2.33,0,0,1,.065.252c.081.554.5.644.93.607,1.423-.121,2.843-.272,4.264-.419.517-.054.83-.338.818-1.009a1.527,1.527,0,0,1-.2,2.014q-1.748,1.5-3.5,3a1.336,1.336,0,0,0-.391.493c.4-.034.8-.067,1.2-.1.756-.068,1.512-.131,2.267-.207.546-.055,1.07-.155,1.034-.935l.15.049c.059.632.117,1.263.178,1.921-.118-.021-.165-.017-.17-.031-.288-.669-.312-.719-1.059-.663-1.484.111-2.964.266-4.445.4-.261.024-.524.035-.786.052l-.092-.169" transform="translate(-983.769 -462.968)" fill="#fff"/>
      <path id="Path_99" data-name="Path 99" d="M138.475,258.1a3.937,3.937,0,0,1,3.673,2.858,2.728,2.728,0,0,1-2.66,3.257,3.96,3.96,0,0,1-3.586-2.683,2.652,2.652,0,0,1,2.574-3.431m-.826.573a2.262,2.262,0,0,0-.333.054,1.571,1.571,0,0,0-.874,2.41,4.884,4.884,0,0,0,3.636,2.468,1.546,1.546,0,0,0,1.669-1.988,5,5,0,0,0-4.1-2.944" transform="translate(-123.634 -235)" fill="#fff"/>
      <path id="Path_100" data-name="Path 100" d="M350.345,76.462l.93,2.184c-.946-.811-1.138-.834-2.359-.2.332.752.652,1.515,1.005,2.262a.524.524,0,0,0,.69.251,2.537,2.537,0,0,0,2.043-1.948,3,3,0,0,1,.2-.51l.16.015c0,.55.006,1.1-.009,1.65,0,.056-.117.128-.193.159q-2.021.834-4.047,1.657c-.033.014-.08-.005-.119-.009,0-.041-.019-.084-.007-.095.552-.495.585-.589.3-1.3q-.638-1.594-1.31-3.174c-.265-.619-.392-1.416-1.446-1.178l.039-.122c.122-.063.241-.135.368-.187,1.154-.479,2.313-.946,3.462-1.437a.516.516,0,0,1,.7.142c.247.295.531.559.8.836l-.109.132c-.2-.108-.4-.213-.6-.326a2.382,2.382,0,0,0-2.637.282.633.633,0,0,0-.2.564c.209.649.475,1.28.747,1.906.031.07.252.12.355.086.881-.284,1.136-.653,1.236-1.639" transform="translate(-315.195 -67.744)" fill="#fff"/>
      <path id="Path_101" data-name="Path 101" d="M851.536,983.75c1.015.572,1.3.538,2.344-.378-.5-.666-1-1.349-1.523-2.007-.21-.263-.508-.2-.777-.052a2.593,2.593,0,0,0-1.5,2.4c0,.157-.021.314-.033.47l-.131.025c-.137-.529-.279-1.056-.4-1.588-.012-.051.089-.146.157-.195q1.739-1.257,3.485-2.506a.8.8,0,0,1,.168-.066c.016.066.047.121.031.143-.42.6-.443.681-.01,1.288.8,1.116,1.624,2.209,2.433,3.316a.82.82,0,0,0,1.288.248l.009.171c-.1.091-.2.191-.306.27-1.037.753-2.081,1.5-3.112,2.259a.429.429,0,0,1-.589.019c-.333-.236-.69-.439-1.037-.656l.044-.123c.2.038.414.06.613.118a2.47,2.47,0,0,0,2.556-.88.725.725,0,0,0,.015-.675c-.356-.6-.778-1.159-1.169-1.724-.957.287-1.262.871-1.131,2.037l-1.427-1.92" transform="translate(-773.482 -892.158)" fill="#fff"/>
      <path id="Path_102" data-name="Path 102" d="M444.716,56.885l-2.381.669-.06-.145c.131-.062.264-.122.394-.187.291-.144.4-.362.22-.654-.241-.393-.488-.784-.76-1.155a.428.428,0,0,0-.362-.128c-.593.141-1.179.309-1.763.482-.1.029-.244.123-.252.2a11.086,11.086,0,0,0-.081,1.422c.008.309.252.456.555.474.14.008.282,0,.422,0l.029.168-2.063.56-.05-.1a1.369,1.369,0,0,0,.148-.174c.185-.306.483-.6.523-.927.121-.973.139-1.958.2-2.938.046-.773.127-1.545.129-2.317a.839.839,0,0,1,.73-.884c.08.1.174.215.256.334q1.5,2.194,3,4.392c.287.424.592.806,1.243.726l-.072.181m-2.881-2.038L440.041,52.3l-.153.062v3.023l1.947-.539" transform="translate(-399.31 -46.665)" fill="#fff"/>
      <path id="Path_103" data-name="Path 103" d="M50.5,535.467c.488.224.978.442,1.46.679.053.026.079.156.076.235q-.09,2.187-.195,4.374c0,.03-.051.058-.108.119-.04-.084-.091-.142-.091-.2a.6.6,0,0,0-.616-.638c-1.591-.085-3.184-.153-4.777-.178-.191,0-.395.281-.576.451a.969.969,0,0,0-.147.279l-.124-.022c-.008-.149-.028-.3-.021-.446.055-1.2.13-2.409.165-3.615a.616.616,0,0,1,.525-.692c.345-.083.677-.222,1.015-.337l.072.136c-.179.138-.353.281-.537.412a2.467,2.467,0,0,0-.892,2.387.573.573,0,0,0,.617.573c.565.033,1.132.046,1.7.094.343.029.432-.115.443-.433.029-.784-.116-1.437-1.126-1.561l.109-.125,2.328.111c-.338.246-.771.416-.951.731a3.777,3.777,0,0,0-.192,1.287c.909.028,1.751.069,2.594.074.326,0,.436-.26.479-.549a2.6,2.6,0,0,0-1-2.731,3.524,3.524,0,0,0-.382-.211l.156-.2" transform="translate(-41.319 -487.541)" fill="#fff"/>
      <path id="Path_104" data-name="Path 104" d="M252.413,968.725c-.813-.415-1.16.177-1.547.666q-1.013,1.28-2.019,2.565c-.655.839-.653.841-.245,1.811a3.844,3.844,0,0,1-.382-.221c-1.025-.794-2.044-1.6-3.076-2.383a.417.417,0,0,1-.185-.524c.122-.391.223-.789.333-1.184l.113,0c.04.32.085.639.119.96.1.97.823,1.442,1.559,1.874a.645.645,0,0,0,.581-.162c.476-.528.9-1.1,1.34-1.644-.66-.833-1.188-.928-2.281-.492l1.459-1.846a3.124,3.124,0,0,0,.032,1.186c.162.361.573.611.939.971.555-.735,1.068-1.385,1.547-2.059.206-.29.072-.564-.172-.791a2.633,2.633,0,0,0-2.691-.773,3.739,3.739,0,0,1-.5.08l-.046-.118c.437-.264.869-.537,1.315-.784a.37.37,0,0,1,.313.068q1.684,1.3,3.353,2.61a.848.848,0,0,1,.137.189" transform="translate(-223.007 -879.398)" fill="#fff"/>
      <path id="Path_105" data-name="Path 105" d="M1064,696.635c-.507-.383-.932-.7-1.343-1.026a.315.315,0,0,1-.074-.271q.582-2.1,1.186-4.2c.014-.05.063-.089.148-.2a1.47,1.47,0,0,1,.029.3.616.616,0,0,0,.449.729c.417.156.846.28,1.275.4.959.27,1.921.527,2.88.794.531.148,1.011.175,1.265-.451.008-.021.075-.018.175-.039-.023.136-.032.242-.06.342-.35,1.26-.712,2.516-1.046,3.779a.477.477,0,0,1-.489.414c-.379.026-.756.066-1.134.1l-.042-.123a3.637,3.637,0,0,1,.432-.214,2.477,2.477,0,0,0,1.56-2.342.675.675,0,0,0-.37-.52,16.924,16.924,0,0,0-1.883-.543c-.088-.021-.289.127-.324.234-.251.757-.307,1.474.65,1.88l-.1.084-2.331-.642c.059-.074.076-.114.093-.113a1.282,1.282,0,0,0,1.505-1.383c0-.084-.127-.224-.221-.252-.669-.2-1.345-.375-2.017-.568-.438-.126-.678.071-.825.46a2.561,2.561,0,0,0,.332,2.769,3.425,3.425,0,0,1,.25.368,1.166,1.166,0,0,1,.032.233" transform="translate(-967.473 -629.092)" fill="#fff"/>
      <path id="Path_106" data-name="Path 106" d="M147.831,847.231l1.262,1.758-.085.14c-.843-.738-1.668-.265-2.484-.024-1.239.366-2.478.74-3.7,1.171a.926.926,0,0,1-1.245-.373c.077-.112.164-.245.258-.374.926-1.278,1.861-2.549,2.775-3.835.387-.544.892-1.059.61-1.853l.143-.039,1.448,2.035-.116.111c-.1-.1-.2-.2-.3-.3a.427.427,0,0,0-.722.027c-.284.363-.552.739-.8,1.126a.4.4,0,0,0,.005.353c.346.52.706,1.032,1.084,1.53a.428.428,0,0,0,.362.113,8.356,8.356,0,0,0,1.022-.313c.562-.207.636-.4.416-.945a1.612,1.612,0,0,1-.056-.232l.125-.074m-5.167,2.535.081.12,3-.922-1.243-1.742-1.836,2.543" transform="translate(-128.912 -768.279)" fill="#fff"/>
      <path id="Path_107" data-name="Path 107" d="M635.863,1084.266l-2.234.294c.088-.148.11-.238.158-.256a1.47,1.47,0,0,0,.872-1.255c.346-1.61.679-3.223,1.027-4.833a.809.809,0,0,1,.219-.455c.428-.325.595-.268.825.218.617,1.3,1.212,2.617,1.858,3.906.346.691.509,1.553,1.479,1.756l-.034.131-2.458.3-.042-.133c.121-.043.24-.1.364-.128.351-.094.522-.287.364-.654-.182-.422-.362-.847-.575-1.254a.433.433,0,0,0-.349-.179c-.606.061-1.209.151-1.81.246-.1.016-.247.093-.266.169a10.714,10.714,0,0,0-.27,1.35c-.04.348.169.553.527.586.111.01.221.027.331.041l.013.155m1.588-2.894-1.316-2.839-.13.019-.669,3.086,2.114-.266" transform="translate(-576.918 -981.112)" fill="#fff"/>
      <path id="Path_108" data-name="Path 108" d="M1061.568,443.019l-.651-2.4.117-.057a2.3,2.3,0,0,1,.172.282c.216.5.381.556.845.265.088-.055.17-.12.256-.18.965-.674.965-.674.634-1.851-.3-1.065-.3-1.065-1.357-1.122-.822-.045-.959.084-.973.9,0,.036-.038.071-.128.23l-.595-2.2.128-.083c.466.834,1.255.79,2.028.825,1.5.068,3,.177,4.507.232.425.016.528.31.618.584.031.1-.19.321-.34.423-1.366.932-2.745,1.844-4.112,2.774-.489.332-1.019.648-.989,1.386l-.16-.01m4.6-4.671-.058-.134-3.126-.182.568,2.091,2.616-1.774" transform="translate(-965.025 -397.71)" fill="#fff"/>
      <path id="Path_109" data-name="Path 109" d="M190.909,933.318a18.468,18.468,0,0,0,1.576-1.666c.163-.217.026-.66.026-1l-.179.1,1.844,1.615c-.054.036-.087.072-.1.065-.716-.352-.794-.34-1.377.224q-1.364,1.319-2.725,2.641c-.634.619-.641.676-.243,1.556a2.965,2.965,0,0,1-.339-.239c-.64-.644-1.3-1.271-1.9-1.947a3.013,3.013,0,0,1-.644-1.1,1.461,1.461,0,0,1,.6-1.65,1.4,1.4,0,0,1,1.631-.134,10.448,10.448,0,0,1,1.305.991,6.882,6.882,0,0,1,.524.535m-.143.113a9.839,9.839,0,0,0-1.2-.967,1.557,1.557,0,0,0-.964-.176,1.435,1.435,0,0,0-1.178,1.092,1.6,1.6,0,0,0,.7,1.624.6.6,0,0,0,.882.027c.565-.5,1.118-1.016,1.758-1.6" transform="translate(-170.061 -847.356)" fill="#fff"/>
      <path id="Path_110" data-name="Path 110" d="M485.56,1072.577l2.353.506c-.036.091-.043.138-.057.14-.782.12-.825.152-1,.932-.225,1-.466,2-.647,3a3.124,3.124,0,0,0,.02,1.235c.173.736.807.941,1.463,1.038a1.237,1.237,0,0,0,1.421-.69,11.251,11.251,0,0,0,.572-1.817c.172-.675.3-1.362.429-2.047.1-.521.187-1.059-.533-1.291l.073-.13,1.94.389c-.109.1-.143.161-.185.167-.706.107-.8.194-.943.878-.208.987-.415,1.975-.631,2.961a3.848,3.848,0,0,1-.208.68,1.936,1.936,0,0,1-2.445,1.111,2.009,2.009,0,0,1-1.781-2.574c.228-.967.4-1.947.6-2.92.121-.582.3-1.174-.57-1.432l.131-.14" transform="translate(-441.887 -976.578)" fill="#fff"/>
      <path id="Path_111" data-name="Path 111" d="M187.962,186.619a4.063,4.063,0,0,1-.564-.029,2.5,2.5,0,0,0-2.407,1.065.607.607,0,0,0,.048.885c.459.506.939.993,1.4,1.479.923-.533,1.1-1.083.812-1.894l1.574,1.43a2.98,2.98,0,0,0-1.146-.138,4.015,4.015,0,0,0-1.095.782c.619.625,1.172,1.2,1.747,1.755a.594.594,0,0,0,.784.032c.113-.072.232-.135.348-.2l.1.131-1.892,1.8c-.055-.106-.087-.147-.08-.156.476-.609.112-1.026-.306-1.457-.8-.824-1.577-1.669-2.368-2.5-.717-.753-.72-.75-1.685-.5a1.422,1.422,0,0,1,.164-.267c.98-.938,1.958-1.878,2.955-2.8a.58.58,0,0,1,.494-.089c.4.144.777.349,1.163.53l-.047.142" transform="translate(-166.833 -169.284)" fill="#fff"/>
      <path id="Path_112" data-name="Path 112" d="M990.972,241.072l1.191,1.6c-.165,0-.232.021-.267,0-.565-.389-.652-.413-1.22-.018-.795.552-1.556,1.153-2.35,1.706a4.9,4.9,0,0,1-1.092.589,1.757,1.757,0,0,1-.876.066c-.993-.177-2.2-1.882-1.858-2.9a2.355,2.355,0,0,1,.892-1.19c.82-.594,1.646-1.181,2.463-1.78.452-.331.92-.667.518-1.372l.168-.052,1.39,1.922-.054.171c-.717-.8-1.229-.218-1.761.149-.625.431-1.24.878-1.851,1.329a6.288,6.288,0,0,0-.754.628,1.494,1.494,0,0,0-.144,2.129,1.388,1.388,0,0,0,2.027.476c1.135-.706,2.2-1.528,3.287-2.306.406-.29.295-.686.15-1.083l.142-.055" transform="translate(-896.33 -216.436)" fill="#fff"/>
      <path id="Path_113" data-name="Path 113" d="M568.068,1090.108l-.553-1.407.1-.087a3.594,3.594,0,0,1,.3.215c.379.332.727.7,1.135,1a1.58,1.58,0,0,0,1.492.186,1.239,1.239,0,0,0,.263-2.228,6.074,6.074,0,0,0-.934-.413c-.388-.149-.8-.251-1.175-.418a1.606,1.606,0,0,1-.93-2.131,1.764,1.764,0,0,1,2.006-1.108c.424.082.85.153,1.41.253l.492,1.255-.127.083a2.929,2.929,0,0,0-.327-.356,6.375,6.375,0,0,0-1.3-.961,1.188,1.188,0,0,0-1.6.714c-.236.628.022,1.166.768,1.478.629.263,1.3.439,1.922.708a1.56,1.56,0,0,1,1.011,1.54,1.634,1.634,0,0,1-1,1.648,4.152,4.152,0,0,1-1.47.172,14.132,14.132,0,0,1-1.476-.14" transform="translate(-516.721 -986.689)" fill="#fff"/>
      <path id="Path_114" data-name="Path 114" d="M795.21,1025.2l1.251,1.137-.069.127a3.943,3.943,0,0,0-.468-.13,8.669,8.669,0,0,0-1.87-.245,1.327,1.327,0,0,0-1.2,1.586,1.379,1.379,0,0,0,1.624.993c.575-.076,1.147-.2,1.723-.224a1.584,1.584,0,0,1,1.829,1.424,1.815,1.815,0,0,1-1.348,1.955c-.4.12-.8.244-1.3.4-.24-.207-.578-.5-.912-.791a1.792,1.792,0,0,1-.168-.262c.261.081.4.132.537.164a8.563,8.563,0,0,0,1.508.317,1.256,1.256,0,0,0,1.281-1.272,1.1,1.1,0,0,0-1.307-1.083,14.422,14.422,0,0,0-1.633.22,1.794,1.794,0,0,1-2.28-1.445,1.92,1.92,0,0,1,1.481-2.174c.964-.283.964-.283,1.312-.692" transform="translate(-721.456 -933.44)" fill="#fff"/>
      <path id="Path_115" data-name="Path 115" d="M81.736,362.937c-.017-.038-.053-.077-.05-.113.072-.781.033-.876-.664-1.175-1.339-.574-2.684-1.135-4.03-1.693-.433-.179-.667-.067-.825.381a2.24,2.24,0,0,0,.316,1.953c.077.132.161.259.242.388l-.1.089c-.38-.358-.767-.709-1.131-1.083-.052-.054-.02-.228.021-.327q.853-2.083,1.727-4.158a.455.455,0,0,1,.3-.254c.483-.027.968-.012,1.453-.012l.014.165c-.2.055-.409.1-.607.167A2.426,2.426,0,0,0,76.97,358.4a.491.491,0,0,0,.246.771q2.2.927,4.408,1.827a.674.674,0,0,0,.925-.293,1.208,1.208,0,0,1,.191-.205l.1.057-.984,2.414-.119-.036" transform="translate(-68.715 -324.984)" fill="#fff"/>
      <path id="Path_116" data-name="Path 116" d="M1086.808,632.723l-1.336.3-.06-.153c.139-.087.277-.177.418-.261a2.277,2.277,0,0,0,1.227-1.454,1.2,1.2,0,0,0-.6-1.36,1.1,1.1,0,0,0-1.466.357,8.726,8.726,0,0,0-.589,1.046c-.12.222-.226.452-.343.677a1.7,1.7,0,0,1-2.4.861,1.855,1.855,0,0,1-.922-2.383c.336-1.028.336-1.028.232-1.529l1.649-.379.065.176a3.28,3.28,0,0,0-.486.347,6.4,6.4,0,0,0-1.208,1.335,1.265,1.265,0,0,0,1.3,1.914,1.5,1.5,0,0,0,.81-.48,5.364,5.364,0,0,0,.591-.992c.2-.35.36-.722.586-1.051a1.524,1.524,0,0,1,1.812-.6,1.489,1.489,0,0,1,1.173,1.4,5.055,5.055,0,0,1-.165,1.173c-.066.327-.175.646-.286,1.045" transform="translate(-983.903 -572.2)" fill="#fff"/>
      <path id="Path_117" data-name="Path 117" d="M581.283,38.757c.027-.114.027-.139.034-.142.889-.3.927-.37.953-1.361.035-1.339.091-2.677.139-4.016.017-.483-.181-.687-.667-.669a2.269,2.269,0,0,0-1.732.972c-.087.11-.167.226-.25.339l-.148-.074c.217-.482.426-.968.659-1.441.028-.057.187-.071.284-.068q2.3.08,4.6.178a.36.36,0,0,1,.273.159c.176.451.325.912.482,1.37l-.1.058c-.069-.093-.144-.182-.207-.278a2.588,2.588,0,0,0-1.583-1.158c-.528-.13-.8.091-.823.628q-.079,1.941-.159,3.882c0,.1-.01.208-.012.313-.018.834.049.934.913,1.31Z" transform="translate(-527.735 -29.406)" fill="#fff"/>
      <path id="Path_118" data-name="Path 118" d="M64.625,731.563c-.456,0-.913.021-1.367-.014a.5.5,0,0,1-.316-.3q-.711-2.134-1.383-4.281a.42.42,0,0,1,.051-.359c.367-.337.76-.646,1.143-.965l.1.082c-.079.125-.15.255-.239.373a2.416,2.416,0,0,0-.512,1.8c.069.564.327.756.848.591,1.36-.429,2.719-.863,4.07-1.32.814-.275.887-.416.875-1.235a10.324,10.324,0,0,1,.818,2.52.712.712,0,0,1-.162-.14c-.308-.5-.5-.615-1.064-.443-1.464.445-2.92.915-4.373,1.394-.425.14-.506.381-.337.807A2.276,2.276,0,0,0,64.2,731.33c.149.058.3.106.453.158l-.027.074" transform="translate(-56.033 -660.695)" fill="#fff"/>
      <path id="Path_119" data-name="Path 119" d="M1013.126,853.782l-1.457,2.157-.13-.067a2.069,2.069,0,0,1,.1-.3c.163-.328.066-.568-.271-.663-1.411-.4-2.827-.782-4.248-1.172-.014.087-.031.123-.02.138.838,1.121,1.665,2.25,2.526,3.353.291.373.487.342.858.014a1.57,1.57,0,0,1,.225-.141l.1.092-1.206,1.8c-.069-.1-.12-.152-.111-.171.325-.682-.034-1.2-.409-1.712q-1.439-1.966-2.878-3.931a3.011,3.011,0,0,1-.221-.432l.086-.1c.493.131.987.26,1.48.394,1.363.37,2.728.734,4.086,1.119a.96.96,0,0,0,1.22-.338c.037-.056.13-.075.2-.111l.077.075" transform="translate(-915.942 -776.329)" fill="#fff"/>
      <path id="Path_120" data-name="Path 120" d="M919.994,945.922l-1.273-.618.034-.132c.155,0,.31.01.464,0a7.828,7.828,0,0,0,1.37-.133,1.657,1.657,0,0,0,1.214-2.074,4.331,4.331,0,0,0-3-2.857,1.977,1.977,0,0,0-2.376,2.427,1.265,1.265,0,0,1,.023.437,2.2,2.2,0,0,1-.226-1.526,2.7,2.7,0,0,1,3.856-1.938,3.994,3.994,0,0,1,2.127,4.122,2.057,2.057,0,0,1-1.143,1.508,8.154,8.154,0,0,0-1.067.787" transform="translate(-834.175 -855.169)" fill="#fff"/>
      <path id="Path_121" data-name="Path 121" d="M508.3,43.352c.772-.128.782-.66.7-1.2q-.3-1.959-.653-3.91c-.137-.752-.238-.818-1-.921l-.024-.125,2.389-.418.043.112c-.048.043-.089.109-.145.125-.484.137-.556.509-.493.917.219,1.423.447,2.845.695,4.263.1.6.317.754.928.7a2.245,2.245,0,0,0,2.051-1.342c.068-.153.155-.3.233-.447l.147.041c-.1.519-.2,1.039-.315,1.554-.013.058-.136.119-.215.132q-2,.328-4,.641a1.143,1.143,0,0,1-.251-.016Z" transform="translate(-461.91 -33.484)" fill="#fff"/>
      <path id="Path_122" data-name="Path 122" d="M967.491,896.006l-1.713,2.016c-.031-.159-.072-.233-.052-.281.243-.58.233-.724-.246-1.144-.783-.686-1.588-1.348-2.383-2.02-.159-.134-.32-.267-.478-.4-.488-.414-.957-.927-1.659-.218l-.07-.166,1.56-1.837c.059.045.1.07.1.078-.257.73-.257.8.352,1.326,1.015.873,2.045,1.729,3.079,2.58.527.433.6.422,1.2.072.046-.027.122,0,.311,0" transform="translate(-874.888 -812.122)" fill="#fff"/>
      <path id="Path_123" data-name="Path 123" d="M739.594,1081.506a.587.587,0,0,1-.673.6.608.608,0,0,1-.636-.607.668.668,0,0,1,.685-.671.64.64,0,0,1,.623.677" transform="translate(-672.207 -984.091)" fill="#fff"/>
      <path id="Path_124" data-name="Path 124" d="M428.571,1081.474a.612.612,0,0,1-.677.609.591.591,0,0,1-.612-.624.639.639,0,0,1,.645-.657.675.675,0,0,1,.643.672" transform="translate(-389.04 -984.067)" fill="#fff"/>
      <path id="Path_125" data-name="Path 125" d="M177.524,1005.24a8.507,8.507,0,0,1-.877-.011.348.348,0,0,1-.238-.234c-.031-.288-.011-.581-.011-.992l1.18,1.1-.055.135" transform="translate(-160.605 -914.142)" fill="#fff"/>
      <path id="Path_126" data-name="Path 126" d="M1.376,538.543l.946-.855-.108,1.734-.837-.879" transform="translate(-1.253 -489.563)" fill="#fff"/>
      <path id="Path_127" data-name="Path 127" d="M1120.942,337.952l-.793-1.553,1.209.378-.416,1.175" transform="translate(-1019.893 -306.29)" fill="#fff"/>
      <path id="Path_128" data-name="Path 128" d="M91.668,899.152l-1.233-.255.208-1.089.1-.035.92,1.379" transform="translate(-82.341 -817.42)" fill="#fff"/>
      <path id="Path_129" data-name="Path 129" d="M311.27,1106.479l1.569.79-1.167.425-.4-1.215" transform="translate(-283.41 -1007.446)" fill="#fff"/>
      <path id="Path_130" data-name="Path 130" d="M221.649,131.263l-1.345,1.157.114-1.27,1.231.112" transform="translate(-200.586 -119.413)" fill="#fff"/>
      <path id="Path_131" data-name="Path 131" d="M170.323,178.209c-.015-.191-.023-.263-.026-.335-.034-1.01.045-1.075,1.133-.9a1.743,1.743,0,0,1-.128.182c-.3.328-.6.652-.98,1.057" transform="translate(-155.05 -161.064)" fill="#fff"/>
      <path id="Path_132" data-name="Path 132" d="M1177.153,532.8l-.193-1.773.993.789-.8.985" transform="translate(-1071.619 -483.502)" fill="#fff"/>
      <path id="Path_133" data-name="Path 133" d="M2.881,641.634l-1-.772.8-.979.2,1.751" transform="translate(-1.714 -582.612)" fill="#fff"/>
      <path id="Path_134" data-name="Path 134" d="M1108.5,861.884l-1.182.379.791-1.579.392,1.2" transform="translate(-1008.206 -783.65)" fill="#fff"/>
      <path id="Path_135" data-name="Path 135" d="M39.48,373.927l1.149-.531-.6,1.67-.552-1.14" transform="translate(-35.946 -339.976)" fill="#fff"/>
      <path id="Path_136" data-name="Path 136" d="M1002.842,172.344h.971l.1,1.186-1.067-1.186" transform="translate(-913.085 -156.919)" fill="#fff"/>
      <path id="Path_137" data-name="Path 137" d="M1149.339,766.149l.6,1.116-1.114.607.513-1.723" transform="translate(-1046.003 -697.576)" fill="#fff"/>
      <path id="Path_138" data-name="Path 138" d="M1.5,573.018v1.635l-.786-.915.786-.72" transform="translate(-0.652 -521.731)" fill="#fff"/>
      <path id="Path_139" data-name="Path 139" d="M602.732,1.745h-1.549l.853-.762.7.762" transform="translate(-547.375 -0.895)" fill="#fff"/>
      <path id="Path_140" data-name="Path 140" d="M530.42,3.178l-1.621.2.788-.987.867.669-.034.116" transform="translate(-481.47 -2.179)" fill="#fff"/>
      <path id="Path_141" data-name="Path 141" d="M1180.453,601.259v-1.637l.828.861-.828.776" transform="translate(-1074.799 -545.954)" fill="#fff"/>
      <path id="Path_142" data-name="Path 142" d="M572.91,1180.355l-.743-.745h1.594l-.851.745" transform="translate(-520.956 -1074.032)" fill="#fff"/>
      <path id="Path_143" data-name="Path 143" d="M1159.538,733.354l.657,1.086-1.039.677.382-1.763" transform="translate(-1055.408 -667.717)" fill="#fff"/>
      <path id="Path_144" data-name="Path 144" d="M926.8,1066.924l-.137,1.076-1.249-.173,1.285-.957.1.054" transform="translate(-842.589 -971.382)" fill="#fff"/>
      <path id="Path_145" data-name="Path 145" d="M255.3,1071.232l-1.229.239-.255-1.225,1.484.986" transform="translate(-231.095 -974.456)" fill="#fff"/>
      <path id="Path_146" data-name="Path 146" d="M837.774,1118.8l-.393,1.178-1.208-.373,1.6-.8" transform="translate(-761.332 -1018.661)" fill="#fff"/>
      <path id="Path_147" data-name="Path 147" d="M863.5,69.738l.394,1.183-1.56-.787,1.166-.4" transform="translate(-785.154 -63.496)" fill="#fff"/>
      <path id="Path_148" data-name="Path 148" d="M247.128,111.45l.191-1.255,1.211.206-1.4,1.049" transform="translate(-225.009 -100.332)" fill="#fff"/>
      <path id="Path_149" data-name="Path 149" d="M563.718,0l.917.83-1.728.129L563.718,0" transform="translate(-512.525 0.001)" fill="#fff"/>
      <path id="Path_150" data-name="Path 150" d="M397.234,32.6l.477-1,1.139.534-1.546.555-.07-.087" transform="translate(-361.68 -28.773)" fill="#fff"/>
      <path id="Path_151" data-name="Path 151" d="M1173.6,668.406l.214-1.785.767.973-.981.812" transform="translate(-1068.56 -606.956)" fill="#fff"/>
      <path id="Path_152" data-name="Path 152" d="M1167.69,700.341l.734,1.037-1.026.707.292-1.744" transform="translate(-1062.913 -637.659)" fill="#fff"/>
      <path id="Path_153" data-name="Path 153" d="M227.1,1051.045l-.146-1.239,1.386,1.049-1.24.191" transform="translate(-206.639 -955.845)" fill="#fff"/>
      <path id="Path_154" data-name="Path 154" d="M1067.3,248.962l1.227.207-.166,1.245-1.061-1.452" transform="translate(-971.772 -226.679)" fill="#fff"/>
      <path id="Path_155" data-name="Path 155" d="M109.672,926.5l.18-1.232,1.056,1.4-1.236-.17" transform="translate(-99.856 -842.457)" fill="#fff"/>
      <path id="Path_156" data-name="Path 156" d="M21.843,741.96l-.98-.541.595-1.1.477,1.574-.092.065" transform="translate(-18.996 -674.06)" fill="#fff"/>
      <path id="Path_157" data-name="Path 157" d="M1051.316,946.8c.065.487.114.844.166,1.238l-1.224.206,1.057-1.444" transform="translate(-956.258 -862.056)" fill="#fff"/>
      <path id="Path_158" data-name="Path 158" d="M636,2.59l-1.768-.111.945-.813L636,2.59" transform="translate(-577.464 -1.518)" fill="#fff"/>
      <path id="Path_159" data-name="Path 159" d="M1028.524,975.165l1.064-1.235c.019.136.031.2.037.267.1,1.055.1,1.055-1.1.968" transform="translate(-936.468 -886.761)" fill="#fff"/>
      <path id="Path_160" data-name="Path 160" d="M496.574,6.786l1.012.688-1.607.311-.069-.083.663-.916" transform="translate(-451.526 -6.179)" fill="#fff"/>
      <path id="Path_161" data-name="Path 161" d="M703.092,11.127l.733,1.02-1.722-.279.989-.74" transform="translate(-639.263 -10.131)" fill="#fff"/>
      <path id="Path_162" data-name="Path 162" d="M74.023,868.331c-.186-.029-.3-.037-.414-.067-.24-.066-.477-.143-.768-.231l.306-1.2.875,1.5" transform="translate(-66.322 -789.246)" fill="#fff"/>
      <path id="Path_163" data-name="Path 163" d="M950.192,127.884l-1.313-.977.215-.045c1.067-.238,1.123-.19,1.1,1.022" transform="translate(-863.952 -115.404)" fill="#fff"/>
      <path id="Path_164" data-name="Path 164" d="M980.184,1024.021l1.184-1.125a2.264,2.264,0,0,1,.023.241c-.045,1.116.257,1.054-1.208.884" transform="translate(-892.455 -931.344)" fill="#fff"/>
      <path id="Path_165" data-name="Path 165" d="M1090.277,892.877l.8-1.36c.532.96.347,1.294-.8,1.36" transform="translate(-992.694 -811.724)" fill="#fff"/>
      <path id="Path_166" data-name="Path 166" d="M892.139,87.791a8.957,8.957,0,0,1,.96-.284c.086-.016.257.11.3.208a8.677,8.677,0,0,1,.252.92l-1.507-.844" transform="translate(-812.29 -79.674)" fill="#fff"/>
      <path id="Path_167" data-name="Path 167" d="M27.936,405.978l1.1-.6-.5,1.684-.607-1.089" transform="translate(-25.436 -369.1)" fill="#fff"/>
      <path id="Path_168" data-name="Path 168" d="M405.115,1149.039l-.6-1.11,1.683.512-1.085.6" transform="translate(-368.311 -1045.186)" fill="#fff"/>
      <path id="Path_169" data-name="Path 169" d="M772.935,1145.853l1.641-.594-.526,1.13-1.116-.536" transform="translate(-703.755 -1042.755)" fill="#fff"/>
      <path id="Path_170" data-name="Path 170" d="M372.979,1136.013l1.633.6-1.148.53-.485-1.132" transform="translate(-339.596 -1034.337)" fill="#fff"/>
      <path id="Path_171" data-name="Path 171" d="M806.653,1132.775l-.476,1.174-1.133-.472,1.609-.7" transform="translate(-732.99 -1031.389)" fill="#fff"/>
      <path id="Path_172" data-name="Path 172" d="M867.011,1103.85l1.523-.894-.31,1.2-1.213-.3" transform="translate(-789.411 -1004.238)" fill="#fff"/>
      <path id="Path_173" data-name="Path 173" d="M53.62,344.052l-.479-1.169,1.137-.449-.657,1.618" transform="translate(-48.385 -311.785)" fill="#fff"/>
      <path id="Path_174" data-name="Path 174" d="M1124.1,831.312l-1.171.476.694-1.615.478,1.139" transform="translate(-1022.42 -755.87)" fill="#fff"/>
      <path id="Path_175" data-name="Path 175" d="M898.11,1085.366l-.232,1.206-1.236-.249,1.468-.957" transform="translate(-816.39 -988.223)" fill="#fff"/>
      <path id="Path_176" data-name="Path 176" d="M282.151,1089.3l1.512.887-1.186.326-.325-1.213" transform="translate(-256.898 -991.805)" fill="#fff"/>
      <path id="Path_177" data-name="Path 177" d="M1172.621,499.311l-.32-1.738,1.02.71-.7,1.027" transform="translate(-1067.377 -453.039)" fill="#fff"/>
      <path id="Path_178" data-name="Path 178" d="M438.679,1158.6l-1.044.658-.669-1.041,1.713.383" transform="translate(-397.856 -1054.557)" fill="#fff"/>
      <path id="Path_179" data-name="Path 179" d="M708.054,1165.294l-1.042-.651,1.7-.428-.662,1.079" transform="translate(-643.733 -1060.015)" fill="#fff"/>
      <path id="Path_180" data-name="Path 180" d="M674.422,1171.976l-1.015-.68,1.738-.331-.723,1.011" transform="translate(-613.135 -1066.16)" fill="#fff"/>
      <path id="Path_181" data-name="Path 181" d="M1166.707,465.021l-.664,1.046-.419-1.692,1.083.646" transform="translate(-1061.297 -422.812)" fill="#fff"/>
      <path id="Path_182" data-name="Path 182" d="M640.253,1176.764l-1-.761,1.714-.222-.716.983" transform="translate(-582.04 -1070.545)" fill="#fff"/>
      <path id="Path_183" data-name="Path 183" d="M606.267,1179.3l-.944-.806,1.774-.117-.83.923" transform="translate(-551.145 -1072.913)" fill="#fff"/>
      <path id="Path_184" data-name="Path 184" d="M1179.023,634.659l-.95.83.1-1.665.849.834" transform="translate(-1072.632 -577.096)" fill="#fff"/>
      <path id="Path_185" data-name="Path 185" d="M68.325,312.463l1.186-.41-.769,1.577-.418-1.167" transform="translate(-62.21 -284.123)" fill="#fff"/>
      <path id="Path_186" data-name="Path 186" d="M85.611,283.063l1.207-.327-.88,1.525-.326-1.2" transform="translate(-77.949 -257.43)" fill="#fff"/>
      <path id="Path_187" data-name="Path 187" d="M1086.652,277.117l1.231.253-.243,1.209-.988-1.462" transform="translate(-989.394 -252.314)" fill="#fff"/>
      <path id="Path_188" data-name="Path 188" d="M125.082,229.066l-.137-1.08,1.046-.16.078.088-.879,1.207-.108-.055" transform="translate(-113.762 -207.434)" fill="#fff"/>
      <path id="Path_189" data-name="Path 189" d="M1046.555,222.205l1.231.135-.086,1.07-.106.057-1.039-1.262" transform="translate(-952.886 -202.317)" fill="#fff"/>
      <path id="Path_190" data-name="Path 190" d="M131.777,954.089l-1.223-.1.1-1.242,1.127,1.345" transform="translate(-118.869 -867.471)" fill="#fff"/>
      <path id="Path_191" data-name="Path 191" d="M44.323,806.723l-1.15-.44.437-1.171.713,1.611" transform="translate(-39.309 -733.052)" fill="#fff"/>
      <path id="Path_192" data-name="Path 192" d="M275.073,92.673c.035-.178.047-.246.062-.314.229-1.006.23-1.006,1.353-.594l-1.416.908" transform="translate(-250.453 -83.316)" fill="#fff"/>
      <path id="Path_193" data-name="Path 193" d="M801.041,40.837l.539,1.1-1.686-.608,1.147-.493" transform="translate(-728.301 -37.182)" fill="#fff"/>
      <path id="Path_194" data-name="Path 194" d="M429.545,23.642a2.135,2.135,0,0,1,.07-.2c.493-.96.514-.965,1.493-.271l-1.563.476" transform="translate(-391.1 -20.647)" fill="#fff"/>
      <path id="Path_195" data-name="Path 195" d="M463.677,13.86l-1.712.4.658-1.038,1.054.636" transform="translate(-420.618 -12.04)" fill="#fff"/>
      <path id="Path_196" data-name="Path 196" d="M.851,607.1v1.535L0,607.884l.735-.856.116.069" transform="translate(0 -552.697)" fill="#fff"/>
      <path id="Path_197" data-name="Path 197" d="M19.047,440.4l-.586-.926.912-.567.113.045-.327,1.439-.113.009" transform="translate(-16.809 -399.625)" fill="#fff"/>
      <path id="Path_198" data-name="Path 198" d="M1158.241,431.849l-.576,1.1-.513-1.679,1.089.576" transform="translate(-1053.584 -392.674)" fill="#fff"/>
      <path id="Path_199" data-name="Path 199" d="M954.68,1046.212l-.1,1.1-1.2-.112,1.2-1.033.1.047" transform="translate(-868.045 -952.53)" fill="#fff"/>
      <path id="Path_200" data-name="Path 200" d="M304.356,74.813l.311-1.181,1.209.3-1.52.88" transform="translate(-277.115 -67.042)" fill="#fff"/>
      <path id="Path_201" data-name="Path 201" d="M334.314,59.128l.384-1.172,1.185.377-1.57.8" transform="translate(-304.392 -52.769)" fill="#fff"/>
      <path id="Path_202" data-name="Path 202" d="M831.418,54.892l1.193-.434.437,1.125-1.63-.691" transform="translate(-757.004 -49.584)" fill="#fff"/>
      <path id="Path_203" data-name="Path 203" d="M1105.28,306.854l1.049.272-.326,1.2-.8-1.376.073-.1" transform="translate(-1006.287 -279.39)" fill="#fff"/>
      <path id="Path_204" data-name="Path 204" d="M343.159,1123.053l-1.131.472-.488-1.134,1.618.662" transform="translate(-310.972 -1021.934)" fill="#fff"/>
      <path id="Path_205" data-name="Path 205" d="M31.66,773.054l.6,1.645-1.111-.5.509-1.14" transform="translate(-28.363 -703.863)" fill="#fff"/>
      <path id="Path_206" data-name="Path 206" d="M976.305,148.983c.3,0,.6-.016.9.011.076.007.185.14.2.228.046.268.053.543.087.956l-1.225-1.05.034-.145" transform="translate(-888.892 -135.645)" fill="#fff"/>
      <path id="Path_207" data-name="Path 207" d="M471.919,1166.457l-1.055.684-.7-1.006,1.756.322" transform="translate(-428.082 -1061.763)" fill="#fff"/>
      <path id="Path_208" data-name="Path 208" d="M504.4,1173.616l-.783-.971,1.737.213-.954.758" transform="translate(-458.542 -1067.69)" fill="#fff"/>
      <path id="Path_209" data-name="Path 209" d="M735.25,19.882l1.035-.656.664,1.04-1.7-.384" transform="translate(-669.443 -17.505)" fill="#fff"/>
      <path id="Path_210" data-name="Path 210" d="M7.13,673.906l.32,1.7-1.012-.691.692-1.011" transform="translate(-5.862 -613.589)" fill="#fff"/>
      <path id="Path_211" data-name="Path 211" d="M922.12,105.866l.253,1.2-1.473-.937,1.22-.259" transform="translate(-838.477 -96.391)" fill="#fff"/>
      <path id="Path_212" data-name="Path 212" d="M5.181,505.145c.123-.113.207-.2.3-.272.181-.152.365-.3.644-.528l-.188,1.722-.753-.922" transform="translate(-4.717 -459.205)" fill="#fff"/>
      <path id="Path_213" data-name="Path 213" d="M154.24,980.731c-1.447.013-1.259.182-1.208-1.08l.115-.114,1.093,1.194" transform="translate(-139.302 -891.866)" fill="#fff"/>
      <path id="Path_214" data-name="Path 214" d="M1006.019,999.479a1.554,1.554,0,0,1,.056.2c.075,1.07.022,1.116-1.15.948l1.094-1.149" transform="translate(-914.981 -910.023)" fill="#fff"/>
      <path id="Path_215" data-name="Path 215" d="M1135.373,369.063l-.686-1.6a9.6,9.6,0,0,1,.917.352.348.348,0,0,1,.115.312c-.078.283-.2.553-.345.932" transform="translate(-1033.129 -334.579)" fill="#fff"/>
      <path id="Path_216" data-name="Path 216" d="M105.491,254.586l-.944,1.457-.268-1.182,1.211-.276" transform="translate(-94.947 -231.8)" fill="#fff"/>
      <path id="Path_217" data-name="Path 217" d="M740.2,1156.473l1.663-.5-.579,1.075-1.084-.578" transform="translate(-673.95 -1052.513)" fill="#fff"/>
      <path id="Path_218" data-name="Path 218" d="M201.114,1028.695l1.235,1.048H201.12l-.124-1,.118-.053" transform="translate(-183.006 -936.624)" fill="#fff"/>
      <path id="Path_219" data-name="Path 219" d="M1180.949,566.821l-.828.92c-.027-.612-.049-1.093-.07-1.573l.1-.075.8.728" transform="translate(-1074.434 -515.426)" fill="#fff"/>
      <path id="Path_220" data-name="Path 220" d="M769.661,30.256l-1.687-.506,1.066-.573.621,1.078" transform="translate(-699.238 -26.566)" fill="#fff"/>
      <path id="Path_221" data-name="Path 221" d="M1137.122,801.29l.544-1.48c.707.778.59,1.124-.544,1.48" transform="translate(-1035.346 -728.225)" fill="#fff"/>
      <path id="Path_222" data-name="Path 222" d="M1147.417,400.655l-.609-1.646,1.111.527-.5,1.119" transform="translate(-1044.166 -363.297)" fill="#fff"/>
      <path id="Path_223" data-name="Path 223" d="M1071.985,919.423l.249,1.182-1.2.3.956-1.487" transform="translate(-975.169 -837.132)" fill="#fff"/>
      <path id="Path_224" data-name="Path 224" d="M539.359,1177.107l-.916.82-.817-.9,1.733.08" transform="translate(-489.507 -1071.68)" fill="#fff"/>
      <path id="Path_225" data-name="Path 225" d="M669.719,6.329l.853-.656.748.932-1.6-.158q0-.059,0-.118" transform="translate(-609.777 -5.165)" fill="#fff"/>
      <path id="Path_226" data-name="Path 226" d="M11.545,473.6l-.621-.883.852-.6.115.03-.227,1.437-.119.019" transform="translate(-9.946 -429.857)" fill="#fff"/>
      <path id="Path_227" data-name="Path 227" d="M147.931,202.152l-.979,1.188c-.374-1.077-.173-1.33.979-1.188" transform="translate(-133.644 -184.026)" fill="#fff"/>
      <path id="Path_228" data-name="Path 228" d="M12.716,708.491l.646-1.043.382,1.662-1.028-.619" transform="translate(-11.578 -644.129)" fill="#fff"/>
      <path id="Path_229" data-name="Path 229" d="M57.572,836.653l.781,1.542-1.165-.366.384-1.176" transform="translate(-52.07 -761.77)" fill="#fff"/>
      <path id="Path_230" data-name="Path 230" d="M366.4,43.973l1.136.449-1.414.622-.089-.082.367-.989" transform="translate(-333.268 -40.037)" fill="#fff"/>
      <path id="Path_231" data-name="Path 231" d="M195.671,154.227l-1.139,1.062c-.376-.91-.121-1.164,1.139-1.062" transform="translate(-176.975 -140.405)" fill="#fff"/>
      <path id="Path_232" data-name="Path 232" d="M1024.65,196.989c.419,0,.709-.012,1,.01a.275.275,0,0,1,.171.2c.019.3.008.607.008,1.042l-1.176-1.253" transform="translate(-932.941 -179.355)" fill="#fff"/>
    </g>
  </g>
</svg>
