<svg width="1200" height="1200" viewBox="0 0 1200 1200" fill="none" xmlns="http://www.w3.org/2000/svg">
<mask id="mask0_523_363" style="mask-type:alpha" maskUnits="userSpaceOnUse" x="0" y="0" width="1200" height="1200">
<rect width="1200" height="1200" fill="#D9D9D9"/>
</mask>
<g mask="url(#mask0_523_363)">
<path d="M803.75 858.75L858.75 807.5C864.583 801.667 867.5 795.208 867.5 788.125C867.5 781.042 864.583 774.583 858.75 768.75L668.75 578.75C672.917 567.083 676.25 555.833 678.75 545C681.25 534.167 682.5 522.917 682.5 511.25C682.5 462.917 665.417 421.667 631.25 387.5C597.083 353.333 555.833 336.25 507.5 336.25C493.333 336.25 479.167 338.333 465 342.5C450.833 346.667 437.083 352.5 423.75 360L533.75 468.75L466.25 532.5L358.75 426.25C351.25 439.583 345.625 453.333 341.875 467.5C338.125 481.667 336.25 496.25 336.25 511.25C336.25 558.75 352.917 598.958 386.25 631.875C419.583 664.792 460 681.25 507.5 681.25C519.167 681.25 530.625 680.208 541.875 678.125C553.125 676.042 564.583 672.917 576.25 668.75L765 858.75C770 863.75 776.458 866.25 784.375 866.25C792.292 866.25 798.75 863.75 803.75 858.75ZM600 1100C531.667 1100 467.083 1086.87 406.25 1060.62C345.417 1034.37 292.292 998.542 246.875 953.125C201.458 907.708 165.625 854.583 139.375 793.75C113.125 732.917 100 668.333 100 600C100 530.833 113.125 465.833 139.375 405C165.625 344.167 201.458 291.25 246.875 246.25C292.292 201.25 345.417 165.625 406.25 139.375C467.083 113.125 531.667 100 600 100C669.167 100 734.167 113.125 795 139.375C855.833 165.625 908.75 201.25 953.75 246.25C998.75 291.25 1034.37 344.167 1060.62 405C1086.87 465.833 1100 530.833 1100 600C1100 668.333 1086.87 732.917 1060.62 793.75C1034.37 854.583 998.75 907.708 953.75 953.125C908.75 998.542 855.833 1034.37 795 1060.62C734.167 1086.87 669.167 1100 600 1100ZM600 1025C718.333 1025 818.75 983.542 901.25 900.625C983.75 817.708 1025 717.5 1025 600C1025 481.667 983.75 381.25 901.25 298.75C818.75 216.25 718.333 175 600 175C482.5 175 382.292 216.25 299.375 298.75C216.458 381.25 175 481.667 175 600C175 717.5 216.458 817.708 299.375 900.625C382.292 983.542 482.5 1025 600 1025Z" fill="white"/>
</g>
</svg>
