<svg xmlns="http://www.w3.org/2000/svg" width="220" height="226" fill="none" viewBox="0 0 220 226">
    <path fill="#fff" d="M220 110.189C220 49.333 170.751 0 110 0S0 49.333 0 110.189v5.622C0 176.667 49.249 226 110 226s110-49.333 110-110.189z"/>
    <path fill="url(#a)" d="M201.456 75.204c-4.999-11.84-12.155-22.472-21.269-31.603s-19.73-16.3-31.549-21.306c-12.239-5.185-25.238-7.816-38.637-7.816s-26.398 2.629-38.637 7.816c-11.82 5.008-22.434 12.177-31.55 21.306S23.544 63.364 18.546 75.204c-5.176 12.26-7.802 25.281-7.802 38.703s2.624 26.443 7.802 38.703c5 11.839 12.156 22.472 21.27 31.603 9.113 9.129 19.73 16.3 31.549 21.306 12.24 5.184 25.238 7.815 38.637 7.815s26.398-2.628 38.637-7.815c11.819-5.009 22.436-12.177 31.549-21.306 9.114-9.131 16.272-19.764 21.269-31.603 5.176-12.26 7.803-25.281 7.803-38.703s-2.624-26.443-7.803-38.703M202.471 113H179.69a71 71 0 0 0-.26-5.244l17.865-1.811a.68.68 0 0 0 .606-.745.68.68 0 0 0-.744-.607l-17.858 1.812a69.2 69.2 0 0 0-8.867-27.335l19.698-11.364c7.708 13.363 12.181 28.82 12.339 45.294zm-184.94 0c.05-5.13.517-10.161 1.37-15.06l22.403 4.063a70.4 70.4 0 0 0-.992 10.997zm26.01-10.591 20.375 3.697a47 47 0 0 0-.64 6.894H42.574c.048-3.604.378-7.141.97-10.591zm96.264 43.304-7.219-8.534a32.6 32.6 0 0 0 3.584-4.13l9.381 6.066a44 44 0 0 1-5.746 6.598m-63.894-4.653 8.743-6.926a33 33 0 0 0 2.848 3.133l-7.49 8.276a44 44 0 0 1-4.1-4.483m5.258-59.85 7.208 8.52c-5.068 4.553-8.702 10.675-10.13 17.596l-10.977-1.992c1.901-9.519 6.9-17.928 13.897-24.125zm50.015 43.951 2.475 1.277a27 27 0 0 1-4.735 6.414l-3.84-4.537a21.1 21.1 0 0 0 5.646-13.506h6.021a26.7 26.7 0 0 1-2.488 10.413l-2.459-1.27a.678.678 0 1 0-.622 1.207zm-45.524-.095 12.657-6.036a12.82 12.82 0 0 0 8.644 7.286l-2.453 13.838c-8.392-1.759-15.351-7.467-18.848-15.088m6.37-31.019 3.471 4.103a21.08 21.08 0 0 0-6.51 11.126l-5.178-.94a26.83 26.83 0 0 1 8.219-14.289zm-3.04 16.61a.667.667 0 0 0 .504-.111.56.56 0 0 0 .476-.451 19.97 19.97 0 0 1 6.261-11.083l4.867 5.754a12.74 12.74 0 0 0-3.82 8.234H83.246c.038-1.127.145-2.239.319-3.328zm31.404 12.115a.9.9 0 0 0-.952-.281 12.74 12.74 0 0 0 3.28-7.677h6.88a20 20 0 0 1-5.251 12.636l-3.955-4.676zm-20.212-8.864c0-5.423 4.406-9.835 9.819-9.835s9.819 4.412 9.819 9.835-4.406 9.836-9.819 9.836-9.819-4.413-9.819-9.836m22.54-.906a12.7 12.7 0 0 0-1.659-5.445l5.994-3.457a19.9 19.9 0 0 1 2.545 8.902zm-2.134-6.215c-2.294-3.409-6.182-5.658-10.587-5.658a12.67 12.67 0 0 0-7.522 2.466l-4.849-5.728a19.96 19.96 0 0 1 11.984-3.999c7.154 0 13.442 3.781 16.98 9.453l-6.008 3.466zm-23.308 8.027c.084 1.175.323 2.307.703 3.376l-12.685 6.049a26.7 26.7 0 0 1-2.05-9.425zm10.567 11.687a12.695 12.695 0 0 0 10.987-3.387.91.91 0 0 0 .181.831l4.05 4.789a19.96 19.96 0 0 1-9.31 4.784.403.403 0 0 0-.23.047 20 20 0 0 1-3.908.385.566.566 0 0 0 0 1.132c1.293 0 2.558-.117 3.79-.342l1.011 5.618c-1.438.24-2.912.367-4.417.367s-3.108-.138-4.604-.399zm6.444 8.058a21.05 21.05 0 0 0 9.504-4.963l3.807 4.499a26.7 26.7 0 0 1-12.298 6.1l-1.015-5.638zm16.441-21.554a21.05 21.05 0 0 0-2.696-9.469l5.171-2.984a26.66 26.66 0 0 1 3.547 12.453zm-3.157-10.248c-3.734-6.011-10.386-10.02-17.958-10.02-4.727 0-9.15 1.575-12.717 4.265l-3.49-4.123a26.6 26.6 0 0 1 16.591-5.785c9.586 0 18.012 5.074 22.741 12.684zm8.781-7.739 9.188-6.328a44 44 0 0 1 1.758 2.683l-9.665 5.577a32 32 0 0 0-1.281-1.932m-.814-1.089a32.7 32.7 0 0 0-9.027-7.956l5.562-9.68a43.9 43.9 0 0 1 12.662 11.304l-9.197 6.335zm-10.207-8.626a32.2 32.2 0 0 0-14.448-3.858l-.038-11.174a43.25 43.25 0 0 1 20.05 5.348l-5.564 9.682zm-16.256-3.856a32.2 32.2 0 0 0-14.778 4.055l-5.599-9.659a43.2 43.2 0 0 1 20.338-5.567l.039 11.173zM93.13 86.187a33 33 0 0 0-3.374 2.375l-7.209-8.52a44 44 0 0 1 4.984-3.516l5.6 9.659zm-15.128 22.481a33 33 0 0 0-.411 4.338H66.436c.043-2.151.244-4.264.59-6.329L78 108.668zm-.411 6.149c.115 4.2 1.03 8.201 2.6 11.86l-10.073 4.804a43.45 43.45 0 0 1-3.68-16.664h11.155zm2.968 12.686a32.5 32.5 0 0 0 3.272 5.556l-8.75 6.931a43.8 43.8 0 0 1-4.59-7.687zm7.94 10.691a32.3 32.3 0 0 0 15.022 7.54l-1.949 10.999c-7.795-1.537-14.85-5.162-20.56-10.268l7.49-8.271zm15.91 7.707a32.5 32.5 0 0 0 11.01.03l1.978 10.995a43.6 43.6 0 0 1-7.396.631c-2.52 0-5.09-.226-7.54-.656zm11.898-.133a32.3 32.3 0 0 0 14.947-7.354l7.208 8.518a43.44 43.44 0 0 1-20.177 9.831zm20.643-13.825a32 32 0 0 0 1.732-2.907l9.911 5.117a44 44 0 0 1-2.276 3.847zm2.342-4.121a32.3 32.3 0 0 0 3.117-13.007h11.154a43.5 43.5 0 0 1-4.353 18.126l-9.916-5.119zm3.117-14.819a33 33 0 0 0-.075-1.483l11.098-1.125q.103 1.294.131 2.608zm-.204-2.834a32.3 32.3 0 0 0-4.102-12.442l9.66-5.574a43.4 43.4 0 0 1 5.538 16.89zm8.3-19.599 17.935-10.347a67.15 67.15 0 0 1 8.608 26.414l-20.598 2.087a46.5 46.5 0 0 0-5.945-18.154m-.461-.778a47 47 0 0 0-1.894-2.899l17.054-11.744a67 67 0 0 1 2.775 4.293l-17.935 10.347zm-2.694-3.995a47.1 47.1 0 0 0-13.695-12.25l10.325-17.969a68 68 0 0 1 20.43 18.469l-17.062 11.75zm-14.873-12.923a46.35 46.35 0 0 0-21.64-5.771l-.07-20.74a66.9 66.9 0 0 1 32.037 8.54zm-23.448-5.77a46.4 46.4 0 0 0-21.916 5.998L76.721 55.17a66.93 66.93 0 0 1 32.238-8.803zm-23.086 6.682a47 47 0 0 0-5.441 3.838L67.119 61.807a68 68 0 0 1 8.43-5.95zm-6.82 5.01c-7.545 6.664-12.93 15.723-14.965 25.98l-20.372-3.698c2.907-15.077 10.829-28.383 21.956-38.098zm-15.849 36.021a46.6 46.6 0 0 0 3.985 18.027l-18.7 8.916a67.2 67.2 0 0 1-5.99-26.943h20.705m4.36 18.851a47 47 0 0 0 4.966 8.289l-16.233 12.861a67.8 67.8 0 0 1-7.425-12.238l18.69-8.914zm5.798 9.365a47 47 0 0 0 4.457 4.865l-13.9 15.356a68 68 0 0 1-6.788-7.363zm5.456 5.782c6.141 5.5 13.738 9.401 22.131 11.043l-3.62 20.422c-12.306-2.339-23.44-8.04-32.412-16.109zm23.021 11.21a47 47 0 0 0 8.094.704c2.76 0 5.371-.235 7.956-.681l3.671 20.411a67.5 67.5 0 0 1-11.629 1.008 68 68 0 0 1-11.713-1.021l3.619-20.421zm16.939-.14a46.6 46.6 0 0 0 21.66-10.533l13.379 15.813c-8.791 7.562-19.538 12.899-31.369 15.131zm23.005-11.744a47 47 0 0 0 6.358-7.298l5.798 3.75a.672.672 0 0 0 .935-.202.68.68 0 0 0-.201-.939l-5.768-3.729a47 47 0 0 0 2.432-4.114l18.401 9.498a68 68 0 0 1-14.563 18.862l-13.39-15.828zm10.169-13.744a46.6 46.6 0 0 0 4.706-19.578h20.702a67.2 67.2 0 0 1-7.007 29.076l-18.401-9.5zm4.706-21.389a47 47 0 0 0-.147-2.928l20.598-2.087q.216 2.483.251 5.015zm-46.727-91.73c33.884 0 63.57 18.351 79.677 45.652L169.98 78.294a71 71 0 0 0-2.875-4.449l15.365-10.58a.678.678 0 1 0-.768-1.119l-15.391 10.599a71 71 0 0 0-7.022-8.201 70 70 0 0 0-14.157-10.96l9.286-16.162a.68.68 0 1 0-1.176-.68l-9.287 16.162c-10.047-5.63-21.387-8.678-33.195-8.803l-.063-18.797a.906.906 0 0 0-.904-.903h-.002c-.5 0-.902.407-.902.908l.063 18.794c-11.893.175-23.303 3.313-33.386 9.07L66.04 36.739a.678.678 0 1 0-1.173.681l9.527 16.438a70 70 0 0 0-8.757 6.195L50.942 42.679c16.03-13.36 36.626-21.405 59.061-21.405zm-60.44 22.579L64.26 61.23a72 72 0 0 0-3.547 3.313c-9.992 10.01-16.574 22.526-19.167 36.131l-22.404-4.066c3.96-20.907 14.954-39.349 30.419-52.752m-32.03 70.962h22.78c.125 9.79 2.248 19.259 6.176 27.933l-20.532 9.79c-5.292-11.506-8.296-24.276-8.424-37.723m8.806 38.545 20.528-9.788a69.5 69.5 0 0 0 7.7 12.673l-14.773 11.703a.678.678 0 0 0 .84 1.064L55.4 157.317a71 71 0 0 0 5.314 5.966 70 70 0 0 0 1.734 1.671l-13.094 14.464a.68.68 0 0 0 .502 1.136.67.67 0 0 0 .502-.222l13.087-14.456c9.554 8.61 21.102 14.307 33.556 16.648l-3.98 22.458c-29.547-5.513-54.198-25.146-66.688-51.618zm67.575 51.781 3.978-22.456A70.4 70.4 0 0 0 110 183.733c4.102 0 8.096-.349 12.031-1.03l4.037 22.444a92.5 92.5 0 0 1-16.068 1.402 92.6 92.6 0 0 1-16.089-1.404zm33.046-.158-4.037-22.447c11.975-2.237 23.111-7.574 32.448-15.618l7.511 8.877a.903.903 0 0 0 1.273.105.91.91 0 0 0 .106-1.277l-7.534-8.905a71 71 0 0 0 2.559-2.439 70 70 0 0 0 12.567-17.119l4.001 2.065a.676.676 0 0 0 .913-.294.68.68 0 0 0-.291-.915l-4.003-2.067c4.597-9.263 7.086-19.508 7.219-30.134h22.781c-.431 44.876-32.878 82.218-75.513 90.165z"/>
    <defs>
        <linearGradient id="a" x1="24.022" x2="196.126" y1="163.63" y2="64.434" gradientUnits="userSpaceOnUse">
            <stop offset=".12" stop-opacity="0"/>
            <stop offset=".44"/>
        </linearGradient>
    </defs>
</svg>