<svg xmlns="http://www.w3.org/2000/svg" width="554" height="232" fill="none" viewBox="0 0 554 232">
    <path fill="#FF0043" d="M220 110.189C220 49.333 170.751 0 110 0S0 49.333 0 110.189v5.622C0 176.667 49.249 226 110 226s110-49.333 110-110.189z"/>
    <path fill="url(#a)" d="M201.457 75.204c-5-11.84-12.156-22.472-21.27-31.603s-19.73-16.3-31.549-21.306c-12.239-5.185-25.238-7.816-38.637-7.816s-26.398 2.629-38.637 7.816c-11.82 5.008-22.433 12.177-31.55 21.306-9.115 9.129-16.27 19.763-21.268 31.603-5.176 12.26-7.803 25.281-7.803 38.703s2.624 26.443 7.803 38.703c5 11.839 12.156 22.472 21.269 31.603 9.113 9.129 19.73 16.3 31.549 21.306 12.24 5.185 25.238 7.815 38.637 7.815s26.398-2.628 38.637-7.815c11.819-5.009 22.436-12.177 31.549-21.306 9.114-9.131 16.272-19.764 21.27-31.603 5.176-12.26 7.802-25.281 7.802-38.703s-2.624-26.443-7.802-38.703M202.472 113H179.69a70 70 0 0 0-.26-5.244l17.866-1.811a.68.68 0 0 0 .605-.745.677.677 0 0 0-.743-.607l-17.859 1.812a69.2 69.2 0 0 0-8.867-27.335l19.698-11.364c7.708 13.363 12.181 28.82 12.339 45.294zm-184.941 0c.05-5.13.517-10.161 1.37-15.06l22.403 4.063a70.4 70.4 0 0 0-.992 10.997zm26.011-10.591 20.374 3.697a47 47 0 0 0-.64 6.894H42.576c.047-3.604.377-7.141.97-10.591zm96.263 43.304-7.219-8.534a32.7 32.7 0 0 0 3.585-4.13l9.38 6.066a44 44 0 0 1-5.746 6.598m-63.893-4.653 8.742-6.926a33 33 0 0 0 2.848 3.133l-7.49 8.276a44 44 0 0 1-4.1-4.483m5.257-59.85 7.208 8.52c-5.067 4.553-8.702 10.675-10.13 17.596l-10.977-1.992c1.901-9.519 6.901-17.928 13.897-24.125zm50.016 43.951 2.475 1.277a27 27 0 0 1-4.736 6.414l-3.84-4.537a21.1 21.1 0 0 0 5.646-13.506h6.022a26.7 26.7 0 0 1-2.489 10.413l-2.459-1.27a.68.68 0 0 0-.622 1.207zm-45.525-.095 12.658-6.036a12.82 12.82 0 0 0 8.643 7.286l-2.452 13.838c-8.393-1.759-15.352-7.467-18.849-15.088m6.37-31.019 3.471 4.103a21.08 21.08 0 0 0-6.51 11.126l-5.177-.94a26.83 26.83 0 0 1 8.218-14.289zm-3.04 16.61a.666.666 0 0 0 .504-.111.56.56 0 0 0 .477-.451 19.97 19.97 0 0 1 6.26-11.083l4.867 5.753a12.75 12.75 0 0 0-3.82 8.235H83.246c.039-1.127.145-2.239.319-3.328zm31.404 12.115a.9.9 0 0 0-.952-.281 12.74 12.74 0 0 0 3.28-7.677h6.88a20 20 0 0 1-5.25 12.636l-3.956-4.676zm-20.211-8.864c0-5.423 4.405-9.835 9.818-9.835 5.414 0 9.819 4.412 9.819 9.835s-4.405 9.836-9.819 9.836c-5.413 0-9.818-4.413-9.818-9.836m22.539-.906a12.7 12.7 0 0 0-1.659-5.445l5.994-3.457a19.9 19.9 0 0 1 2.545 8.902zm-2.134-6.215c-2.294-3.409-6.182-5.658-10.587-5.658a12.67 12.67 0 0 0-7.522 2.466l-4.848-5.728a19.96 19.96 0 0 1 11.984-3.999c7.153 0 13.442 3.781 16.979 9.453l-6.008 3.466zm-23.308 8.027c.084 1.175.323 2.307.703 3.376L85.3 124.24a26.7 26.7 0 0 1-2.05-9.425zm10.567 11.687a12.695 12.695 0 0 0 10.987-3.387.91.91 0 0 0 .181.831l4.051 4.789a19.97 19.97 0 0 1-9.31 4.784.403.403 0 0 0-.231.047 20 20 0 0 1-3.908.385.566.566 0 0 0 0 1.132 21 21 0 0 0 3.79-.342l1.011 5.618a26.8 26.8 0 0 1-9.021-.032zm6.444 8.058a21.06 21.06 0 0 0 9.505-4.963l3.806 4.499a26.7 26.7 0 0 1-12.298 6.1l-1.015-5.638zm16.441-21.554a21.05 21.05 0 0 0-2.696-9.469l5.172-2.984a26.66 26.66 0 0 1 3.546 12.453zm-3.157-10.248c-3.734-6.011-10.386-10.02-17.958-10.02-4.726 0-9.15 1.575-12.716 4.265l-3.49-4.123A26.6 26.6 0 0 1 110 87.095c9.586 0 18.012 5.074 22.741 12.684zm8.781-7.739 9.188-6.328a44 44 0 0 1 1.759 2.683l-9.665 5.577a33 33 0 0 0-1.282-1.932m-.814-1.089a32.7 32.7 0 0 0-9.027-7.956l5.562-9.68a43.9 43.9 0 0 1 12.662 11.304l-9.197 6.335zm-10.207-8.626a32.2 32.2 0 0 0-14.448-3.858l-.038-11.174A43.25 43.25 0 0 1 130.9 75.62l-5.565 9.682zm-16.256-3.856a32.17 32.17 0 0 0-14.778 4.055l-5.598-9.659a43.2 43.2 0 0 1 20.338-5.567l.038 11.173zM93.13 86.187a33 33 0 0 0-3.374 2.375l-7.208-8.52a44 44 0 0 1 4.984-3.516l5.598 9.659zm-15.128 22.481a33 33 0 0 0-.411 4.338H66.437c.043-2.151.244-4.264.59-6.329L78 108.668zm-.411 6.149c.115 4.2 1.03 8.201 2.6 11.86l-10.073 4.804a43.45 43.45 0 0 1-3.68-16.664h11.155zm2.968 12.686a32.6 32.6 0 0 0 3.273 5.556l-8.75 6.931a43.8 43.8 0 0 1-4.59-7.687zm7.94 10.691a32.3 32.3 0 0 0 15.022 7.54l-1.948 10.999c-7.796-1.537-14.85-5.162-20.56-10.268l7.488-8.271zm15.91 7.707a32.5 32.5 0 0 0 11.01.03l1.978 10.995a43.6 43.6 0 0 1-7.396.631c-2.52 0-5.09-.226-7.54-.656zm11.898-.133a32.3 32.3 0 0 0 14.948-7.354l7.208 8.518a43.44 43.44 0 0 1-20.178 9.831zm20.644-13.825a32 32 0 0 0 1.731-2.907l9.911 5.117a44 44 0 0 1-2.276 3.847zm2.341-4.121a32.3 32.3 0 0 0 3.117-13.007h11.155a43.5 43.5 0 0 1-4.354 18.126l-9.916-5.119zm3.117-14.819a32 32 0 0 0-.074-1.483l11.097-1.125q.103 1.294.132 2.608zm-.203-2.834a32.3 32.3 0 0 0-4.103-12.442l9.661-5.574a43.4 43.4 0 0 1 5.537 16.89zm8.299-19.599 17.936-10.347a67.15 67.15 0 0 1 8.607 26.414l-20.598 2.087a46.5 46.5 0 0 0-5.945-18.154m-.461-.779a47 47 0 0 0-1.894-2.898l17.054-11.744a67 67 0 0 1 2.776 4.293l-17.936 10.347zm-2.694-3.993a47.1 47.1 0 0 0-13.695-12.252l10.325-17.968a68 68 0 0 1 20.431 18.469l-17.063 11.75zm-14.873-12.924a46.35 46.35 0 0 0-21.64-5.771l-.07-20.74a66.9 66.9 0 0 1 32.038 8.54zm-23.448-5.77a46.4 46.4 0 0 0-21.915 5.998L76.72 55.17a66.9 66.9 0 0 1 32.238-8.803zm-23.086 6.682a47 47 0 0 0-5.44 3.838L67.118 61.807a68 68 0 0 1 8.431-5.95zm-6.82 5.01c-7.544 6.664-12.93 15.723-14.965 25.98l-20.372-3.698c2.907-15.077 10.83-28.383 21.957-38.098zm-15.849 36.021a46.6 46.6 0 0 0 3.985 18.027L48.56 141.76a67.2 67.2 0 0 1-5.99-26.943h20.704m4.36 18.851a47 47 0 0 0 4.966 8.289l-16.233 12.861a67.8 67.8 0 0 1-7.425-12.238l18.69-8.914zm5.798 9.365a47 47 0 0 0 4.457 4.865l-13.9 15.356a68 68 0 0 1-6.788-7.363zm5.456 5.782c6.142 5.5 13.738 9.401 22.131 11.043L97.4 180.28c-12.307-2.339-23.441-8.04-32.412-16.109zm23.021 11.21c2.629.462 5.335.704 8.094.704 2.76 0 5.371-.235 7.957-.681l3.67 20.411a67.672 67.672 0 0 1-23.342-.014l3.619-20.42zm16.939-.14a46.6 46.6 0 0 0 21.66-10.533l13.379 15.813c-8.79 7.562-19.538 12.899-31.368 15.131zm23.005-11.744a47 47 0 0 0 6.358-7.298l5.798 3.75a.674.674 0 0 0 .936-.202.68.68 0 0 0-.202-.939l-5.768-3.729a47 47 0 0 0 2.432-4.114l18.401 9.498a68 68 0 0 1-14.563 18.862l-13.39-15.828zm10.169-13.744a46.6 46.6 0 0 0 4.706-19.578h20.702a67.2 67.2 0 0 1-7.007 29.076l-18.401-9.5zm4.706-21.389a47 47 0 0 0-.147-2.928l20.598-2.087q.217 2.483.251 5.015zm-46.727-91.73c33.884 0 63.571 18.351 79.677 45.652L169.98 78.294a71 71 0 0 0-2.875-4.449l15.365-10.58a.678.678 0 1 0-.768-1.119l-15.39 10.599a71 71 0 0 0-7.023-8.201 70 70 0 0 0-14.156-10.96l9.285-16.162a.678.678 0 1 0-1.175-.68l-9.288 16.162c-10.047-5.63-21.387-8.678-33.194-8.803l-.064-18.797a.906.906 0 0 0-.904-.903h-.002c-.5 0-.902.407-.902.908l.063 18.794c-11.893.175-23.303 3.313-33.386 9.07L66.04 36.739a.678.678 0 1 0-1.173.681l9.527 16.438a70 70 0 0 0-8.756 6.195L50.942 42.679c16.03-13.36 36.626-21.405 59.061-21.405zm-60.44 22.579L64.26 61.23a72 72 0 0 0-3.547 3.313c-9.992 10.01-16.574 22.526-19.167 36.131l-22.404-4.066c3.96-20.907 14.954-39.349 30.42-52.752m-32.03 70.962h22.781c.125 9.79 2.247 19.259 6.175 27.933l-20.532 9.79c-5.291-11.506-8.295-24.276-8.424-37.723m8.806 38.545 20.528-9.788a69.5 69.5 0 0 0 7.7 12.673l-14.773 11.703a.678.678 0 0 0 .841 1.064L55.4 157.317a71 71 0 0 0 5.314 5.966c.57.571 1.148 1.123 1.733 1.671l-13.094 14.464a.68.68 0 0 0 .502 1.136.68.68 0 0 0 .502-.222l13.087-14.456c9.554 8.61 21.102 14.307 33.556 16.648l-3.98 22.458c-29.547-5.513-54.197-25.146-66.688-51.618zm67.576 51.781 3.978-22.456a70.4 70.4 0 0 0 12.108 1.044c4.102 0 8.096-.349 12.031-1.03l4.037 22.444a92.5 92.5 0 0 1-16.068 1.402c-5.479 0-10.86-.482-16.089-1.404zm33.045-.158-4.037-22.447c11.975-2.237 23.111-7.574 32.449-15.618l7.51 8.877a.903.903 0 0 0 1.273.105.91.91 0 0 0 .106-1.277l-7.533-8.905q1.305-1.183 2.558-2.439a70 70 0 0 0 12.568-17.119l4 2.065q.152.077.31.075a.68.68 0 0 0 .312-1.284l-4.003-2.067c4.597-9.263 7.086-19.508 7.219-30.134h22.782c-.432 44.876-32.878 82.218-75.514 90.165z"/>
    <path fill="currentColor" d="M295.823 22.717V62.1h-4.462V44.165h-23.206v17.936h-4.462V22.717h4.462v17.196h23.206V22.717zM329.854 32.464V62.1h-4.303v-4.755c-1.717 3.144-5.545 5.442-9.742 5.442-6.521 0-11.115-4.755-11.115-11.464v-18.86h4.303v18.279c0 4.807 3.036 8.188 7.392 8.188 4.99 0 9.162-3.487 9.162-7.634v-18.86h4.303zM381.178 43.24V62.1h-4.304V43.823c0-4.808-2.798-8.189-6.811-8.189-4.7 0-8.026 3.144-8.026 7.634v18.86h-4.303V43.848c0-4.807-2.799-8.188-6.812-8.188-4.699 0-8.026 3.143-8.026 7.634v18.86h-4.277v-29.69h4.304v4.358c1.478-3.09 4.699-5.045 8.58-5.045 4.462 0 7.973 2.456 9.557 6.313 1.214-3.83 5.095-6.313 9.557-6.313 6.204 0 10.561 4.755 10.561 11.464M413.941 44.033v18.041h-4.303v-4.649c-2.112 3.487-6.521 5.336-10.428 5.336-6.231 0-10.825-3.619-10.825-9.456 0-5.89 5.28-9.853 11.617-9.853 3.221 0 6.6.687 9.636 1.664v-1.083c0-4.015-1.61-8.585-8.026-8.585-2.983 0-5.967 1.321-8.659 2.695l-1.717-3.487c4.251-2.113 7.789-2.853 10.666-2.853 8.079-.026 12.039 5.072 12.039 12.23m-4.303 8.77v-4.517a33.9 33.9 0 0 0-8.924-1.215c-4.409 0-8.131 2.51-8.131 6.075 0 3.672 3.194 5.838 7.392 5.838 3.881.026 8.528-1.981 9.663-6.181M447.92 43.24V62.1h-4.304V43.823c0-4.808-3.036-8.189-7.392-8.189-4.99 0-9.161 3.487-9.161 7.634v18.86h-4.304V32.464h4.304v4.754c1.716-3.143 5.544-5.441 9.742-5.441 6.521 0 11.115 4.755 11.115 11.464M283.441 116.304l10.191 14.554h-5.096l-9.979-14.158h-10.429v14.158h-4.461V91.501h15.972c8.132 0 14.494 5.203 14.494 12.599.027 6.208-4.435 10.91-10.692 12.204m-15.286-3.83h10.719c6.415 0 10.771-3.091 10.771-8.374s-4.356-8.373-10.771-8.373h-10.719zM323.439 124.176l2.64 2.799c-2.588 2.8-7.789 4.597-11.907 4.597-7.894 0-14.996-6.472-14.996-15.585 0-8.823 6.653-15.426 14.6-15.426 8.923 0 14.045 6.762 14.045 17.143h-24.236c.634 5.785 4.699 10.037 10.534 10.037 3.485-.026 7.471-1.558 9.32-3.565m-19.828-10.329h19.933c-.581-5.335-3.722-9.456-9.636-9.456-5.254 0-9.478 3.724-10.297 9.456M341.523 101.247h7.287v3.831h-7.287v25.78h-4.303v-25.78h-4.647v-3.831h4.647V97.18c0-4.412 2.983-7.555 7.207-7.555a8.88 8.88 0 0 1 5.492 1.902l-2.112 3.143c-.634-.687-1.769-1.215-3.089-1.215-1.716 0-3.221 1.559-3.221 3.725v4.067zM377.614 124.176l2.64 2.799c-2.588 2.8-7.789 4.597-11.907 4.597-7.894 0-14.996-6.472-14.996-15.585 0-8.823 6.653-15.426 14.6-15.426 8.923 0 14.045 6.762 14.045 17.143H357.76c.634 5.785 4.699 10.037 10.534 10.037 3.485-.026 7.498-1.558 9.32-3.565m-19.801-10.329h19.933c-.581-5.335-3.723-9.456-9.637-9.456-5.254 0-9.504 3.724-10.296 9.456M405.176 100.561v3.83c-6.706 0-11.458 4.121-11.458 9.905v16.562h-4.303v-29.61h4.303v5.784c1.769-3.962 6.02-6.471 11.458-6.471M433.821 124.176l2.641 2.799c-2.588 2.8-7.789 4.597-11.907 4.597-7.894 0-14.996-6.472-14.996-15.585 0-8.823 6.653-15.426 14.6-15.426 8.923 0 14.045 6.762 14.045 17.143h-24.236c.633 5.785 4.699 10.037 10.534 10.037 3.458-.026 7.471-1.558 9.319-3.565m-19.827-10.329h19.933c-.581-5.335-3.723-9.456-9.61-9.456-5.28 0-9.531 3.724-10.323 9.456M470.413 112.025v18.86h-4.303v-18.279c0-4.808-3.036-8.189-7.392-8.189-4.99 0-9.162 3.487-9.162 7.634v18.86h-4.277v-29.663h4.304v4.754c1.716-3.143 5.544-5.441 9.742-5.441 6.521 0 11.088 4.754 11.088 11.464M477.515 116.04c0-8.426 7.049-15.479 15.339-15.479 4.013 0 7.736 1.664 10.534 4.358l-2.983 2.932c-1.954-2.113-4.647-3.434-7.551-3.434-5.887 0-10.824 5.336-10.824 11.623 0 6.366 4.937 11.701 10.824 11.701 2.983 0 5.729-1.373 7.736-3.618l2.983 2.932c-2.799 2.8-6.6 4.517-10.719 4.517-8.29 0-15.339-7.106-15.339-15.532M532.852 124.176l2.64 2.799c-2.587 2.8-7.788 4.597-11.907 4.597-7.894 0-14.996-6.472-14.996-15.585 0-8.823 6.653-15.426 14.6-15.426 8.924 0 14.045 6.762 14.045 17.143h-24.236c.634 5.785 4.7 10.037 10.534 10.037 3.485-.026 7.498-1.558 9.32-3.565m-19.827-10.329h19.932c-.58-5.335-3.722-9.456-9.61-9.456-5.28 0-9.504 3.724-10.322 9.456M291.757 190.714h-21.939l-3.96 8.928H261l17.345-39.384h4.858l17.346 39.384h-4.858zm-1.821-4.253-9.109-20.683-9.161 20.683zM321.881 198.453a8.94 8.94 0 0 1-5.492 1.902c-4.25 0-7.207-3.143-7.207-7.554v-18.913h-4.647v-3.83h4.647v-8.136h4.303v8.136h7.287v3.83h-7.287v18.913c0 2.166 1.479 3.724 3.221 3.724 1.32 0 2.456-.528 3.089-1.215zM327.953 159.597h4.304v40.071h-4.304zM365.02 181.601v18.041h-4.303v-4.649c-2.112 3.487-6.521 5.336-10.429 5.336-6.23 0-10.824-3.619-10.824-9.457 0-5.89 5.28-9.852 11.616-9.852 3.195 0 6.601.686 9.637 1.664v-1.083c0-4.015-1.611-8.585-8.026-8.585-2.983 0-5.967 1.321-8.66 2.694l-1.716-3.486c4.251-2.114 7.789-2.853 10.666-2.853 8.079-.053 12.039 5.071 12.039 12.23m-4.303 8.769v-4.516a33.9 33.9 0 0 0-8.924-1.216c-4.409 0-8.131 2.51-8.131 6.076 0 3.671 3.221 5.837 7.392 5.837 3.881 0 8.528-2.007 9.663-6.181M372.016 195.918l2.245-3.144c3.379 2.457 6.758 3.725 10.032 3.725 3.907 0 6.521-1.823 6.521-4.649 0-3.223-3.432-4.253-7.445-5.389-7.155-2.06-9.9-4.173-9.9-8.426 0-5.389 4.461-8.717 10.375-8.717 3.67 0 7.445 1.268 10.587 3.328l-2.059 3.329c-2.984-1.902-5.888-2.8-8.528-2.8-3.326 0-6.072 1.479-6.072 4.358 0 2.589 2.165 3.381 7.683 5.151 4.752 1.479 9.689 3.09 9.689 8.717 0 5.441-4.7 8.928-10.825 8.928-4.171 0-8.765-1.532-12.303-4.411"/>
    <defs>
        <linearGradient id="a" x1="24.02" x2="196.127" y1="163.63" y2="64.434" gradientUnits="userSpaceOnUse">
            <stop offset=".12" stop-color="#fff" stop-opacity="0"/>
            <stop offset=".44" stop-color="#fff"/>
        </linearGradient>
    </defs>
</svg>