<svg xmlns="http://www.w3.org/2000/svg" viewBox="0 0 30 30"><defs><style>.cls-1,.cls-2{fill:none;}.cls-1{stroke:#000;stroke-miterlimit:10;}</style></defs><g id="prostate"><path class="cls-1" d="M22.25,9.45a2.45,2.45,0,0,1,.69-1.66L24.76,6h0l-.44-.45-1-1-1.8,1.81A2.45,2.45,0,0,1,19.57,7a10.1,10.1,0,0,0-4.84-1.18A10.08,10.08,0,0,0,9.85,7a2.46,2.46,0,0,1-1.79-.69L6.24,4.48h0l-.44.45-1,1L6.57,7.77a2.48,2.48,0,0,1,.69,1.62,4.81,4.81,0,0,0-.74,2.52c0,2.79,2.5,5.14,5.92,5.88a2.48,2.48,0,0,1,1.25,2.1v7.59h2.08V19.92a2.49,2.49,0,0,1,1.29-2.13,9.05,9.05,0,0,0,1.05-.3h0c2.84-1,4.82-3.09,4.82-5.58A5.67,5.67,0,0,0,22.25,9.45Z"/><path d="M14,21.44c.36,1,0,5-.76,5.29s-2.93-1.14-3.75-3.5-.3-4.2,1.6-4.88S13.15,19.07,14,21.44Z"/><path d="M15.56,21.44c-.36,1-.05,5,.77,5.29s2.92-1.14,3.75-3.5.29-4.2-1.61-4.88S16.38,19.07,15.56,21.44Z"/></g><g id="PNS"><rect id="base" class="cls-2" x="-12.07" y="-27.64" width="30" height="30"/></g></svg>